<svg width="380" height="224" viewBox="0 0 380 224" fill="none" xmlns="http://www.w3.org/2000/svg">
<rect width="380" height="224" fill="white"/>
<path d="M355.265 184.776H25V184.937H355.265V184.776Z" fill="#EBEBEB"/>
<path d="M322.172 195.144H300.295V195.305H322.172V195.144Z" fill="#EBEBEB"/>
<path d="M243.781 196.897H238.041V197.057H243.781V196.897Z" fill="#EBEBEB"/>
<path d="M299.635 189.165H286.959V189.326H299.635V189.165Z" fill="#EBEBEB"/>
<path d="M88.1796 190.247H59.6513V190.409H88.1796V190.247Z" fill="#EBEBEB"/>
<path d="M98.2461 190.247H94.0649V190.409H98.2461V190.247Z" fill="#EBEBEB"/>
<path d="M173.718 192.966H111.84V193.128H173.718V192.966Z" fill="#EBEBEB"/>
<path d="M181.289 156.123H53.9158C51.8379 156.123 50.1492 155.052 50.1492 153.734V40.179C50.1492 38.8611 51.8379 37.7902 53.9158 37.7902H181.295C183.373 37.7902 185.061 38.8611 185.061 40.179V153.734C185.055 155.052 183.366 156.123 181.289 156.123ZM53.9158 37.8947C51.9303 37.8947 50.3142 38.9197 50.3142 40.179V153.734C50.3142 154.993 51.9303 156.018 53.9158 156.018H181.295C183.28 156.018 184.897 154.993 184.897 153.734V40.179C184.897 38.9197 183.28 37.8947 181.295 37.8947H53.9158Z" fill="#EBEBEB"/>
<path d="M324.143 156.123H196.764C194.686 156.123 192.997 155.052 192.997 153.734V40.179C192.997 38.8611 194.686 37.7902 196.764 37.7902H324.143C326.221 37.7902 327.909 38.8611 327.909 40.179V153.734C327.909 155.052 326.221 156.123 324.143 156.123ZM196.764 37.8947C194.778 37.8947 193.163 38.9197 193.163 40.179V153.734C193.163 154.993 194.778 156.018 196.764 156.018H324.143C326.128 156.018 327.745 154.993 327.745 153.734V40.179C327.745 38.9197 326.128 37.8947 324.143 37.8947H196.764Z" fill="#EBEBEB"/>
<path d="M140.989 44.2806H90.082V145.421H140.989V44.2806Z" fill="#EBEBEB"/>
<path d="M139.071 143.316V46.3765H92.0018V143.316H139.071Z" fill="#E0E0E0"/>
<path d="M116.081 45.8392H114.997V144.371H116.081V45.8392Z" fill="#EBEBEB"/>
<path d="M142.165 42.8235H88.9062V48.0885H142.165V42.8235Z" fill="#EBEBEB"/>
<path d="M142.165 48.6685H88.9062V49.2936H142.165V48.6685Z" fill="#EBEBEB"/>
<path d="M142.165 50.0858H88.9062V50.711H142.165V50.0858Z" fill="#EBEBEB"/>
<path d="M142.165 51.5033H88.9062V52.1285H142.165V51.5033Z" fill="#EBEBEB"/>
<path d="M142.165 52.9208H88.9062V53.5459H142.165V52.9208Z" fill="#EBEBEB"/>
<path d="M142.165 54.3383H88.9062V54.9634H142.165V54.3383Z" fill="#EBEBEB"/>
<path d="M142.165 55.749H88.9062V56.3742H142.165V55.749Z" fill="#EBEBEB"/>
<path d="M142.165 57.1665H88.9062V57.7916H142.165V57.1665Z" fill="#EBEBEB"/>
<path d="M142.165 58.584H88.9062V59.2091H142.165V58.584Z" fill="#EBEBEB"/>
<path d="M142.165 60.0015H88.9062V60.6266H142.165V60.0015Z" fill="#EBEBEB"/>
<path d="M142.165 61.4198H88.9062V62.044H142.165V61.4198Z" fill="#EBEBEB"/>
<path d="M142.165 62.8306H88.9062V63.4557H142.165V62.8306Z" fill="#EBEBEB"/>
<path d="M142.165 64.248H88.9062V64.8732H142.165V64.248Z" fill="#EBEBEB"/>
<path d="M142.165 65.6655H88.9062V66.2907H142.165V65.6655Z" fill="#EBEBEB"/>
<path d="M142.165 67.083H88.9062V67.7081H142.165V67.083Z" fill="#EBEBEB"/>
<path d="M142.165 68.5005H88.9062V69.1257H142.165V68.5005Z" fill="#EBEBEB"/>
<path d="M142.165 69.918H88.9062V70.5431H142.165V69.918Z" fill="#EBEBEB"/>
<path d="M142.165 71.3296H88.9062V71.9538H142.165V71.3296Z" fill="#EBEBEB"/>
<path d="M142.165 72.7471H88.9062V73.3713H142.165V72.7471Z" fill="#EBEBEB"/>
<path d="M201.263 44.2806H150.355V145.421H201.263V44.2806Z" fill="#EBEBEB"/>
<path d="M199.343 143.317V46.3773H152.274V143.317H199.343Z" fill="#E0E0E0"/>
<path d="M176.353 45.8392H175.27V144.371H176.353V45.8392Z" fill="#EBEBEB"/>
<path d="M202.438 42.8235H149.18V48.0885H202.438V42.8235Z" fill="#EBEBEB"/>
<path d="M202.438 48.6685H149.18V49.2936H202.438V48.6685Z" fill="#EBEBEB"/>
<path d="M202.438 50.0858H149.18V50.711H202.438V50.0858Z" fill="#EBEBEB"/>
<path d="M202.438 51.5033H149.18V52.1285H202.438V51.5033Z" fill="#EBEBEB"/>
<path d="M202.438 52.9208H149.18V53.5459H202.438V52.9208Z" fill="#EBEBEB"/>
<path d="M202.438 54.3383H149.18V54.9634H202.438V54.3383Z" fill="#EBEBEB"/>
<path d="M202.438 55.749H149.18V56.3742H202.438V55.749Z" fill="#EBEBEB"/>
<path d="M202.438 57.1665H149.18V57.7916H202.438V57.1665Z" fill="#EBEBEB"/>
<path d="M202.438 58.584H149.18V59.2091H202.438V58.584Z" fill="#EBEBEB"/>
<path d="M202.438 60.0015H149.18V60.6266H202.438V60.0015Z" fill="#EBEBEB"/>
<path d="M202.438 61.4198H149.18V62.044H202.438V61.4198Z" fill="#EBEBEB"/>
<path d="M202.438 62.8306H149.18V63.4557H202.438V62.8306Z" fill="#EBEBEB"/>
<path d="M202.438 64.248H149.18V64.8732H202.438V64.248Z" fill="#EBEBEB"/>
<path d="M202.438 65.6655H149.18V66.2907H202.438V65.6655Z" fill="#EBEBEB"/>
<path d="M202.438 67.083H149.18V67.7081H202.438V67.083Z" fill="#EBEBEB"/>
<path d="M202.438 68.5005H149.18V69.1257H202.438V68.5005Z" fill="#EBEBEB"/>
<path d="M202.438 69.918H149.18V70.5431H202.438V69.918Z" fill="#EBEBEB"/>
<path d="M202.438 71.3296H149.18V71.9538H202.438V71.3296Z" fill="#EBEBEB"/>
<path d="M202.438 72.7471H149.18V73.3713H202.438V72.7471Z" fill="#EBEBEB"/>
<path d="M206.632 169.396H155.276V164.306C155.276 162.812 156.518 161.6 158.05 161.6H203.852C205.384 161.6 206.625 162.812 206.625 164.306V169.396H206.632Z" fill="#E0E0E0"/>
<path opacity="0.6" d="M174.062 169.396H155.276V164.306C155.276 162.812 156.518 161.6 158.05 161.6H171.28C172.813 161.6 174.055 162.812 174.055 164.306V169.396H174.062Z" fill="#F0F0F0"/>
<path d="M190.515 205.621H188.977L187.946 168.971H190.515V205.621Z" fill="#E0E0E0"/>
<path d="M156.723 205.621H155.177V168.971H157.746L156.723 205.621Z" fill="#E0E0E0"/>
<path d="M172.344 205.621H170.805V168.971H173.374L172.344 205.621Z" fill="#E0E0E0"/>
<path d="M206.143 205.621H204.598L203.574 168.971H206.143V205.621Z" fill="#E0E0E0"/>
<path d="M154.655 172.953H207.861C208.25 172.953 208.561 172.644 208.561 172.27V169.654C208.561 169.274 208.244 168.971 207.861 168.971H154.655C154.266 168.971 153.955 169.28 153.955 169.654V172.27C153.955 172.644 154.266 172.953 154.655 172.953Z" fill="#EBEBEB"/>
<path d="M149.807 169.396H98.4509V164.306C98.4509 162.812 99.6927 161.6 101.225 161.6H147.026C148.559 161.6 149.801 162.812 149.801 164.306V169.396H149.807Z" fill="#E0E0E0"/>
<path opacity="0.6" d="M117.236 169.396H98.4509V164.306C98.4509 162.812 99.6927 161.6 101.225 161.6H114.456C115.988 161.6 117.229 162.812 117.229 164.306V169.396H117.236Z" fill="#F0F0F0"/>
<path d="M133.69 205.621H132.151L131.12 168.971H133.69V205.621Z" fill="#E0E0E0"/>
<path d="M99.8974 205.621H98.3518V168.971H100.921L99.8974 205.621Z" fill="#E0E0E0"/>
<path d="M115.526 205.621H113.979V168.971H116.55L115.526 205.621Z" fill="#E0E0E0"/>
<path d="M149.318 205.621H147.773L146.749 168.971H149.318V205.621Z" fill="#E0E0E0"/>
<path d="M97.8299 172.953H151.036C151.425 172.953 151.736 172.644 151.736 172.27V169.654C151.736 169.274 151.418 168.971 151.036 168.971H97.8299C97.4402 168.971 97.1297 169.28 97.1297 169.654V172.27C97.1297 172.644 97.4468 172.953 97.8299 172.953Z" fill="#EBEBEB"/>
<path d="M190.132 213.874C260.863 213.874 318.202 210.609 318.202 206.58C318.202 202.552 260.863 199.287 190.132 199.287C119.402 199.287 62.0623 202.552 62.0623 206.58C62.0623 210.609 119.402 213.874 190.132 213.874Z" fill="#F5F5F5"/>
<path d="M271.777 24.1223C273.271 17.9509 269.354 11.7669 263.027 10.3098C256.701 8.85275 250.361 12.6742 248.867 18.8456C247.373 25.017 251.29 31.201 257.617 32.6581C263.943 34.1152 270.283 30.2937 271.777 24.1223Z" fill="#00A041"/>
<path opacity="0.4" d="M270.196 23.0324C271.081 17.7113 267.377 12.6965 261.921 11.8336C256.466 10.9698 251.325 14.5836 250.44 19.9047C249.554 25.2267 253.26 30.2405 258.715 31.1044C264.171 31.9682 269.31 28.3544 270.196 23.0324Z" fill="white"/>
<path d="M259.843 22.24C259.731 22.24 259.619 22.2139 259.52 22.156L254.883 19.5983C254.566 19.4244 254.454 19.0311 254.632 18.7219C254.811 18.4127 255.214 18.3026 255.53 18.4765L259.184 20.4931V14.7719C259.184 14.4173 259.48 14.1274 259.843 14.1274C260.207 14.1274 260.504 14.4173 260.504 14.7719V21.5955C260.504 21.8274 260.379 22.0332 260.174 22.1492C260.076 22.2139 259.956 22.24 259.843 22.24Z" fill="#00A041"/>
<path opacity="0.4" d="M271.777 24.1223C273.271 17.9509 269.354 11.7669 263.027 10.3098C256.701 8.85275 250.361 12.6742 248.867 18.8456C247.373 25.017 251.29 31.201 257.617 32.6581C263.943 34.1152 270.283 30.2937 271.777 24.1223Z" fill="white"/>
<path d="M88.3382 187.347C88.3382 187.347 89.3553 180.086 94.1177 179.287C98.8802 178.495 97.4469 174.982 98.682 173.617C99.9238 172.257 103.161 176.271 100.386 180.156C97.612 184.042 99.8776 182.824 98.682 186.432C97.4865 190.047 87.9022 193.365 88.3382 187.347Z" fill="#263238"/>
<path opacity="0.2" d="M88.3382 187.347C88.3382 187.347 89.3553 180.086 94.1177 179.287C98.8802 178.495 97.4469 174.982 98.682 173.617C99.9238 172.257 103.161 176.271 100.386 180.156C97.612 184.042 99.8776 182.824 98.682 186.432C97.4865 190.047 87.9022 193.365 88.3382 187.347Z" fill="white"/>
<path d="M89.9169 191.986C89.9169 191.986 92.9486 184.326 90.0489 172.437C87.1492 160.549 79.5928 156.439 84.7383 142.702C89.8839 128.965 96.2381 118.964 91.8984 109.841" stroke="#263238" stroke-miterlimit="10" stroke-linecap="round" stroke-linejoin="round"/>
<path d="M91.2842 190.607C91.2842 190.607 94.3622 186.084 89.9169 183.759C85.4714 181.433 84.5864 183.307 81.832 181.632C79.0841 179.956 76.9969 175.904 76.5345 178.5C76.0655 181.098 79.2427 182.573 78.1198 183.759C76.9969 184.944 85.5904 192.65 91.2842 190.607Z" fill="#263238"/>
<path d="M93.5101 113.507C93.5101 113.507 95.7691 104.409 88.959 104.757C82.1491 105.105 90.3198 112.805 93.5101 113.507Z" fill="#263238"/>
<path d="M88.1664 120.782C88.1664 120.782 85.4781 112.882 80.7883 114.956C76.1052 117.038 83.371 121.309 88.1664 120.782Z" fill="#263238"/>
<path d="M96.4098 120.846C96.4098 120.846 95.1548 114.473 100.267 113.945C105.38 113.41 103.563 119.242 96.4098 120.846Z" fill="#263238"/>
<path d="M94.0848 134.229C94.0848 134.229 100.466 127.715 103.306 131.967C106.14 136.226 98.5566 137.747 94.0848 134.229Z" fill="#263238"/>
<path d="M81.8387 134.119C81.8387 134.119 79.7316 124.293 74.4341 127.843C69.1367 131.394 77.0828 135.492 81.8387 134.119Z" fill="#263238"/>
<path d="M78.1199 148.713C78.1199 148.713 81.396 138.366 73.8726 140.085C66.3492 141.812 72.5449 146.697 78.1199 148.713Z" fill="#263238"/>
<path d="M90.1018 151.381C90.1018 151.381 95.9276 143.488 101.034 145.446C106.14 147.406 102.725 155.066 90.1018 151.381Z" fill="#263238"/>
<path d="M85.6102 168.211C85.6102 168.211 79.1569 156.768 74.6124 161.149C70.068 165.53 78.536 170.891 85.6102 168.211Z" fill="#263238"/>
<path d="M93.5101 166.897C93.5101 166.897 91.304 157.804 96.7929 158.12C102.282 158.43 101.318 164.177 93.5101 166.897Z" fill="#263238"/>
<g opacity="0.2">
<path opacity="0.2" d="M93.5101 113.507C93.5101 113.507 95.7691 104.409 88.959 104.757C82.1491 105.105 90.3198 112.805 93.5101 113.507Z" fill="white"/>
<path opacity="0.2" d="M88.1664 120.782C88.1664 120.782 85.4781 112.882 80.7883 114.956C76.1052 117.038 83.371 121.309 88.1664 120.782Z" fill="white"/>
<path opacity="0.2" d="M96.4098 120.846C96.4098 120.846 95.1549 114.473 100.267 113.945C105.38 113.41 103.563 119.242 96.4098 120.846Z" fill="white"/>
<path opacity="0.2" d="M94.0848 134.229C94.0848 134.229 100.466 127.715 103.306 131.967C106.14 136.226 98.5566 137.747 94.0848 134.229Z" fill="white"/>
<path opacity="0.2" d="M81.8387 134.119C81.8387 134.119 79.7316 124.293 74.4341 127.843C69.1367 131.394 77.0828 135.492 81.8387 134.119Z" fill="white"/>
<path opacity="0.2" d="M78.1199 148.713C78.1199 148.713 81.396 138.366 73.8726 140.085C66.3492 141.812 72.5449 146.697 78.1199 148.713Z" fill="white"/>
<path opacity="0.2" d="M90.1018 151.381C90.1018 151.381 95.9276 143.488 101.034 145.446C106.14 147.406 102.725 155.066 90.1018 151.381Z" fill="white"/>
<path opacity="0.2" d="M85.6102 168.211C85.6102 168.211 79.1569 156.768 74.6124 161.149C70.068 165.53 78.536 170.891 85.6102 168.211Z" fill="white"/>
<path opacity="0.2" d="M93.5102 166.897C93.5102 166.897 91.304 157.804 96.793 158.12C102.282 158.43 101.318 164.177 93.5102 166.897Z" fill="white"/>
</g>
<path d="M97.9423 118.604C97.9423 118.604 95.3663 123.069 91.5418 125.569C91.5418 125.569 88.4836 120.794 86.3236 119.751" stroke="#263238" stroke-miterlimit="10" stroke-linecap="round" stroke-linejoin="round"/>
<path d="M99.3095 133.223C99.3095 133.223 91.8522 133.571 86.3236 138.371C86.3236 138.371 82.6114 133.223 78.1198 131.097" stroke="#263238" stroke-miterlimit="10" stroke-linecap="round" stroke-linejoin="round"/>
<path d="M75.4843 144.139C75.4843 144.139 79.3484 152.083 83.6881 154.957C83.6881 154.957 91.7465 149.519 97.9423 148.913" stroke="#263238" stroke-miterlimit="10" stroke-linecap="round" stroke-linejoin="round"/>
<path d="M96.4099 161.149C96.4099 161.149 92.8893 169.423 89.9169 171.406C89.9169 171.406 86.6803 167.631 80.2269 166.277" stroke="#263238" stroke-miterlimit="10" stroke-linecap="round" stroke-linejoin="round"/>
<path d="M90.8085 189.532C90.8085 189.532 93.4507 185.434 96.4297 184.848C99.4087 184.261 100.697 180.917 101.793 182.928C102.896 184.944 99.8644 191.626 90.8085 189.532Z" fill="#263238"/>
<path d="M104.508 205.621H75.6891L73.7604 188.275H106.436L104.508 205.621Z" fill="#00A041"/>
<path d="M107.111 191.561H73.0866L72.6506 187.888H107.546L107.111 191.561Z" fill="#00A041"/>
<path opacity="0.3" d="M107.111 191.561H73.0866L72.6506 187.888H107.546L107.111 191.561Z" fill="white"/>
<path d="M300.249 38.0107H220.496V205.621H300.249V38.0107Z" fill="#00A041"/>
<path opacity="0.2" d="M297.706 38.0107H220.496V205.621H297.706V38.0107Z" fill="white"/>
<path d="M247.229 47.4248H230.531V111.013H247.229V47.4248Z" fill="#00A041"/>
<path opacity="0.7" d="M245.683 47.4248H230.531V111.013H245.683V47.4248Z" fill="white"/>
<path d="M236.33 128.83C236.33 130.388 235.028 131.658 233.43 131.658C231.832 131.658 230.531 130.388 230.531 128.83C230.531 127.27 231.832 126 233.43 126C235.035 126 236.33 127.27 236.33 128.83Z" fill="#00A041"/>
<path d="M236.33 131.658C237.931 131.658 239.229 130.391 239.229 128.83C239.229 127.267 237.931 126 236.33 126C234.729 126 233.43 127.267 233.43 128.83C233.43 130.391 234.729 131.658 236.33 131.658Z" fill="#263238"/>
<path opacity="0.8" d="M236.33 131.658C237.931 131.658 239.229 130.391 239.229 128.83C239.229 127.267 237.931 126 236.33 126C234.729 126 233.43 127.267 233.43 128.83C233.43 130.391 234.729 131.658 236.33 131.658Z" fill="white"/>
<path d="M194.763 91.3289C193.131 90.5878 191.149 89.5056 188.758 87.9847L188.184 82.9207L187.648 78.1783C191.499 79.0673 200.073 85.601 201.46 88.4814C202.458 90.5627 202.617 94.8924 194.763 91.3289Z" fill="#00A041"/>
<path d="M169.61 205.781H164.147C163.962 205.781 163.804 205.911 163.764 206.085L162.879 209.989C162.807 210.337 163.031 210.685 163.388 210.755C163.434 210.769 163.486 210.769 163.533 210.769C165.303 210.743 166.584 210.634 168.81 210.634C170.178 210.634 174.299 210.775 176.189 210.775C178.078 210.775 178.323 208.958 177.549 208.791C174.082 208.056 171.473 207.032 170.363 206.059C170.164 205.872 169.894 205.775 169.61 205.781Z" fill="#263238"/>
<path d="M192.781 205.64H187.318C187.134 205.64 186.975 205.769 186.935 205.943L186.05 209.847C185.978 210.195 186.202 210.543 186.559 210.614C186.605 210.627 186.658 210.627 186.704 210.627C188.475 210.601 189.755 210.492 191.981 210.492C193.349 210.492 197.471 210.634 199.36 210.634C201.249 210.634 201.494 208.816 200.721 208.649C197.253 207.915 194.644 206.889 193.534 205.917C193.33 205.737 193.059 205.633 192.781 205.64Z" fill="#263238"/>
<path d="M166.716 106.993H190.588C192.86 119.08 199.215 167.94 194.115 206.059L186.037 206.297C186.037 206.297 187.53 148.398 180.396 129.686C179.577 139.699 178.599 150.35 177.754 156.02C175.68 169.969 171.089 206.297 171.089 206.297H162.865C162.865 206.297 164.688 171.278 165.468 157.567C166.313 142.683 166.683 110.047 166.716 106.993Z" fill="#263238"/>
<path opacity="0.2" d="M162.865 206.297H171.089C171.089 206.297 175.673 169.969 177.754 156.02C178.599 150.357 179.57 139.706 180.396 129.693C181.446 132.45 182.325 135.891 183.064 139.764C187.325 162.199 186.037 206.297 186.037 206.297L194.115 206.194C199.215 168.076 192.86 118.984 190.588 107.263H166.723C166.69 110.054 166.32 142.818 165.468 157.702C164.688 171.413 162.865 206.297 162.865 206.297Z" fill="white"/>
<path opacity="0.2" d="M180.396 129.693C181.446 132.45 182.325 135.891 183.064 139.764C183.732 130.852 181.063 121.407 181.063 121.407L180.396 129.693Z" fill="black"/>
<path d="M190.582 107.27H166.716C166.716 107.27 166.703 100.871 165.627 93.3715C165.264 90.8525 164.775 88.1972 164.121 85.627C163.632 83.6743 163.044 81.7611 162.35 79.9823C162.35 79.9823 172.945 75.7617 187.655 78.1908C187.648 78.1851 190.357 90.4331 190.582 107.27Z" fill="#00A041"/>
<path d="M173.903 109.866L188.798 109.873L188.574 107.012L173.903 107.186V109.866Z" fill="black"/>
<path d="M189.538 109.873H191.11L190.582 106.993L189.313 107.006L189.538 109.873Z" fill="black"/>
<path d="M173.163 107.193L166.716 107.27V109.86L173.163 109.866V107.193Z" fill="black"/>
<path d="M184.03 106.819C183.844 106.658 179.722 106.716 179.419 107.077C179.419 107.077 179.26 109.815 179.451 110.047C179.643 110.286 183.593 109.95 183.963 109.938C184.333 109.931 184.214 106.98 184.03 106.819ZM183.573 109.667C183.27 109.673 180.026 109.95 179.868 109.757C179.709 109.564 179.841 107.315 179.841 107.315C180.092 107.025 183.481 106.973 183.633 107.103C183.779 107.238 183.877 109.66 183.573 109.667Z" fill="white"/>
<path d="M183.309 107.902L182.497 107.921C182.345 107.927 182.212 108.043 182.206 108.192V108.204C182.192 108.378 182.338 108.52 182.517 108.514L183.329 108.482C183.501 108.475 183.633 108.327 183.613 108.166C183.6 108.011 183.467 107.895 183.309 107.902Z" fill="white"/>
<path opacity="0.2" d="M165.62 93.3657C165.257 90.8457 164.768 88.1915 164.114 85.6203C164.405 85.4145 164.728 85.2406 165.071 85.1111C165.078 85.1111 167.377 89.7316 165.62 93.3657Z" fill="black"/>
<path d="M162.343 79.9766C157.476 82.2318 150.831 96.0712 152.191 100.775C153.552 105.485 165.468 112.257 165.468 112.257L161.697 115.788C161.697 115.788 164.715 118.288 166.069 117.998C167.43 117.702 168.989 114.468 168.89 112.85C168.784 111.233 166.716 109.866 166.716 109.866C166.716 109.866 158.248 101.04 158.077 98.997C157.661 94.0808 164.239 86.0977 164.239 86.0977L162.343 79.9766Z" fill="#B97964"/>
<path d="M162.343 79.9766C159.583 80.5041 151.227 91.213 152.013 99.9314L158.678 98.997C158.678 98.997 160.633 92.4121 164.761 88.436C164.761 88.436 165.692 86.0262 164.504 82.1149C164.068 80.6655 162.343 79.9766 162.343 79.9766Z" fill="#00A041"/>
<path d="M151.55 99.5961L159.133 98.6617V99.5961L151.55 101.361V99.5961Z" fill="#00A041"/>
<path opacity="0.2" d="M151.55 99.5961L159.133 98.6617V99.5961L151.55 101.361V99.5961Z" fill="white"/>
<path opacity="0.2" d="M194.763 91.3289C193.131 90.5878 191.149 89.5056 188.758 87.9847L188.184 82.9207C189.558 83.6618 194.644 86.7093 194.763 91.3289Z" fill="black"/>
<path d="M196.856 86.3548C196.856 86.3548 187.767 85.2919 186.117 85.5499C184.465 85.8069 180.885 88.8873 180.746 89.0032C180.607 89.1124 183.256 92.4122 183.824 92.2962C184.386 92.1803 187.299 89.2738 187.378 89.0032C187.457 88.7327 187.616 88.2689 187.616 88.2689L196.269 90.9879C196.262 90.9879 198.19 88.1974 196.856 86.3548Z" fill="#B97964"/>
<path d="M186.783 85.5557C186.783 85.5557 187.728 86.948 187.629 88.4814L188.547 88.4621C188.547 88.4621 189.367 87.0186 188.751 85.6204L186.783 85.5557Z" fill="#00A041"/>
<path opacity="0.2" d="M186.783 85.5557C186.783 85.5557 187.728 86.948 187.629 88.4814L188.547 88.4621C188.547 88.4621 189.367 87.0186 188.751 85.6204L186.783 85.5557Z" fill="black"/>
<path d="M189.062 85.8523C189.036 86.175 188.475 86.4001 187.801 86.3489C187.127 86.2967 186.605 85.9943 186.632 85.6658C186.658 85.3431 187.22 85.1179 187.893 85.1691C188.56 85.2213 189.089 85.5237 189.062 85.8523Z" fill="#263238"/>
<path d="M188.751 85.6204C188.732 85.859 188.316 86.0204 187.827 85.9875C187.332 85.9489 186.949 85.7238 186.969 85.4851C186.989 85.2464 187.404 85.086 187.893 85.1179C188.388 85.1566 188.771 85.3817 188.751 85.6204Z" fill="#00A041"/>
<path opacity="0.7" d="M188.751 85.6204C188.732 85.859 188.316 86.0204 187.827 85.9875C187.332 85.9489 186.949 85.7238 186.969 85.4851C186.989 85.2464 187.404 85.086 187.893 85.1179C188.388 85.1566 188.771 85.3817 188.751 85.6204Z" fill="white"/>
<path d="M196.044 91.3551L197.147 85.833L198.046 86.1683L197.735 91.9802L196.044 91.3551Z" fill="#00A041"/>
<path opacity="0.2" d="M196.044 91.3551L197.147 85.833L198.046 86.1683L197.735 91.9802L196.044 91.3551Z" fill="white"/>
<path d="M167.799 79.9765C167.799 79.9765 168.79 77.5212 173.54 76.7154C178.289 75.9105 183.494 78.043 184.743 79.5832L180.661 79.9765L178.593 84.3699L173.896 80.4528L167.799 79.9765Z" fill="#00A041"/>
<path opacity="0.2" d="M167.799 79.9765C167.799 79.9765 168.79 77.5212 173.54 76.7154C178.289 75.9105 183.494 78.043 184.743 79.5832L180.661 79.9765L178.593 84.3699L173.896 80.4528L167.799 79.9765Z" fill="white"/>
<path d="M170.363 78.6171C171.274 79.4288 172.741 79.7766 174.141 79.9051L178.408 83.7392L179.65 79.5061C179.65 79.5061 181.268 78.9456 180.567 77.9272C178.592 77.6112 177.642 76.7098 177.245 75.5628C177.014 74.8923 176.981 74.1386 177.047 73.3656C177.074 72.9598 177.14 72.5472 177.212 72.1346L170.574 67.3411C171.446 70.5045 172.509 76.3233 170.363 78.6171Z" fill="#B97964"/>
<path opacity="0.2" d="M172.107 70.3884C172.371 74.2737 175.64 75.3433 177.245 75.5627C177.014 74.8921 176.981 74.1384 177.047 73.3654L172.107 70.3884Z" fill="black"/>
<path d="M183.739 59.184C183.739 59.184 184.498 64.1582 181.208 66.484C177.919 68.8097 177.919 57.553 177.919 57.553L183.739 59.184Z" fill="#263238"/>
<path d="M171.664 71.2842C173.262 73.5201 175.864 74.1066 178.124 73.4099C179.577 72.9654 180.885 71.9799 181.697 70.5692C181.803 70.3817 181.902 70.1885 181.995 69.9894C183.613 66.2974 184.128 59.8342 180.125 57.4118C177.285 55.6658 173.52 56.4968 171.73 59.2738C171.215 60.0594 170.904 60.9618 170.812 61.8894C170.316 66.2134 169.821 68.7323 171.664 71.2842Z" fill="#B97964"/>
<path d="M177.265 64.2026C177.18 64.5447 177.344 64.8664 177.576 64.9051C177.814 64.9437 178.045 64.6925 178.11 64.3447C178.177 63.9968 178.032 63.6808 177.794 63.6422C177.569 63.6035 177.332 63.849 177.265 64.2026Z" fill="#263238"/>
<path d="M181.307 64.8732C181.222 65.2143 181.387 65.537 181.625 65.5756C181.856 65.6143 182.094 65.3631 182.16 65.0142C182.226 64.6664 182.08 64.3514 181.849 64.3128C181.611 64.2741 181.367 64.5447 181.307 64.8732Z" fill="#263238"/>
<path d="M179.993 64.8345C180.231 65.9746 180.634 67.0704 181.182 68.1014C180.627 68.3651 179.973 68.3719 179.412 68.1265L179.993 64.8345Z" fill="#A24E3F"/>
<path d="M176.234 62.7146C176.308 62.7407 176.393 62.7214 176.453 62.6692C176.836 62.2953 177.384 62.1281 177.919 62.2054C178.031 62.2315 178.15 62.1668 178.177 62.0576C178.203 61.9474 178.137 61.8315 178.025 61.8063C177.351 61.6904 176.658 61.8962 176.169 62.3668C176.083 62.4441 176.077 62.5726 176.149 62.6566C176.149 62.6566 176.149 62.6566 176.155 62.6634C176.175 62.6827 176.202 62.702 176.234 62.7146Z" fill="#263238"/>
<path d="M175.997 68.2175C177.061 68.2754 178.025 68.8426 178.586 69.7248C178.613 69.776 178.593 69.8475 178.54 69.8726C178.487 69.9055 178.421 69.8862 178.388 69.834C178.388 69.834 178.388 69.8282 178.381 69.8282C177.846 69.0223 176.955 68.5073 175.971 68.4358C175.911 68.4358 175.865 68.3846 175.865 68.3266C175.865 68.3199 175.865 68.3199 175.865 68.3141C175.865 68.2561 175.918 68.2107 175.977 68.2107C175.99 68.2175 175.99 68.2175 175.997 68.2175Z" fill="#263238"/>
<path d="M183.283 63.8035C183.322 63.8228 183.362 63.8354 183.409 63.8354C183.521 63.8035 183.586 63.6934 183.553 63.5842C183.553 63.5842 183.553 63.5842 183.553 63.5774C183.375 62.9271 182.887 62.4054 182.246 62.1735C182.133 62.1406 182.015 62.1986 181.981 62.3087C181.948 62.4179 182.015 62.5339 182.12 62.5667C182.622 62.7658 182.999 63.1783 183.138 63.6934C183.164 63.7513 183.216 63.79 183.283 63.8035Z" fill="#263238"/>
<path d="M177.357 54.9566C176.83 54.8861 176.301 54.8281 175.772 54.802C174.246 54.7247 172.655 54.9112 171.34 55.6716C168.282 57.4369 168.81 61.9735 169.2 64.905C169.722 68.8096 171.301 70.5817 171.301 70.5817C170.35 68.7198 170.634 65.0925 171.255 65.0017C171.876 64.9118 171.829 65.6075 171.829 65.6075C173.21 64.7698 174.452 62.3986 174.022 60.7231C173.692 59.4409 175.165 58.494 176.407 59.0931C176.532 59.1511 176.658 59.2158 176.783 59.2738C176.968 59.3578 177.166 59.4477 177.371 59.5376V54.9566H177.357Z" fill="#263238"/>
<path d="M168.276 65.0858C168.593 66.1361 169.326 67.0183 170.31 67.5468C171.618 68.2299 172.596 67.1671 172.509 65.794C172.417 64.5766 171.644 62.7146 170.191 62.6054C168.738 62.4953 167.906 63.791 168.276 65.0858Z" fill="#B97964"/>
<path d="M179.128 58.6679C178.837 59.1646 179.564 60.7685 177.919 60.382C176.281 59.9955 176.162 60.6787 174.993 61.7802C173.831 62.8817 171.466 61.2063 171.466 61.2063L168.89 61.5357C168.89 61.5357 167.007 59.8854 168.183 58.9965C169.359 58.1075 169.623 56.8446 170.35 55.3566C171.076 53.8676 174.273 51.9351 177.682 54.1962C177.682 54.1962 179.491 53.5903 180.291 54.029C181.089 54.4735 181.724 55.6272 181.724 55.6272C181.724 55.6272 182.629 54.6348 183.553 55.5692C184.478 56.5093 183.745 59.8728 184.537 60.7038C185.33 61.529 183.553 62.5918 183.553 62.5918C183.553 62.5918 182.167 62.2701 182.167 61.271C182.167 59.5057 181.902 58.8679 181.011 58.5452C180.455 58.3462 180.085 58.8225 180.085 58.8225C180.085 58.8225 179.59 57.8824 179.128 58.6679Z" fill="#263238"/>
</svg>
