<svg width="282" height="211" viewBox="0 0 282 211" fill="none" xmlns="http://www.w3.org/2000/svg">
<path d="M282 185.701H0V185.843H282V185.701Z" fill="#EBEBEB"/>
<path d="M134.458 160.408H25.5492C23.7726 160.408 22.3288 158.956 22.3288 157.17V3.23821C22.3288 1.45181 23.7726 0 25.5492 0H134.458C136.234 0 137.678 1.45181 137.678 3.23821V157.17C137.678 158.956 136.234 160.408 134.458 160.408ZM25.5492 0.141778C23.8516 0.141778 22.4698 1.5312 22.4698 3.23821V157.17C22.4698 158.877 23.8516 160.266 25.5492 160.266H134.458C136.155 160.266 137.537 158.877 137.537 157.17V3.23821C137.537 1.5312 136.155 0.141778 134.458 0.141778H25.5492Z" fill="#EBEBEB"/>
<path d="M256.451 160.408H147.542C145.766 160.408 144.322 158.956 144.322 157.17V3.23821C144.322 1.45181 145.766 0 147.542 0H256.451C258.227 0 259.671 1.45181 259.671 3.23821V157.17C259.671 158.956 258.227 160.408 256.451 160.408ZM147.542 0.141778C145.845 0.141778 144.463 1.5312 144.463 3.23821V157.17C144.463 158.877 145.845 160.266 147.542 160.266H256.451C258.148 160.266 259.53 158.877 259.53 157.17V3.23821C259.53 1.5312 258.148 0.141778 256.451 0.141778H147.542Z" fill="#EBEBEB"/>
<path d="M282 185.701H0V185.843H282V185.701Z" fill="#EBEBEB"/>
<path d="M253.744 194.826H235.064V194.968H253.744V194.826Z" fill="#EBEBEB"/>
<path d="M186.808 196.368H181.907V196.51H186.808V196.368Z" fill="#EBEBEB"/>
<path d="M234.5 189.563H223.677V189.705H234.5V189.563Z" fill="#EBEBEB"/>
<path d="M53.9466 190.516H29.5874V190.658H53.9466V190.516Z" fill="#EBEBEB"/>
<path d="M126.985 192.909H74.1491V193.051H126.985V192.909Z" fill="#EBEBEB"/>
<path d="M87.0647 58.8209C94.0019 58.838 113.443 61.6792 113.443 51.1763C113.443 42.2556 103.94 42.9078 103.94 42.9078C103.94 42.9078 104.216 35.178 95.7503 34.1459C87.0647 33.091 85.7562 41.4446 85.7562 41.4446C85.7562 41.4446 70.6805 36.1251 72.976 49.4749C72.976 49.4749 64.6175 47.9891 64.6175 54.0005C64.6175 60.7208 80.3475 58.8039 87.0647 58.8209Z" fill="#F0F0F0"/>
<path d="M78.3283 138.239C92.4058 138.279 131.869 144.778 131.869 120.727C131.869 100.288 112.58 101.791 112.58 101.791C112.58 101.791 113.138 84.0858 95.9533 81.7266C78.3283 79.3107 75.6662 98.4451 75.6662 98.4451C75.6662 98.4451 45.0749 86.2635 49.7279 116.837C49.7279 116.837 32.7684 113.44 32.7684 127.203C32.7684 142.583 64.6908 138.194 78.3283 138.239Z" fill="#F5F5F5"/>
<path d="M130.899 140.366C123.11 140.389 101.277 143.984 101.277 130.68C101.277 119.372 111.948 120.205 111.948 120.205C111.948 120.205 111.638 110.411 121.147 109.107C130.899 107.768 132.371 118.356 132.371 118.356C132.371 118.356 149.296 111.613 146.719 128.53C146.719 128.53 156.104 126.648 156.104 134.264C156.104 142.771 138.445 140.343 130.899 140.366Z" fill="#F0F0F0"/>
<path d="M174.361 84.6189C182.127 84.6359 203.903 87.6303 203.903 76.5489C203.903 67.1348 193.26 67.8267 193.26 67.8267C193.26 67.8267 193.57 59.6659 184.084 58.5828C174.361 57.4712 172.889 66.2841 172.889 66.2841C172.889 66.2841 156.008 60.6697 158.574 74.7568C158.574 74.7568 149.217 73.1916 149.217 79.5319C149.217 86.6208 166.837 84.5962 174.361 84.6189Z" fill="#F0F0F0"/>
<path d="M151.203 185.633L162.55 111.648L196.3 68.8021L207.806 20.0077C207.806 20.0077 235.696 47.1101 236.474 47.819C237.247 48.5278 243.389 121.68 244.24 122.797C245.092 123.914 253.106 136.669 253.106 136.669L256.834 185.406L151.203 185.633Z" fill="#FAFAFA"/>
<path d="M151.203 185.633L167.378 121.702L190.294 99.7381L194.586 127.544L200.361 95.9158L206.915 106.697L205.488 69.5167L206.627 57.6243L210.473 65.5186L207.806 20.0077L227.252 20.4614L231.302 41.9437L236.474 47.8246L244.24 122.803L253.106 136.674L256.834 185.412L151.203 185.633Z" fill="#EBEBEB"/>
<path d="M208.313 20.2573L219.864 57.8398L226.745 63.3408C226.745 63.3408 230.377 78.6132 230.332 77.6378C230.292 76.6623 229.915 59.5469 229.915 59.5469L231.697 45.5845L227.202 20.711L208.313 20.2573Z" fill="#F5F5F5"/>
<path d="M244.24 122.803L246.936 135.432L253.106 136.674L244.24 122.803Z" fill="#F5F5F5"/>
<path d="M200.818 160.204C213.153 160.243 247.743 165.937 247.743 144.852C247.743 126.937 230.84 128.258 230.84 128.258C230.84 128.258 231.33 112.736 216.266 110.672C200.818 108.557 198.489 125.326 198.489 125.326C198.489 125.326 171.676 114.648 175.754 141.444C175.754 141.444 160.887 138.466 160.887 150.529C160.892 164.009 188.872 160.164 200.818 160.204Z" fill="#F5F5F5"/>
<path d="M62.542 190.516H58.9718V190.658H62.542V190.516Z" fill="#EBEBEB"/>
<path d="M142.207 211C202.601 211 251.561 208.126 251.561 204.58C251.561 201.035 202.601 198.161 142.207 198.161C81.8124 198.161 32.853 201.035 32.853 204.58C32.853 208.126 81.8124 211 142.207 211Z" fill="#F5F5F5"/>
<path d="M227.489 22.7582C227.489 28.2365 223.073 32.677 217.625 32.677C217.405 32.677 217.185 32.6714 216.965 32.6544C211.833 32.3141 207.766 28.0154 207.766 22.7582C207.766 17.5011 211.833 13.2024 216.965 12.8621C217.185 12.8451 217.405 12.8394 217.625 12.8394C223.073 12.8394 227.489 17.2799 227.489 22.7582Z" fill="#00A041"/>
<path opacity="0.2" d="M226.17 22.7582C226.17 28.0154 222.103 32.3141 216.965 32.6544C211.833 32.3141 207.766 28.0154 207.766 22.7582C207.766 17.5011 211.833 13.2024 216.965 12.8621C222.103 13.2024 226.17 17.5011 226.17 22.7582Z" fill="white"/>
<path opacity="0.4" d="M223.771 25.5966C225.33 21.8116 223.54 17.4713 219.773 15.9023C216.006 14.3333 211.688 16.1297 210.129 19.9147C208.57 23.6997 210.36 28.0399 214.127 29.609C217.894 31.178 222.212 29.3816 223.771 25.5966Z" fill="white"/>
<g opacity="0.7">
<path opacity="0.7" d="M220.338 24.3348C220.626 25.9738 219.503 27.074 217.484 27.2441L217.45 28.5995H216.226L216.26 27.2441C215.076 27.1307 213.982 26.7621 213.271 26.297L213.824 24.7658C214.557 25.2479 215.431 25.5541 216.294 25.6392L216.35 23.5522C215.149 23.2063 213.818 22.7526 213.559 21.2554C213.271 19.6164 214.416 18.5049 216.474 18.3574L216.508 17.002H217.732L217.698 18.3745C218.584 18.4595 219.424 18.7091 220.078 19.0777L219.599 20.6089C219.007 20.2516 218.336 20.0418 217.659 19.968L217.608 22.1401C218.798 22.4747 220.09 22.917 220.338 24.3348ZM216.39 21.7941L216.435 20.0191C215.758 20.1552 215.431 20.5352 215.504 21.0059C215.566 21.3858 215.916 21.607 216.39 21.7941ZM218.409 24.6581C218.347 24.3008 218.025 24.0796 217.569 23.9151L217.529 25.6051C218.166 25.469 218.488 25.1231 218.409 24.6581Z" fill="white"/>
</g>
<path d="M168.557 113.854H135.185V204.609H168.557V113.854Z" fill="#00A041"/>
<path opacity="0.2" d="M144.61 113.763H135.18V204.626H144.61V113.763Z" fill="black"/>
<path d="M135.146 150.149H101.774V204.609H135.146V150.149Z" fill="#00A041"/>
<path opacity="0.2" d="M111.802 150.149H101.774V204.552H111.802V150.149Z" fill="black"/>
<path d="M101.746 161.712H68.3737V204.609H101.746V161.712Z" fill="#00A041"/>
<path opacity="0.2" d="M78.3001 161.712H68.3737V204.552H78.3001V161.712Z" fill="black"/>
<path d="M68.3624 173.276H34.9906V204.609H68.3624V173.276Z" fill="#00A041"/>
<path opacity="0.2" d="M44.4262 173.247H34.9961V204.552H44.4262V173.247Z" fill="black"/>
<path d="M125.727 43.7414C124.142 45.6696 122.512 47.5581 120.876 49.4409L119.641 50.8473L118.536 52.0893C118.079 52.6281 117.78 53.3086 117.673 54.0458L117.301 57.7094C117.177 58.9514 117.058 60.1933 116.912 61.4353C116.641 63.9193 116.353 66.3976 116.026 68.8758C115.908 69.7435 115.112 70.356 114.249 70.2369C113.488 70.1348 112.924 69.4997 112.885 68.7567C112.744 66.2615 112.648 63.7662 112.563 61.2765C112.512 60.0289 112.49 58.7869 112.456 57.5393L112.371 53.7396C112.394 51.9929 112.969 50.2348 113.962 48.7547L115.191 47.093L116.302 45.6072C117.797 43.6337 119.297 41.6658 120.843 39.7319C121.937 38.3652 123.922 38.1497 125.276 39.2499C126.635 40.3501 126.849 42.3463 125.755 43.7074C125.749 43.7131 125.732 43.7357 125.727 43.7414Z" fill="#00A041"/>
<path d="M112.49 69.0403L110.431 72.5621L115.174 73.0441L116.009 69.4713C116.111 69.046 115.84 68.6207 115.411 68.5469C114.622 68.4108 113.392 68.3541 112.49 69.0403Z" fill="#CB7A63"/>
<path d="M110.426 72.5564L110.64 73.8041C110.747 74.4165 111.277 74.8702 111.898 74.8646L113.443 74.8589C113.911 74.8589 114.345 74.598 114.565 74.1784L115.163 73.0385L110.426 72.5564Z" fill="#CB7A63"/>
<path d="M112.151 66.4032L116.72 66.5564L116.427 69.3012L112.569 69.0006L112.151 66.4032Z" fill="#00A041"/>
<path opacity="0.3" d="M112.151 66.4032L116.72 66.5564L116.427 69.3012L112.569 69.0006L112.151 66.4032Z" fill="white"/>
<path d="M116.759 95.2069L116.009 96.3411L115.434 95.1672L116.799 77.3599C117.019 74.53 116.066 72.2048 112.563 72.1197C109.286 72.0403 107.301 74.2918 107.07 77.116L105.637 94.8893L104.853 96.0179L104.317 94.8496L105.761 77.082C106.026 73.7984 107.476 71.1613 112.631 71.2861C117.791 71.4108 118.367 74.1046 118.113 77.3939L116.759 95.2069Z" fill="#263238"/>
<path d="M102.242 83.2011L101.334 83.1955C99.4501 83.1841 97.8484 84.5906 97.6058 86.4734L95.9364 99.3071L101.813 99.517L102.242 83.2011Z" fill="#263238"/>
<path opacity="0.2" d="M102.242 83.2011L101.334 83.1955C99.4501 83.1841 97.8484 84.5906 97.6058 86.4734L95.9364 99.3071L101.813 99.517L102.242 83.2011Z" fill="white"/>
<path d="M118.835 95.36L117.509 95.3203L117.639 77.513C117.662 74.6831 116.551 72.3579 113.042 72.2729C109.76 72.1935 107.927 74.4449 107.899 77.2691L107.701 95.0424L106.382 95.0027L106.59 77.2351C106.63 73.9515 107.893 71.3144 113.054 71.4392C118.226 71.564 118.987 74.2578 118.964 77.547L118.835 95.36Z" fill="#263238"/>
<path d="M125.061 100.203L98.9425 99.4263L99.1963 86.1898C99.2189 84.4941 100.584 83.1558 102.242 83.2011L121.254 83.7002C123.403 83.7569 125.135 85.5773 125.129 87.7664L125.061 100.203Z" fill="#263238"/>
<path opacity="0.4" d="M122.168 100.118L101.819 99.5113C100.234 99.4659 98.9651 98.1048 98.9933 96.4716L99.2019 86.1841C99.2245 84.4885 100.589 83.1501 102.248 83.1955L121.26 83.6945C123.409 83.7512 125.14 85.5717 125.135 87.7607L125.078 97.2315C125.067 98.8761 123.764 100.169 122.168 100.118Z" fill="white"/>
<g opacity="0.3">
<path opacity="0.3" d="M118.835 95.36L118.164 96.4942L117.509 95.3203L117.639 77.513C117.662 74.6831 116.551 72.3579 113.042 72.2729C109.76 72.1935 107.927 74.4449 107.899 77.2691L107.701 95.0424L106.996 96.171L106.382 95.0027L106.59 77.2351C106.63 73.9515 107.893 71.3144 113.054 71.4392C118.226 71.564 118.987 74.2578 118.964 77.547L118.835 95.36Z" fill="white"/>
</g>
<path d="M108.141 88.1747L105.964 88.118L105.976 87.29L108.153 87.3524L108.141 88.1747Z" fill="#263238"/>
<path d="M108.085 93.5169L105.902 93.4545L105.914 92.6322L108.096 92.6889L108.085 93.5169Z" fill="#263238"/>
<path d="M119.331 88.4809L117.143 88.4186L117.148 87.5963L119.337 87.653L119.331 88.4809Z" fill="#263238"/>
<path d="M119.292 93.8345L117.103 93.7721L117.109 92.9441L119.297 93.0008L119.292 93.8345Z" fill="#263238"/>
<path d="M115.163 88.8382L110.493 88.7078L110.51 86.9441L115.18 87.0688L115.163 88.8382Z" fill="white"/>
<path d="M135.326 23.8414C135.507 23.8074 135.698 23.9945 135.755 24.2668C135.811 24.539 135.721 24.7942 135.54 24.8339C135.36 24.8679 135.168 24.6807 135.112 24.4085C135.039 24.125 135.146 23.8755 135.326 23.8414Z" fill="#263238"/>
<path d="M135.36 24.0683C135.546 23.9832 135.71 23.7904 135.789 23.5976C135.631 23.745 135.416 23.8301 135.202 23.8244C135.281 23.8754 135.354 23.9775 135.36 24.0683Z" fill="#263238"/>
<path d="M135.721 26.8471C136.195 26.8641 136.652 26.677 136.973 26.3254C136.285 25.7242 135.676 25.0267 135.174 24.2611L135.721 26.8471Z" fill="#B74D3C"/>
<path d="M133.815 23.3934C134.074 23.0645 134.48 22.883 134.897 22.9057C134.914 22.9114 134.931 22.9114 134.954 22.9114C135.044 22.9114 135.117 22.832 135.117 22.7412C135.117 22.6505 135.039 22.5768 134.948 22.5768C134.424 22.5314 133.916 22.7469 133.578 23.1552C133.55 23.1836 133.538 23.2233 133.538 23.263C133.538 23.3537 133.612 23.4274 133.707 23.4274C133.741 23.4331 133.786 23.4218 133.815 23.3934Z" fill="#263238"/>
<path d="M132.1 39.783C127.408 39.834 126.691 37.265 126.691 37.265C128.084 35.8869 128.152 33.3689 127.859 31.1288C128.22 31.6336 128.665 32.0816 129.252 32.4729C130.374 33.2158 132.811 32.0249 132.811 32.0249C132.816 32.0249 132.811 32.4445 132.845 33.0457C132.918 34.5145 133.239 37.1005 134.57 37.4975C134.565 37.4918 137.272 39.7263 132.1 39.783Z" fill="#CB7A63"/>
<path d="M132.873 32.4048C132.822 32.6203 132.771 32.8358 132.743 33.0684C132.726 33.0797 132.704 33.091 132.687 33.091C131.587 33.3632 130.374 33.2158 129.252 32.4729C128.66 32.0816 128.214 31.6392 127.853 31.1288C127.78 30.5617 127.678 30.0003 127.577 29.4955L132.687 32.3027L132.873 32.4048Z" fill="#CB7A63"/>
<path d="M136.234 28.5541C136.2 30.3008 135.253 31.7697 133.922 32.5693H133.916C133.911 32.575 133.905 32.575 133.899 32.575C133.544 32.8018 133.155 32.9606 132.743 33.0684C132.726 33.0797 132.704 33.091 132.687 33.091C131.587 33.3632 130.374 33.2158 129.252 32.4729C128.66 32.0816 128.214 31.6392 127.853 31.1288C126.934 29.8585 126.55 28.1685 125.89 25.7866C125.687 25.0891 125.648 24.3462 125.778 23.6316C126.24 21.0682 128.677 19.3726 131.22 19.8376C134.785 20.4728 136.308 25.367 136.234 28.5541Z" fill="#CB7A63"/>
<path opacity="0.2" d="M133.668 32.66C133.341 32.8699 133.177 32.9493 132.833 33.04C132.799 32.4389 132.811 32.0192 132.799 32.0192C132.833 31.4918 132.867 30.9644 132.867 30.9644C132.873 30.987 133.425 32.66 133.668 32.66Z" fill="black"/>
<path d="M135.005 22.1174C134.621 22.7299 133.42 23.246 133.459 23.1042C133.668 22.5994 133.629 21.624 133.002 21.8509C133.177 22.2365 133.691 25.1515 133.459 25.5031C133.33 25.6959 133.211 28.0267 132.224 30.0797C131.44 31.7186 131.44 32.229 131.44 32.229L128.237 32.8528C127.035 32.6997 125.919 31.1629 125.823 30.9927C125.405 30.2668 124.125 29.3197 123.46 28.815C123.172 28.5995 122.946 28.2762 122.822 27.936C122.602 27.3178 123.054 25.0891 123.149 24.0456C123.29 22.5371 124.074 21.1476 126.251 20.2516C127.594 19.6958 128.727 18.4822 130.098 18.0058C131.468 17.5238 133.098 17.5465 134.26 18.4255C134.824 18.8452 135.963 20.5862 135.005 22.1174Z" fill="#263238"/>
<path d="M133.33 24.2384C134.317 24.5276 134.83 25.9908 134.875 26.9208C134.926 27.9473 134.243 28.5938 133.352 27.9076C132.681 27.3802 132.202 26.643 131.993 25.815C131.75 24.8112 132.343 23.9492 133.33 24.2384Z" fill="#CB7A63"/>
<path d="M134.52 27.6581C134.52 27.8963 134.328 28.0891 134.091 28.0891C133.854 28.0891 133.662 27.8963 133.662 27.6581C133.662 27.4199 133.854 27.2271 134.091 27.2271C134.328 27.2271 134.52 27.4142 134.52 27.6581Z" fill="#00A041"/>
<path opacity="0.3" d="M134.52 27.6581C134.52 27.8963 134.328 28.0891 134.091 28.0891C133.854 28.0891 133.662 27.8963 133.662 27.6581C133.662 27.4199 133.854 27.2271 134.091 27.2271C134.328 27.2271 134.52 27.4142 134.52 27.6581Z" fill="white"/>
<path d="M125.343 38.9663C125.343 38.9663 126.071 36.7035 127.171 35.989C128.271 35.2744 133.098 36.0173 133.854 36.3122C134.61 36.6071 135.371 38.3652 135.371 38.3652L125.343 38.9663Z" fill="#00A041"/>
<path opacity="0.3" d="M125.343 38.9663C125.343 38.9663 126.071 36.7035 127.171 35.989C128.271 35.2744 133.098 36.0173 133.854 36.3122C134.61 36.6071 135.371 38.3652 135.371 38.3652L125.343 38.9663Z" fill="white"/>
<path d="M136.364 38.0022C135.614 37.8775 135.405 37.764 134.548 37.696C131.959 37.5712 129.365 37.5996 126.776 37.7811C125.834 37.8491 124.92 38.0306 124.018 38.2518C122.162 38.6998 120.916 40.4351 121.051 42.335C121.435 47.6431 122.997 50.7566 123.228 54.2557C123.685 61.2198 122.58 66.1027 122.394 67.7246L125.947 68.269C132.286 68.1159 136.499 66.7492 139.99 65.252C139.99 65.252 139.077 56.8304 139.962 53.802C142.376 45.5165 140.808 44.2008 140.334 41.8302C139.934 39.851 138.355 38.3255 136.364 38.0022Z" fill="#00A041"/>
<path opacity="0.1" d="M139.957 53.7906C139.669 54.7774 139.573 56.3427 139.573 57.9873C139.573 61.4126 139.99 65.2407 139.99 65.2407C136.505 66.7378 132.292 68.1046 125.947 68.2577L122.394 67.7133C122.585 66.0913 123.685 61.2085 123.234 54.2443C123.003 50.7509 121.44 47.6375 121.057 42.3236C120.916 40.4295 122.168 38.6884 124.024 38.2461C124.926 38.0249 125.834 37.8491 126.781 37.7754C129.365 37.5996 131.959 37.5655 134.553 37.6846C135.411 37.7527 135.619 37.8661 136.369 37.9966C138.36 38.3255 139.94 39.8397 140.334 41.8189C140.504 42.6696 140.819 43.3841 141.034 44.3369C141.299 45.4938 141.423 46.9966 140.983 49.5089C140.774 50.6942 140.447 52.1007 139.957 53.7906Z" fill="white"/>
<path d="M137.385 37.7414C138.682 37.9228 139.962 38.1837 141.254 38.4049C142.54 38.6544 143.826 38.9096 145.106 39.1875L144.643 39.1478C145.213 39.1705 145.721 39.2159 146.037 39.2385C146.189 39.2499 146.296 39.2442 146.256 39.2726C146.251 39.2839 146.172 39.3123 146.087 39.369C145.98 39.4257 145.845 39.5221 145.704 39.6695C145.41 39.9644 145.292 40.3671 145.298 40.4862C145.298 40.6166 145.337 40.5826 145.343 40.4862C145.365 40.282 145.32 39.8907 145.236 39.4881L145.292 39.6525C144.643 37.764 144.023 35.8642 143.459 33.9417C142.912 32.0135 142.382 30.0797 142.01 28.0834C141.869 27.3178 142.365 26.5806 143.132 26.4331C143.713 26.3254 144.282 26.5919 144.581 27.0683C145.653 28.7866 146.578 30.5674 147.475 32.3595C148.36 34.1572 149.189 35.972 149.985 37.8037L150.041 37.9739C150.261 38.5523 150.47 39.1591 150.599 39.9815C150.656 40.3898 150.701 40.8832 150.605 41.5183C150.52 42.1365 150.182 43.0268 149.511 43.6847C149.184 44.0136 148.834 44.2461 148.496 44.4219C148.174 44.5807 147.858 44.6998 147.604 44.7679C147.069 44.9153 146.663 44.9607 146.307 45.0004C145.602 45.0685 145.083 45.0685 144.632 45.0968L144.559 45.1025L144.164 45.0628C142.861 44.9267 141.558 44.7679 140.261 44.6034C138.97 44.4106 137.667 44.2518 136.375 44.025C134.661 43.7187 133.516 42.0684 133.826 40.3444C134.136 38.6431 135.715 37.5088 137.385 37.7414Z" fill="#00A041"/>
<g opacity="0.1">
<path opacity="0.1" d="M137.385 37.7414C138.682 37.9228 139.962 38.1837 141.254 38.4049C142.54 38.6544 143.826 38.9096 145.106 39.1875L144.643 39.1478C145.213 39.1705 145.721 39.2159 146.037 39.2385C146.189 39.2499 146.296 39.2442 146.256 39.2726C146.251 39.2839 146.172 39.3123 146.087 39.369C145.98 39.4257 145.845 39.5221 145.704 39.6695C145.41 39.9644 145.292 40.3671 145.298 40.4862C145.298 40.6166 145.337 40.5826 145.343 40.4862C145.365 40.282 145.32 39.8907 145.236 39.4881L145.292 39.6525C144.643 37.764 144.023 35.8642 143.459 33.9417C142.912 32.0135 142.382 30.0797 142.01 28.0834C141.869 27.3178 142.365 26.5806 143.132 26.4331C143.713 26.3254 144.282 26.5919 144.581 27.0683C145.653 28.7866 146.578 30.5674 147.475 32.3595C148.36 34.1572 149.189 35.972 149.985 37.8037L150.041 37.9739C150.261 38.5523 150.47 39.1591 150.599 39.9815C150.656 40.3898 150.701 40.8832 150.605 41.5183C150.52 42.1365 150.182 43.0268 149.511 43.6847C149.184 44.0136 148.834 44.2461 148.496 44.4219C148.174 44.5807 147.858 44.6998 147.604 44.7679C147.069 44.9153 146.663 44.9607 146.307 45.0004C145.602 45.0685 145.083 45.0685 144.632 45.0968L144.559 45.1025L144.164 45.0628C142.861 44.9267 141.558 44.7679 140.261 44.6034C138.97 44.4106 137.667 44.2518 136.375 44.025C134.661 43.7187 133.516 42.0684 133.826 40.3444C134.136 38.6431 135.715 37.5088 137.385 37.7414Z" fill="white"/>
</g>
<path d="M160.706 25.5371L177.615 25.0153L177.355 19.6845L160.481 20.8017L160.706 25.5371Z" fill="#00A041"/>
<path d="M147.926 25.7412L161.603 25.2932L161.394 20.9265L147.745 21.8168L147.926 25.7412Z" fill="#00A041"/>
<path d="M159.798 25.4066L160.689 25.5031L160.469 20.8357L159.584 21.0172L159.798 25.4066Z" fill="#263238"/>
<path opacity="0.2" d="M159.798 25.4066L160.689 25.5031L160.469 20.8357L159.584 21.0172L159.798 25.4066Z" fill="black"/>
<path d="M160.695 25.5371L161.609 25.5087L161.383 20.745L160.469 20.8074L160.695 25.5371Z" fill="#263238"/>
<path d="M145.805 25.0947L147.159 25.7242L146.984 21.9019L145.693 22.6618L145.805 25.0947Z" fill="#263238"/>
<path d="M138.857 25.0437L142.878 24.8339L142.794 23.0418L138.772 23.2857L138.857 25.0437Z" fill="#263238"/>
<path opacity="0.2" d="M138.857 25.0437L142.878 24.8339L142.794 23.0418L138.772 23.2857L138.857 25.0437Z" fill="black"/>
<path d="M142.325 25.1968L146.798 25.0267L146.685 22.5201L142.213 22.7809L142.325 25.1968Z" fill="#263238"/>
<path opacity="0.2" d="M145.805 25.0947L147.159 25.7242L146.984 21.9019L145.693 22.6618L145.805 25.0947Z" fill="black"/>
<path d="M147.187 25.7639L147.926 25.7412L147.745 21.8168L147.001 21.8622L147.187 25.7639Z" fill="#263238"/>
<path d="M177.04 25.0324L179.696 24.9359L179.431 19.5881L176.78 19.7242L177.04 25.0324Z" fill="#263238"/>
<path d="M178.218 25.4067L181.602 25.3102L181.687 25.0777C182.409 23.0588 182.268 20.8301 181.292 18.9246L177.914 19.1571L177.987 19.3329C178.788 21.2667 178.873 23.4218 178.218 25.4067Z" fill="#00A041"/>
<g opacity="0.4">
<path opacity="0.4" d="M174.614 20.28L175.985 20.1949L176.013 20.779L174.626 20.8584C174.586 20.6713 174.598 20.4728 174.614 20.28Z" fill="white"/>
<path opacity="0.4" d="M173.785 20.3423C173.768 20.5351 173.763 20.7336 173.791 20.9208L161.919 21.5957L161.891 21.0626L173.785 20.3423Z" fill="white"/>
</g>
<g opacity="0.4">
<path opacity="0.4" d="M148.033 22.1231L148.056 22.5994L159.212 21.9359L159.183 21.4142L148.033 22.1231Z" fill="white"/>
</g>
<g opacity="0.4">
<path opacity="0.4" d="M178.213 19.3442L178.247 19.9397L180.892 19.7639L180.863 19.1571L178.213 19.3442Z" fill="white"/>
</g>
<path opacity="0.3" d="M181.258 24.5276C181.241 24.7318 181.23 24.936 181.264 25.1344L178.523 25.2309L178.489 24.6354L181.258 24.5276Z" fill="black"/>
<path opacity="0.3" d="M176.357 24.1987C176.34 24.3972 176.335 24.59 176.363 24.7885L161.845 25.3102L161.817 24.7828L176.357 24.1987Z" fill="black"/>
<path opacity="0.3" d="M159.076 24.7091C159.065 24.8849 159.059 25.055 159.082 25.2308L148.293 25.6108L148.27 25.1344L159.076 24.7091Z" fill="black"/>
<path d="M137.954 23.3537L137.988 25.0664C137.994 25.3556 138.259 25.5881 138.575 25.5825L139.957 25.5598L139.9 22.7526L138.518 22.8036C138.197 22.8149 137.943 23.0645 137.954 23.3537Z" fill="#00A041"/>
<path d="M145.1 28.1061L145.625 24.9133C145.647 24.7828 145.653 24.6467 145.642 24.5106L145.489 22.8206C145.467 22.5994 145.309 22.3896 145.072 22.3159L142.534 22.2875C142.201 22.1798 141.835 22.3442 141.722 22.6448L141.265 24.7375C141.231 24.8962 141.237 25.055 141.276 25.2138L142.026 28.0948C142.1 28.333 142.32 28.5201 142.59 28.5768L144.249 28.5938C144.643 28.6562 145.016 28.4464 145.1 28.1061Z" fill="#CE7A63"/>
<path d="M146.589 29.4502L142.275 30.9757L141.558 28.3103L145.258 27.176L146.589 29.4502Z" fill="#00A041"/>
<path opacity="0.3" d="M146.589 29.4502L142.275 30.9757L141.558 28.3103L145.258 27.176L146.589 29.4502Z" fill="white"/>
<path opacity="0.2" d="M140.977 49.5146L137.672 43.2424L141.028 44.3369C141.293 45.4995 141.417 47.0023 140.977 49.5146Z" fill="black"/>
<path d="M158.016 101.581L157.333 110.099L161.186 110.173L162.246 101.4L158.016 101.581Z" fill="#CE7A63"/>
<path d="M161.795 109.01L157.395 109.101C157.232 109.107 157.085 109.232 157.051 109.407L156.296 113.286C156.228 113.632 156.425 113.967 156.747 114.041C156.786 114.052 156.831 114.052 156.871 114.052C158.456 113.99 159.866 113.865 161.84 113.831C164.169 113.786 163.583 114.097 166.318 114.086C167.97 114.075 168.252 112.044 167.547 111.959C164.338 111.591 164 110.553 162.748 109.339C162.483 109.107 162.144 108.988 161.795 109.01Z" fill="#263238"/>
<path d="M115.908 138.086L114.345 145.912L118.496 147.183L120.493 139.192L115.908 138.086Z" fill="#CE7A63"/>
<path d="M138.09 65.5866C138.09 65.5866 132.19 100.215 128.981 110.406C126.697 117.665 120.578 141.404 120.578 141.404L115.022 140.168C115.022 140.168 114.402 124.005 117.487 115.663C118.542 112.816 119.918 110.247 120.29 108.483C121.88 100.946 118.604 87.273 120.053 77.0706C120.837 71.5413 122.518 67.5998 122.518 67.5998L138.09 65.5866Z" fill="#263238"/>
<path d="M128.981 110.411C126.697 117.67 120.578 141.41 120.578 141.41L115.022 140.173C115.022 140.173 114.402 124.011 117.487 115.668C118.542 112.821 119.918 110.252 120.29 108.489C121.88 100.952 118.604 87.2787 120.053 77.0763C120.837 71.547 122.518 67.6055 122.518 67.6055" fill="#263238"/>
<path opacity="0.2" d="M130.854 76.2937L133.826 88.0216L135.997 76.8041L130.854 76.2937Z" fill="black"/>
<path d="M162.517 105.67L157.091 105.846C157.091 105.846 157.491 98.706 157.491 88.2938C157.491 86.6889 157.74 85.1066 158.089 83.6888C158.862 80.5073 160.114 78.1368 160.114 78.1368C160.114 78.1368 159.533 78.1708 158.54 78.2162C155.472 78.375 136.454 79.3618 136.082 79.3334C135.8 79.3051 134.074 79.5376 130.972 78.0177C125.214 75.1935 125.157 67.2709 125.157 67.2709L139.985 65.2463C139.985 65.2577 140.227 65.2917 143.797 65.3541C154.621 65.5412 167.92 65.9609 170.255 69.6982C173.537 74.9553 162.517 105.67 162.517 105.67Z" fill="#263238"/>
<path d="M118.699 145.158L114.148 145.221C113.979 145.221 113.838 145.351 113.81 145.527L113.246 149.44C113.195 149.786 113.42 150.126 113.753 150.205C113.798 150.217 113.838 150.223 113.883 150.223C115.518 150.171 116.974 150.058 119.015 150.03C121.424 149.996 120.831 150.308 123.668 150.313C125.377 150.313 125.558 148.266 124.825 148.175C121.486 147.778 121.068 146.735 119.709 145.498C119.421 145.26 119.06 145.141 118.699 145.158Z" fill="#263238"/>
<path opacity="0.2" d="M158.089 83.6888C158.862 80.5073 160.114 78.1368 160.114 78.1368C160.114 78.1368 159.533 78.1708 158.54 78.2162C158.495 78.1992 158.45 78.1878 158.394 78.1878L162.347 77.8532L158.089 83.6888Z" fill="black"/>
<path d="M54.4486 41.2915C58.2705 41.2915 61.3689 38.1761 61.3689 34.333C61.3689 30.4899 58.2705 27.3745 54.4486 27.3745C50.6266 27.3745 47.5283 30.4899 47.5283 34.333C47.5283 38.1761 50.6266 41.2915 54.4486 41.2915Z" fill="#00A041"/>
<path opacity="0.6" d="M54.4486 41.2915C58.2705 41.2915 61.3689 38.1761 61.3689 34.333C61.3689 30.4899 58.2705 27.3745 54.4486 27.3745C50.6266 27.3745 47.5283 30.4899 47.5283 34.333C47.5283 38.1761 50.6266 41.2915 54.4486 41.2915Z" fill="white"/>
<path d="M54.4598 24.7261C53.8902 24.7261 53.4333 24.2611 53.4333 23.694V19.1287C53.4333 18.5559 53.8958 18.0966 54.4598 18.0966C55.0295 18.0966 55.4863 18.5616 55.4863 19.1287V23.694C55.492 24.2611 55.0295 24.7261 54.4598 24.7261Z" fill="#00A041"/>
<path d="M54.4598 50.473C53.8902 50.473 53.4333 50.008 53.4333 49.4409V44.8756C53.4333 44.3029 53.8958 43.8435 54.4598 43.8435C55.0295 43.8435 55.4863 44.3085 55.4863 44.8756V49.4409C55.492 50.008 55.0295 50.473 54.4598 50.473Z" fill="#00A041"/>
<path d="M47.0151 27.8282C46.75 27.8282 46.4905 27.7261 46.2875 27.5277L44.3248 25.5541C43.9243 25.1515 43.9243 24.4936 44.3248 24.091C44.7252 23.6883 45.3795 23.6883 45.7799 24.091L47.7426 26.0645C48.1431 26.4672 48.1431 27.125 47.7426 27.5277C47.5396 27.7261 47.2801 27.8282 47.0151 27.8282Z" fill="#00A041"/>
<path d="M63.7377 44.6431C63.4726 44.6431 63.2131 44.541 63.0101 44.3426L61.1771 42.4994C60.7767 42.0968 60.7767 41.4389 61.1771 41.0363C61.5775 40.6336 62.2318 40.6336 62.6322 41.0363L64.4652 42.8794C64.8657 43.2821 64.8657 43.9399 64.4652 44.3426C64.2678 44.541 64.0027 44.6431 63.7377 44.6431Z" fill="#00A041"/>
<path d="M43.93 35.3141H39.3898C38.8201 35.3141 38.3633 34.8491 38.3633 34.282C38.3633 33.7092 38.8258 33.2498 39.3898 33.2498H43.93C44.4996 33.2498 44.9564 33.7149 44.9564 34.282C44.9621 34.8491 44.4996 35.3141 43.93 35.3141Z" fill="#00A041"/>
<path d="M69.5356 35.3141H64.9897C64.4201 35.3141 63.9633 34.8491 63.9633 34.282C63.9633 33.7092 64.4257 33.2498 64.9897 33.2498H69.5356C70.1052 33.2498 70.5621 33.7149 70.5621 34.282C70.5677 34.8491 70.1052 35.3141 69.5356 35.3141Z" fill="#00A041"/>
<path d="M45.2836 44.541C45.0185 44.541 44.759 44.439 44.556 44.2405C44.1556 43.8378 44.1556 43.18 44.556 42.7773L46.2875 41.0363C46.6879 40.6336 47.3422 40.6336 47.7426 41.0363C48.143 41.4389 48.143 42.0968 47.7426 42.4994L46.0111 44.2405C45.8081 44.439 45.5486 44.541 45.2836 44.541Z" fill="#00A041"/>
<path d="M61.9103 27.8282C61.6452 27.8282 61.3858 27.7261 61.1827 27.5277C60.7823 27.125 60.7823 26.4672 61.1827 26.0645L63.0383 24.1987C63.4387 23.7961 64.093 23.7961 64.4934 24.1987C64.8938 24.6014 64.8938 25.2592 64.4934 25.6619L62.6378 27.5277C62.4348 27.7261 62.1697 27.8282 61.9103 27.8282Z" fill="#00A041"/>
<g opacity="0.6">
<g opacity="0.6">
<g opacity="0.6">
<path opacity="0.6" d="M54.4598 24.7261C53.8902 24.7261 53.4333 24.2611 53.4333 23.694V19.1287C53.4333 18.5559 53.8958 18.0966 54.4598 18.0966C55.0295 18.0966 55.4863 18.5616 55.4863 19.1287V23.694C55.492 24.2611 55.0295 24.7261 54.4598 24.7261Z" fill="white"/>
</g>
<g opacity="0.6">
<path opacity="0.6" d="M54.4598 50.473C53.8902 50.473 53.4333 50.008 53.4333 49.4409V44.8756C53.4333 44.3029 53.8958 43.8435 54.4598 43.8435C55.0295 43.8435 55.4863 44.3085 55.4863 44.8756V49.4409C55.492 50.008 55.0295 50.473 54.4598 50.473Z" fill="white"/>
</g>
</g>
<g opacity="0.6">
<g opacity="0.6">
<path opacity="0.6" d="M47.0151 27.8282C46.75 27.8282 46.4905 27.7261 46.2875 27.5277L44.3248 25.5541C43.9243 25.1515 43.9243 24.4936 44.3248 24.091C44.7252 23.6883 45.3795 23.6883 45.7799 24.091L47.7426 26.0645C48.1431 26.4672 48.1431 27.125 47.7426 27.5277C47.5396 27.7261 47.2801 27.8282 47.0151 27.8282Z" fill="white"/>
</g>
<g opacity="0.6">
<path opacity="0.6" d="M63.7377 44.6431C63.4726 44.6431 63.2131 44.541 63.0101 44.3426L61.1771 42.4994C60.7767 42.0968 60.7767 41.4389 61.1771 41.0363C61.5775 40.6336 62.2318 40.6336 62.6322 41.0363L64.4652 42.8794C64.8657 43.2821 64.8657 43.9399 64.4652 44.3426C64.2678 44.541 64.0027 44.6431 63.7377 44.6431Z" fill="white"/>
</g>
</g>
<g opacity="0.6">
<g opacity="0.6">
<path opacity="0.6" d="M43.93 35.3141H39.3898C38.8201 35.3141 38.3633 34.8491 38.3633 34.282C38.3633 33.7092 38.8258 33.2498 39.3898 33.2498H43.93C44.4996 33.2498 44.9564 33.7149 44.9564 34.282C44.9621 34.8491 44.4996 35.3141 43.93 35.3141Z" fill="white"/>
</g>
<g opacity="0.6">
<path opacity="0.6" d="M69.5356 35.3141H64.9897C64.4201 35.3141 63.9633 34.8491 63.9633 34.282C63.9633 33.7092 64.4257 33.2498 64.9897 33.2498H69.5356C70.1052 33.2498 70.5621 33.7149 70.5621 34.282C70.5677 34.8491 70.1052 35.3141 69.5356 35.3141Z" fill="white"/>
</g>
</g>
<g opacity="0.6">
<g opacity="0.6">
<path opacity="0.6" d="M45.2836 44.541C45.0185 44.541 44.759 44.439 44.556 44.2405C44.1556 43.8378 44.1556 43.18 44.556 42.7773L46.2875 41.0363C46.6879 40.6336 47.3422 40.6336 47.7426 41.0363C48.143 41.4389 48.143 42.0968 47.7426 42.4994L46.0111 44.2405C45.8081 44.439 45.5486 44.541 45.2836 44.541Z" fill="white"/>
</g>
<g opacity="0.6">
<path opacity="0.6" d="M61.9103 27.8282C61.6452 27.8282 61.3858 27.7261 61.1827 27.5277C60.7823 27.125 60.7823 26.4672 61.1827 26.0645L63.0383 24.1987C63.4387 23.7961 64.093 23.7961 64.4934 24.1987C64.8938 24.6014 64.8938 25.2592 64.4934 25.6619L62.6378 27.5277C62.4348 27.7261 62.1697 27.8282 61.9103 27.8282Z" fill="white"/>
</g>
</g>
</g>
</svg>
