<svg width="282" height="181" viewBox="0 0 282 181" fill="none" xmlns="http://www.w3.org/2000/svg">
<path d="M133.674 160.171H24.7709C22.9943 160.171 21.5504 158.721 21.5504 156.938V3.23343C21.5504 1.44967 22.9943 0 24.7709 0H133.679C135.456 0 136.9 1.44967 136.9 3.23343V156.938C136.894 158.721 135.45 160.171 133.674 160.171ZM24.7709 0.141569C23.0732 0.141569 21.6914 1.52894 21.6914 3.23343V156.938C21.6914 158.642 23.0732 160.03 24.7709 160.03H133.679C135.377 160.03 136.759 158.642 136.759 156.938V3.23343C136.759 1.52894 135.377 0.141569 133.679 0.141569H24.7709Z" fill="#EBEBEB"/>
<path d="M255.667 160.171H146.758C144.982 160.171 143.538 158.721 143.538 156.938V3.23343C143.538 1.44967 144.982 0 146.758 0H255.667C257.443 0 258.887 1.44967 258.887 3.23343V156.938C258.887 158.721 257.443 160.171 255.667 160.171ZM146.758 0.141569C145.061 0.141569 143.679 1.52894 143.679 3.23343V156.938C143.679 158.642 145.061 160.03 146.758 160.03H255.667C257.364 160.03 258.746 158.642 258.746 156.938V3.23343C258.746 1.52894 257.364 0.141569 255.667 0.141569H146.758Z" fill="#EBEBEB"/>
<path d="M238.538 14.055H128.677V110.945H238.538V14.055Z" fill="#E6E6E6"/>
<path d="M241.409 14.055H130.019V110.945H241.409V14.055Z" fill="#F0F0F0"/>
<path d="M238.538 110.945H128.677V113.618H238.538V110.945Z" fill="#E6E6E6"/>
<path d="M246.18 110.945H134.79V113.618H246.18V110.945Z" fill="#F0F0F0"/>
<path d="M237.392 106.923L237.392 18.0857L134.028 18.0857V106.923L237.392 106.923Z" fill="#FAFAFA"/>
<path d="M147.864 106.919L159.268 18.0869H178.997L167.593 106.919H147.864Z" fill="white"/>
<path d="M171.828 106.919L183.232 18.0869H190.925L179.521 106.919H171.828Z" fill="white"/>
<path d="M237.396 106.92L237.396 18.0823H236.888L236.888 106.92H237.396Z" fill="#E6E6E6"/>
<path opacity="0.5" d="M242.356 26.5527H132.489L132.123 19.6498H241.984L242.356 26.5527Z" fill="#E0E0E0"/>
<path opacity="0.5" d="M242.356 37.8952H132.489L132.123 30.9923H241.984L242.356 37.8952Z" fill="#E0E0E0"/>
<path opacity="0.5" d="M242.356 49.2377H132.489L132.123 42.3348H241.984L242.356 49.2377Z" fill="#E0E0E0"/>
<path opacity="0.5" d="M242.356 60.5802H132.489L132.123 53.6829H241.984L242.356 60.5802Z" fill="#E0E0E0"/>
<path opacity="0.5" d="M242.356 71.9283H132.489L132.123 65.0254H241.984L242.356 71.9283Z" fill="#E0E0E0"/>
<path opacity="0.5" d="M242.356 83.2709H132.489L132.123 76.368H241.984L242.356 83.2709Z" fill="#E0E0E0"/>
<path d="M67.398 34.4069H33.0786V102.536H67.398V34.4069Z" fill="#E0E0E0"/>
<path d="M69.434 34.4069H34.4378V102.536H69.434V34.4069Z" fill="#F5F5F5"/>
<path d="M37.3691 38.3514L37.3691 98.5975H66.4997V38.3514H37.3691Z" fill="white"/>
<path d="M113.217 24.0101H78.8979V92.1387H113.217V24.0101Z" fill="#E0E0E0"/>
<path d="M115.253 24.0101H80.2572V92.1387H115.253V24.0101Z" fill="#F5F5F5"/>
<path d="M83.189 27.9541V88.2002H112.325V27.9541H83.189Z" fill="white"/>
<path d="M107.121 122.638H92.6765V185.427H107.121V122.638Z" fill="#E6E6E6"/>
<path d="M104.379 185.427H107.121V179.028H101.497L104.379 185.427Z" fill="#F0F0F0"/>
<path d="M53.1288 122.638H38.6848V185.427H53.1288V122.638Z" fill="#E6E6E6"/>
<path d="M107.121 122.638H50.7318V181.503H107.121V122.638Z" fill="#F0F0F0"/>
<path d="M79.8472 126.551V173.506H104.99V126.551H79.8472Z" fill="#E6E6E6"/>
<path d="M52.8614 126.552V173.508H78.0045V126.552H52.8614Z" fill="#E6E6E6"/>
<path d="M67.9225 128.341H62.948C60.7879 128.341 58.7237 127.61 57.2347 126.33H73.6358C72.1469 127.616 70.0826 128.341 67.9225 128.341Z" fill="#F0F0F0"/>
<path d="M95.1637 128.341H90.1892C88.0291 128.341 85.9649 127.61 84.4759 126.33H100.877C99.3881 127.616 97.3238 128.341 95.1637 128.341Z" fill="#F0F0F0"/>
<path d="M53.4785 185.427H50.7318V179.028H56.3549L53.4785 185.427Z" fill="#F0F0F0"/>
<path d="M63.9689 116.647C63.9689 116.647 64.3975 122.638 80.8381 122.638C97.2787 122.638 97.7074 116.647 97.7074 116.647H63.9689Z" fill="#E6E6E6"/>
<path d="M128.775 143.507L252.189 143.507V133.133L128.775 133.133V143.507Z" fill="#EBEBEB"/>
<path d="M128.777 143.507H163.807V133.133H128.777V143.507Z" fill="#E0E0E0"/>
<path d="M244.802 185.424H252.19V143.502H244.802V185.424Z" fill="#EBEBEB"/>
<path d="M244.804 146.411L252.193 144.955V143.506H244.804V146.411Z" fill="#E0E0E0"/>
<path d="M128.774 185.424H136.162V143.502H128.774V185.424Z" fill="#E0E0E0"/>
<path d="M156.421 185.424H163.809V143.502H156.421V185.424Z" fill="#EBEBEB"/>
<path d="M156.42 146.411L163.808 144.955V143.506H156.42V146.411Z" fill="#E0E0E0"/>
<path d="M221.675 185.424H229.064V143.502H221.675V185.424Z" fill="#E0E0E0"/>
<path d="M131.136 42.1196H63.8561C59.2933 42.1196 55.8134 45.8683 56.118 50.4495L65.7624 194.51C66.067 199.091 70.0544 202.84 74.6172 202.84H141.897C146.46 202.84 149.939 199.091 149.635 194.51L139.99 50.4495C139.68 45.8683 135.698 42.1196 131.136 42.1196Z" fill="#00A041"/>
<path opacity="0.3" d="M131.136 42.1196H63.8561C59.2933 42.1196 55.8134 45.8683 56.118 50.4495L65.7624 194.51C66.067 199.091 70.0544 202.84 74.6172 202.84H141.897C146.46 202.84 149.939 199.091 149.635 194.51L139.99 50.4495C139.68 45.8683 135.698 42.1196 131.136 42.1196Z" fill="white"/>
<path d="M56.2099 72.9721L55.6472 73.0101L56.5574 86.5977L57.1201 86.5597L56.2099 72.9721Z" fill="#00A041"/>
<path d="M57.5992 93.7177L57.0365 93.7557L57.4445 99.8462L58.0072 99.8082L57.5992 93.7177Z" fill="#00A041"/>
<path d="M70.6467 195.948C70.8215 198.559 67.1724 199.346 66.27 196.888C65.9937 196.135 65.8188 195.331 65.7624 194.504L56.118 50.4495C56.0616 49.6114 56.1349 48.796 56.3154 48.0315C56.9133 45.5003 60.5962 45.8004 60.771 48.3996L70.6467 195.948Z" fill="#00A041"/>
<path d="M141.897 200.105H79.3886C76.2697 200.105 73.4554 197.455 73.2467 194.323L63.6023 50.2626C63.5064 48.8073 63.9745 47.4426 64.9277 46.4176C65.8752 45.404 67.1893 44.8434 68.6332 44.8434H131.141C134.26 44.8434 137.075 47.4936 137.283 50.6251L146.928 194.686C147.024 196.141 146.555 197.506 145.608 198.531C144.655 199.55 143.335 200.105 141.897 200.105ZM68.6275 45.455C67.3529 45.455 66.1967 45.9476 65.362 46.8367C64.5272 47.7314 64.1155 48.9376 64.2001 50.2287L73.8445 194.289C74.0363 197.121 76.5686 199.51 79.383 199.51H141.891C143.166 199.51 144.322 199.018 145.157 198.129C145.991 197.234 146.403 196.028 146.319 194.742L136.674 50.6817C136.482 47.8503 133.95 45.4606 131.136 45.4606H68.6275V45.455Z" fill="white"/>
<g opacity="0.5">
<path opacity="0.5" d="M126.319 110.242C135.852 100.122 134.446 83.2445 123.178 72.5452C111.911 61.846 95.0495 61.3763 85.5168 71.4963C75.9842 81.6162 77.3905 98.4934 88.6578 109.193C99.9251 119.892 116.787 120.362 126.319 110.242Z" fill="#00A041"/>
<path opacity="0.5" d="M122.238 106.367C129.864 98.2713 128.739 84.7702 119.726 76.2112C110.712 67.6522 97.2236 67.2765 89.5979 75.372C81.9722 83.4675 83.0972 96.9685 92.1106 105.528C101.124 114.086 114.613 114.462 122.238 106.367Z" fill="white"/>
<path opacity="0.5" d="M118.168 102.5C123.887 96.4285 123.044 86.3028 116.285 79.8832C109.525 73.4636 99.4088 73.181 93.6893 79.252C87.9697 85.3231 88.8128 95.4487 95.5722 101.868C102.332 108.288 112.448 108.571 118.168 102.5Z" fill="#00A041"/>
<path opacity="0.5" d="M114.08 98.6204C117.894 94.5715 117.332 87.8192 112.824 83.5386C108.316 79.2581 101.57 79.0702 97.756 83.1191C93.9421 87.168 94.5046 93.9203 99.0124 98.2009C103.52 102.481 110.266 102.669 114.08 98.6204Z" fill="white"/>
<path opacity="0.5" d="M110.009 94.7486C111.916 92.7242 111.635 89.3477 109.381 87.2072C107.128 85.0666 103.754 84.9724 101.847 86.9968C99.9398 89.0213 100.221 92.3977 102.475 94.5383C104.729 96.6789 108.102 96.773 110.009 94.7486Z" fill="#00A041"/>
</g>
<path d="M111.046 127.163C110.944 127.163 110.849 127.174 110.753 127.18C109.202 124.207 106.083 122.146 102.62 122.146C101.723 122.146 100.871 122.282 100.076 122.542C98.4575 119.592 95.3047 117.553 91.8192 117.553C87.2339 117.553 83.7033 121.081 83.613 125.583C80.0598 125.832 77.4429 128.805 77.691 132.452C77.9505 136.257 81.2329 139.343 85.023 139.343H111.875C115.225 139.343 117.752 136.62 117.526 133.256C117.295 129.887 114.396 127.163 111.046 127.163Z" fill="white"/>
<path d="M128.152 61.2767C128.073 61.2767 128 61.2824 127.921 61.288C126.714 58.972 124.277 57.3637 121.581 57.3637C120.882 57.3637 120.217 57.4713 119.596 57.6695C118.333 55.3705 115.879 53.7792 113.161 53.7792C109.585 53.7792 106.839 56.5313 106.76 60.0422C103.99 60.2348 101.949 62.5565 102.14 65.3935C102.343 68.3608 104.898 70.7675 107.854 70.7675H128.784C131.395 70.7675 133.369 68.644 133.189 66.0221C133.025 63.4002 130.763 61.2767 128.152 61.2767Z" fill="white"/>
<path opacity="0.3" d="M136.488 149.446H97.8202C96.6189 149.446 95.7165 150.42 95.7954 151.626L97.3577 174.781C97.4367 175.987 98.4744 176.961 99.6757 176.961H104.865L105.299 183.366L111.243 176.961H138.344C139.545 176.961 140.447 175.987 140.368 174.781L138.806 151.626C138.721 150.42 137.684 149.446 136.488 149.446Z" fill="white"/>
<path d="M136.195 164.667H100.172L99.9747 161.74H135.992L136.195 164.667Z" fill="white"/>
<path d="M125.208 170.749H100.584L100.386 167.821H125.011L125.208 170.749Z" fill="white"/>
<path d="M135.783 158.586H99.7603L99.5629 155.658H135.586L135.783 158.586Z" fill="white"/>
<path d="M166.741 51.5651L168.224 52.6353C168.738 52.9977 169.256 53.3545 169.781 53.7056C170.824 54.4078 171.873 55.1043 172.934 55.7329C174 56.3558 175.066 56.9673 176.126 57.4996C177.175 58.0206 178.263 58.485 179.205 58.7851C178.952 58.7285 178.698 58.7228 178.489 58.7568C178.297 58.7794 178.151 58.8417 178.077 58.87C177.914 58.955 177.965 58.9606 178.049 58.9097C178.241 58.8021 178.591 58.4793 178.923 58.1056C179.606 57.3298 180.283 56.3161 180.931 55.2742C181.591 54.2322 182.223 53.128 182.826 51.9954C183.441 50.8799 184.039 49.6964 184.597 48.5921L184.637 48.5185C185.268 47.2614 186.797 46.763 188.043 47.3973C189.149 47.9579 189.662 49.2207 189.335 50.3702C188.556 53.094 187.632 55.6366 186.43 58.2584C185.81 59.5609 185.133 60.8463 184.202 62.1941C183.717 62.8679 183.193 63.5588 182.347 64.295C181.913 64.6574 181.411 65.0424 180.627 65.3709C180.249 65.5294 179.769 65.671 179.25 65.739C178.715 65.8012 178.122 65.7843 177.547 65.6483C175.917 65.2746 174.524 64.7819 173.142 64.227C171.772 63.6777 170.486 63.0435 169.228 62.3753C167.976 61.7071 166.758 61.0049 165.568 60.2631C164.976 59.8893 164.389 59.5099 163.808 59.1192C163.216 58.7228 162.669 58.3434 162.043 57.879C160.3 56.5879 159.933 54.119 161.219 52.3692C162.494 50.6307 164.925 50.257 166.662 51.5084L166.741 51.5651Z" fill="#00A041"/>
<path opacity="0.2" d="M166.741 51.5651L168.224 52.6353C168.738 52.9977 169.256 53.3545 169.781 53.7056C170.824 54.4078 171.873 55.1043 172.934 55.7329C174 56.3558 175.066 56.9673 176.126 57.4996C177.175 58.0206 178.263 58.485 179.205 58.7851C178.952 58.7285 178.698 58.7228 178.489 58.7568C178.297 58.7794 178.151 58.8417 178.077 58.87C177.914 58.955 177.965 58.9606 178.049 58.9097C178.241 58.8021 178.591 58.4793 178.923 58.1056C179.606 57.3298 180.283 56.3161 180.931 55.2742C181.591 54.2322 182.223 53.128 182.826 51.9954C183.441 50.8799 184.039 49.6964 184.597 48.5921L184.637 48.5185C185.268 47.2614 186.797 46.763 188.043 47.3973C189.149 47.9579 189.662 49.2207 189.335 50.3702C188.556 53.094 187.632 55.6366 186.43 58.2584C185.81 59.5609 185.133 60.8463 184.202 62.1941C183.717 62.8679 183.193 63.5588 182.347 64.295C181.913 64.6574 181.411 65.0424 180.627 65.3709C180.249 65.5294 179.769 65.671 179.25 65.739C178.715 65.8012 178.122 65.7843 177.547 65.6483C175.917 65.2746 174.524 64.7819 173.142 64.227C171.772 63.6777 170.486 63.0435 169.228 62.3753C167.976 61.7071 166.758 61.0049 165.568 60.2631C164.976 59.8893 164.389 59.5099 163.808 59.1192C163.216 58.7228 162.669 58.3434 162.043 57.879C160.3 56.5879 159.933 54.119 161.219 52.3692C162.494 50.6307 164.925 50.257 166.662 51.5084L166.741 51.5651Z" fill="black"/>
<path d="M186.013 47.5332L187.541 44.934L190.474 48.1165C190.474 48.1165 189.899 49.5491 188.342 50.1267C187.919 50.2853 187.44 50.2004 187.062 49.9569L186.498 49.5944C185.815 49.1471 185.601 48.241 186.013 47.5332Z" fill="#FFB573"/>
<path d="M191.698 43.3937L192.347 43.7958C193.221 44.3394 193.328 45.5739 192.561 46.2591L190.48 48.1164L187.547 44.934L190.102 43.3824C190.587 43.0823 191.207 43.0879 191.698 43.3937Z" fill="#FFB573"/>
<path d="M156.956 90.0435C156.956 90.0435 153.058 127.186 150.464 139.802C147.627 153.619 138.524 194.04 138.524 194.04L130.352 193.434C130.352 193.434 134.83 151.62 138.496 138.086C138.496 124.031 141.897 84.6412 141.897 84.6412L156.956 90.0435Z" fill="#263238"/>
<path opacity="0.3" d="M143.933 102.62C143.859 99.7155 142.292 98.7811 140.746 98.8151C140.205 105.803 139.579 114.371 139.122 122.1C141.863 117.638 144.136 110.69 143.933 102.62Z" fill="black"/>
<path d="M85.5645 165.183L88.3788 168.677L96.7993 162.578L93.9793 159.09L85.5645 165.183Z" fill="#FFB573"/>
<path d="M88.9879 168.682L86.4838 164.305C86.3935 164.146 86.213 164.09 86.0551 164.169L82.485 165.947C82.1128 166.134 81.9718 166.666 82.1861 167.029C83.0828 168.535 83.5904 169.215 84.6902 171.14C85.367 172.323 87.1493 175.721 88.0855 177.358C88.9992 178.954 90.6066 178.02 90.3528 177.239C89.2304 173.756 88.9033 171.089 89.1346 169.492C89.174 169.203 89.1233 168.914 88.9879 168.682Z" fill="#263238"/>
<path opacity="0.2" d="M93.9793 159.09L96.7993 162.578L92.4565 165.721L89.6365 162.227L93.9793 159.09Z" fill="black"/>
<path d="M148.806 86.8724C148.806 86.8724 137.813 118.459 132.822 130.323C127.351 143.319 94.673 166.4 94.673 166.4L89.5124 160.007C89.5124 160.007 111.723 137.662 119.946 127.055C124.514 112.621 134.266 81.6513 134.266 81.6513L148.806 86.8724Z" fill="#263238"/>
<path d="M89.2981 159.752L94.8761 166.661L97.6002 165.081L91.0691 157.759L89.2981 159.752Z" fill="white"/>
<path d="M156.91 90.2757L134.26 81.6513C134.819 79.5731 137.785 73.4686 140.419 64.9745C142.184 59.2721 143.871 52.624 144.751 45.7154C144.751 45.7098 144.751 45.7041 144.751 45.6984C144.846 44.8943 145.597 44.3394 146.392 44.481C146.82 44.5546 147.317 44.6508 147.87 44.7641C149.296 45.0529 151.079 45.4606 152.776 45.9759C155.703 46.8706 159.9 48.275 162.353 49.4132C163.774 50.0814 164.338 50.3815 165.404 51.0158C166.053 51.4065 166.685 51.8652 167.023 52.2219C167.35 52.5617 167.649 52.9185 167.649 53.3885C167.66 56.6502 164.417 69.2499 156.91 90.2757Z" fill="#F0F0F0"/>
<path d="M161.913 49.215C159.364 47.5558 159.488 45.6475 160.356 43.8184C160.56 43.3711 160.813 42.918 161.084 42.482L158.631 38.3199L156.826 35.2676C156.431 38.62 155.224 44.5546 152.404 45.8683C152.404 45.8683 154.513 49.1924 158.681 50.5118C162.838 51.8255 161.913 49.215 161.913 49.215Z" fill="#FFB573"/>
<path d="M158.518 50.4608L158.478 49.3906L155.658 49.9512L158.518 50.4608Z" fill="#E0E0E0"/>
<path d="M158.518 50.4608L159.037 49.5944L160.864 51.8199L158.518 50.4608Z" fill="#E0E0E0"/>
<path d="M152.782 45.3757C154.44 46.9329 156.352 48.258 158.478 49.3962C157.367 50.0928 156.279 51.9331 155.878 53.4451C154.965 52.8052 151.31 46.7687 150.797 45.1095L152.782 45.3757Z" fill="white"/>
<path d="M161.383 48.5751C160.644 49.1301 159.877 49.5321 159.037 49.5944C159.64 50.4835 160.148 52.7882 160.148 54.1246C161.202 53.4338 162.832 51.0214 163.092 49.9229L161.383 48.5751Z" fill="white"/>
<path opacity="0.3" d="M161.473 48.4959C161.473 48.4959 163.932 49.685 166.109 51.0328C167.937 52.1653 168.822 54.3908 168.236 56.4634C165.545 66.0051 161.913 75.2807 160.407 80.4395C158.805 85.9323 156.589 92.8352 156.589 92.8352L152.742 93.7413C152.748 93.7413 162.376 56.7691 161.473 48.4959Z" fill="black"/>
<path opacity="0.3" d="M152.726 44.9453C152.726 44.9453 149.415 44.5093 146.533 44.379C144.44 44.2828 142.568 45.6758 142.055 47.7144C140.588 53.5357 139.505 64.6687 138.022 69.0064C136.167 74.42 133.674 84.9923 133.674 84.9923L146.798 92.6031C146.792 92.5974 160.041 51.6953 152.726 44.9453Z" fill="black"/>
<path d="M152.726 44.9453C152.726 44.9453 149.415 44.5093 146.533 44.379C144.44 44.2828 142.568 45.6758 142.055 47.7144C140.588 53.5357 138.592 64.4139 137.103 68.7459C135.247 74.1595 131.31 83.3615 131.31 83.3615L147.858 91.1591C147.858 91.1534 160.041 51.6953 152.726 44.9453Z" fill="#00A041"/>
<path opacity="0.2" d="M152.726 44.9453C152.726 44.9453 149.415 44.5093 146.533 44.379C144.44 44.2828 142.568 45.6758 142.055 47.7144C140.588 53.5357 138.592 64.4139 137.103 68.7459C135.247 74.1595 131.31 83.3615 131.31 83.3615L147.858 91.1591C147.858 91.1534 160.041 51.6953 152.726 44.9453Z" fill="black"/>
<path d="M161.473 48.4959C161.473 48.4959 163.932 49.685 166.109 51.0328C167.937 52.1653 168.822 54.3908 168.236 56.4634C165.545 66.0051 163.419 76.0169 162.347 81.2832C161.208 86.8894 160.035 91.9915 160.035 91.9915L153.831 92.8296C153.837 92.8296 162.376 56.7691 161.473 48.4959Z" fill="#00A041"/>
<path opacity="0.2" d="M161.473 48.4959C161.473 48.4959 163.932 49.685 166.109 51.0328C167.937 52.1653 168.822 54.3908 168.236 56.4634C165.545 66.0051 163.419 76.0169 162.347 81.2832C161.208 86.8894 160.035 91.9915 160.035 91.9915L153.831 92.8296C153.837 92.8296 162.376 56.7691 161.473 48.4959Z" fill="black"/>
<path opacity="0.2" d="M161.078 42.482C160.808 42.918 160.56 43.3711 160.351 43.8184C159.144 43.0879 157.897 41.072 158.191 39.6733C158.304 39.1466 158.461 38.6596 158.619 38.3199L161.078 42.482Z" fill="black"/>
<path d="M164.558 25.3295C167.559 25.7202 168.659 29.7861 167 32.4703C164.282 28.5063 164.558 25.3295 164.558 25.3295Z" fill="#263238"/>
<path d="M155.218 32.827C156.228 37.1817 156.6 39.7752 159.2 41.7289C163.109 44.6678 168.196 41.9271 168.501 37.4082C168.777 33.3367 167.079 26.8981 162.483 25.7316C157.959 24.5764 154.209 28.4723 155.218 32.827Z" fill="#FFB573"/>
<path d="M156.555 36.7003C159.172 36.7739 158.766 32.4306 157.621 30.7941C161.242 31.3773 167.243 28.1496 167.846 24.7859C168.721 19.9103 161.315 19.9103 158.918 21.4618C159.95 21.5355 160.475 22.4132 160.227 22.8662C160.227 22.8662 156.657 21.779 154.344 23.0418C155.348 23.4098 156.425 24.8765 152.585 25.3408C148.924 25.7825 150.035 29.4746 151.88 29.4067C150.898 30.9243 149.719 34.3559 151.93 35.8226C154.141 37.2893 155.653 39.1806 155.173 39.9621C155.94 39.9338 157.582 38.9994 156.555 36.7003Z" fill="#263238"/>
<path d="M152.398 29.0669C150.65 29.2368 149.646 30.6015 149.578 32.4646C150.419 30.7658 152.398 29.0669 152.398 29.0669Z" fill="#263238"/>
<path d="M154.175 36.7626C154.649 37.731 155.506 38.4048 156.318 38.6993C157.542 39.141 158.185 38.0594 157.869 36.8476C157.582 35.7547 156.6 34.2031 155.359 34.2823C154.136 34.3616 153.634 35.6527 154.175 36.7626Z" fill="#FFB573"/>
<path d="M162.094 33.1554C162.156 33.5122 162.393 33.7783 162.624 33.7444C162.855 33.7104 162.996 33.3989 162.94 33.0422C162.878 32.6854 162.641 32.4193 162.409 32.4533C162.178 32.4872 162.032 32.7987 162.094 33.1554Z" fill="#263238"/>
<path d="M166.137 32.6118C166.2 32.9686 166.436 33.2347 166.668 33.2008C166.899 33.1668 167.04 32.8553 166.983 32.4986C166.921 32.1418 166.685 31.8757 166.453 31.9096C166.216 31.9436 166.075 32.2551 166.137 32.6118Z" fill="#263238"/>
<path d="M164.88 32.9629C164.88 32.9629 166.042 34.9166 167.108 35.7886C166.572 36.4625 165.455 36.3379 165.455 36.3379L164.88 32.9629Z" fill="#ED893E"/>
<path d="M164.152 37.5044C162.731 37.5271 161.924 36.6494 161.885 36.6041C161.845 36.5588 161.851 36.4908 161.891 36.4512C161.936 36.4115 162.003 36.4172 162.043 36.4568C162.054 36.4682 162.973 37.4705 164.541 37.2553C164.598 37.2496 164.654 37.2893 164.66 37.3459C164.665 37.4025 164.626 37.4591 164.57 37.4648C164.423 37.4875 164.288 37.4988 164.152 37.5044Z" fill="#263238"/>
<path d="M163.024 38.6766C161.891 37.8102 161.795 36.6211 161.795 36.5644C161.789 36.5078 161.834 36.4568 161.891 36.4512C161.947 36.4455 161.998 36.4908 162.003 36.5474C162.003 36.5588 162.11 37.9178 163.481 38.7276C163.532 38.7559 163.549 38.8239 163.52 38.8748C163.492 38.9258 163.425 38.9428 163.374 38.9145C163.25 38.8409 163.131 38.7616 163.024 38.6766Z" fill="#263238"/>
<path d="M160.622 32.0229C160.588 32.0229 160.554 32.0172 160.52 32.0002C160.418 31.9436 160.379 31.8134 160.435 31.7114C160.983 30.6865 161.964 30.6129 162.003 30.6129C162.111 30.5959 162.223 30.6921 162.229 30.8111C162.235 30.93 162.15 31.0319 162.032 31.0376C161.992 31.0432 161.236 31.1112 160.808 31.9153C160.768 31.9776 160.695 32.0229 160.622 32.0229Z" fill="#263238"/>
<path d="M167.638 30.9923C167.57 30.9923 167.502 30.964 167.463 30.9017C166.91 30.1089 166.121 30.1089 166.109 30.1089C165.991 30.1089 165.895 30.0183 165.895 29.8994C165.895 29.7804 165.985 29.6842 166.104 29.6842C166.143 29.6842 167.124 29.6842 167.807 30.6582C167.875 30.7544 167.852 30.8847 167.756 30.9526C167.722 30.9753 167.677 30.9923 167.638 30.9923Z" fill="#263238"/>
<path d="M147.734 51.7066C146.617 52.6297 145.416 53.649 144.277 54.6569C143.132 55.6706 141.987 56.6899 140.887 57.7375C138.693 59.8327 136.556 61.9902 134.773 64.227L134.13 65.0651L134.052 65.1727C134.052 65.167 134.085 65.1217 134.097 65.0934C134.125 65.0311 134.164 64.9632 134.181 64.8952C134.232 64.765 134.249 64.6234 134.255 64.5385C134.255 64.3516 134.221 64.3459 134.226 64.4422C134.232 64.5385 134.283 64.7253 134.367 64.9405C134.542 65.3765 134.852 65.9202 135.219 66.4638C135.586 67.0074 136.014 67.5624 136.471 68.1173C137.379 69.2272 138.394 70.3371 139.46 71.4017C140.515 72.472 141.654 73.5536 142.731 74.5445L142.799 74.6068C143.831 75.5525 143.905 77.1607 142.963 78.2027C142.117 79.137 140.735 79.2899 139.714 78.6274C136.888 76.7983 134.328 74.8447 131.824 72.4267C131.209 71.8094 130.605 71.1639 130.013 70.4447C129.427 69.7255 128.846 68.9497 128.31 67.9644C128.045 67.4661 127.791 66.9225 127.594 66.2543C127.396 65.5861 127.244 64.7819 127.329 63.8023C127.368 63.321 127.492 62.7943 127.678 62.2903C127.78 62.0412 127.887 61.7863 128.028 61.5598L128.225 61.2257L128.316 61.0898L129.054 59.9913C131.062 57.1486 133.245 54.6456 135.552 52.2956C136.702 51.1177 137.864 49.9625 139.071 48.8583C140.289 47.7427 141.462 46.6781 142.788 45.5852C144.463 44.2091 146.939 44.4583 148.309 46.1402C149.68 47.822 149.432 50.3079 147.757 51.684L147.734 51.7066Z" fill="#00A041"/>
<path opacity="0.2" d="M147.734 51.7066C146.617 52.6297 145.416 53.649 144.277 54.6569C143.132 55.6706 141.987 56.6899 140.887 57.7375C138.693 59.8327 136.556 61.9902 134.773 64.227L134.13 65.0651L134.052 65.1727C134.052 65.167 134.085 65.1217 134.097 65.0934C134.125 65.0311 134.164 64.9632 134.181 64.8952C134.232 64.765 134.249 64.6234 134.255 64.5385C134.255 64.3516 134.221 64.3459 134.226 64.4422C134.232 64.5385 134.283 64.7253 134.367 64.9405C134.542 65.3765 134.852 65.9202 135.219 66.4638C135.586 67.0074 136.014 67.5624 136.471 68.1173C137.379 69.2272 138.394 70.3371 139.46 71.4017C140.515 72.472 141.654 73.5536 142.731 74.5445L142.799 74.6068C143.831 75.5525 143.905 77.1607 142.963 78.2027C142.117 79.137 140.735 79.2899 139.714 78.6274C136.888 76.7983 134.328 74.8447 131.824 72.4267C131.209 71.8094 130.605 71.1639 130.013 70.4447C129.427 69.7255 128.846 68.9497 128.31 67.9644C128.045 67.4661 127.791 66.9225 127.594 66.2543C127.396 65.5861 127.244 64.7819 127.329 63.8023C127.368 63.321 127.492 62.7943 127.678 62.2903C127.78 62.0412 127.887 61.7863 128.028 61.5598L128.225 61.2257L128.316 61.0898L129.054 59.9913C131.062 57.1486 133.245 54.6456 135.552 52.2956C136.702 51.1177 137.864 49.9625 139.071 48.8583C140.289 47.7427 141.462 46.6781 142.788 45.5852C144.463 44.2091 146.939 44.4583 148.309 46.1402C149.68 47.822 149.432 50.3079 147.757 51.684L147.734 51.7066Z" fill="black"/>
<path d="M143.634 75.4732L147.469 77.8289L142.568 80.632C142.568 80.632 139.308 78.1913 140.707 76.6058L142.342 75.5015C142.726 75.2411 143.233 75.2297 143.634 75.4732Z" fill="#FFB573"/>
<path d="M147.678 82.1043L145.568 83.3558C144.954 83.7239 144.153 83.503 143.809 82.8745L142.562 80.632L147.463 77.8289L148.253 80.6603C148.411 81.2209 148.174 81.8099 147.678 82.1043Z" fill="#FFB573"/>
<path d="M184.366 42.1422L189.566 41.1173C188.139 43.6429 190.237 46.0609 192.121 47.5785C193.023 48.3033 192.386 49.6001 191.01 49.8719L187.632 50.5344C183.52 51.3442 184.366 42.1422 184.366 42.1422Z" fill="#00A041"/>
<path d="M182.302 42.55L194.213 40.2056C198.077 39.4468 200.62 35.6471 199.865 31.7681C199.109 27.8891 195.324 25.3352 191.461 26.094L179.555 28.4384C175.692 29.1972 173.148 32.9969 173.904 36.8759C174.66 40.7605 178.438 43.3088 182.302 42.55Z" fill="#00A041"/>
<path opacity="0.3" d="M182.302 42.55L194.213 40.2056C198.077 39.4468 200.62 35.6471 199.865 31.7681C199.109 27.8891 195.324 25.3352 191.461 26.094L179.555 28.4384C175.692 29.1972 173.148 32.9969 173.904 36.8759C174.66 40.7605 178.438 43.3088 182.302 42.55Z" fill="white"/>
<path d="M214.72 44.9906L194.428 44.7188C192.662 45.0642 188.196 22.1867 189.961 21.8413L208.652 13.8964L214.72 44.9906Z" fill="#00A041"/>
<path d="M210.062 29.7578C211.737 38.3425 213.824 45.1605 214.72 44.9849C215.617 44.8094 214.986 37.7026 213.31 29.1179C211.635 20.5332 209.549 13.7152 208.652 13.8907C207.749 14.072 208.387 21.173 210.062 29.7578Z" fill="#00A041"/>
<path opacity="0.3" d="M210.062 29.7578C211.737 38.3425 213.824 45.1605 214.72 44.9849C215.617 44.8094 214.986 37.7026 213.31 29.1179C211.635 20.5332 209.549 13.7152 208.652 13.8907C207.749 14.072 208.387 21.173 210.062 29.7578Z" fill="black"/>
<path d="M217.693 28.6989C217.281 26.598 212.628 25.7486 211.635 25.9411C210.643 26.1393 210.163 27.9967 210.575 30.0976C210.987 32.1984 212.126 33.7387 213.119 33.5462C214.111 33.3536 218.099 30.7997 217.693 28.6989Z" fill="#00A041"/>
<path d="M249.121 23.255L222.702 27.5461L222.799 28.1443L249.218 23.8532L249.121 23.255Z" fill="#00A041"/>
<path d="M231.044 11.7972L220.211 21.0704L220.603 21.5315L231.436 12.2583L231.044 11.7972Z" fill="#00A041"/>
<path d="M236.397 40.4753L236.196 41.0467L240.169 42.4544L240.37 41.8831L236.397 40.4753Z" fill="#00A041"/>
<path d="M222.01 35.5554L221.818 36.1299L231.871 39.5153L232.063 38.9408L222.01 35.5554Z" fill="#00A041"/>
</svg>
