<?xml version="1.0" encoding="utf-8"?>
<!-- Generator: Adobe Illustrator 25.2.3, SVG Export Plug-In . SVG Version: 6.00 Build 0)  -->
<svg version="1.1" id="Слой_1" xmlns="http://www.w3.org/2000/svg" xmlns:xlink="http://www.w3.org/1999/xlink" x="0px" y="0px"
	 viewBox="0 0 1080 1080" style="enable-background:new 0 0 1080 1080;" xml:space="preserve">
<style type="text/css">
	.st0{fill:#3CAC4F;}
	.st1{fill:#FFFFFF;}
	.st2{display:none;}
	.st3{display:inline;fill:none;stroke:#3CAC4F;stroke-width:4;stroke-miterlimit:10;}
	.st4{display:inline;fill:#3CAC4F;}
	.st5{display:inline;fill:#FFFFFF;}
</style>
<g>
	<path class="st0" d="M777.12,870.73H302.88c-52.83,0-95.65-42.82-95.65-95.65V300.83c0-52.83,42.82-95.65,95.65-95.65h474.25
		c52.83,0,95.65,42.82,95.65,95.65v474.25C872.78,827.91,829.95,870.73,777.12,870.73z"/>
	<path class="st1" d="M777.4,508.45c0,0.38,0,0.77-0.01,1.16c1.65,111.61-111.25,219.61-207.43,291.11c-0.1,0.09-0.2,0.17-0.3,0.26
		c-8.7,7.36-19.13,10.72-29.65,10.5h-0.03c-10.52,0.22-20.94-3.14-29.65-10.5c-0.1-0.09-0.2-0.17-0.3-0.26
		C413.94,729.29,301.15,621.4,302.61,509.9c-0.02-0.49-0.02-0.97-0.02-1.45c0-123.47,89.21-225.54,204.99-241.78
		c0.91-0.12,1.83-0.24,2.74-0.37c4.76-0.61,9.56-1.07,14.41-1.39c5.04-0.33,10.13-0.5,15.25-0.5c6.15,0,12.23,0.24,18.25,0.71
		c1.92,0.15,3.83,0.32,5.73,0.52c1.9,0.2,3.77,0.42,5.65,0.65c0.02,0.01,0.03,0.01,0.03,0C686.75,281.28,777.4,383.99,777.4,508.45z
		"/>
	<ellipse class="st0" cx="540" cy="503.4" rx="164.3" ry="168.9"/>
	<path class="st1" d="M532.84,459.01c-2.91,12.57-11.78,24.93-24.53,28.94v124.42c0,3.91-1.59,7.46-4.16,10.02
		c-2.57,2.57-6.13,4.16-10.06,4.16c-7.9-0.01-14.16-6.74-14.16-14.64l0-123.63c-13.37-3.61-22.68-16.33-25.68-29.27
		c-5.36-23.14,5.46-51.02,27.9-61.24c0.04-0.02,0.09-0.04,0.13-0.06c7.14-3.21,15.38-3.21,22.52,0c0.04,0.02,0.09,0.04,0.13,0.06
		c1.16,0.53,2.28,1.1,3.37,1.72C528.45,410.85,537.92,437.06,532.84,459.01z"/>
	<path class="st1" d="M623.16,401.97v67.7c0,11.37-9.11,20.6-20.43,20.8c-0.04,0-0.07,0.03-0.07,0.07v121.84
		c0,3.91-1.59,7.46-4.16,10.02c-2.57,2.57-6.14,4.17-10.07,4.16c-7.89-0.02-14.15-6.73-14.15-14.63V490.46
		c0-0.04-0.03-0.07-0.07-0.07c-10.64-0.93-18.98-9.84-18.98-20.72v-67.7c0-3.92,3.17-7.09,7.09-7.09c1.96,0,3.73,0.79,5.02,2.08
		c1.29,1.29,2.08,3.06,2.08,5.02v47.73c0,0.04,0.03,0.08,0.08,0.08h12.54c0.04,0,0.08-0.03,0.08-0.08v-47.4
		c0-3.98,3.26-7.5,7.24-7.41c1.9,0.04,3.62,0.82,4.86,2.08c1.29,1.29,2.08,3.06,2.08,5.02v47.73c0,0.04,0.03,0.08,0.08,0.08h12.55
		c0.04,0,0.08-0.03,0.08-0.08v-47.73c0-3.92,3.17-7.09,7.09-7.09c1.96,0,3.73,0.79,5.01,2.08
		C622.37,398.24,623.16,400.01,623.16,401.97z"/>
</g>
<g class="st2">
	<path class="st3" d="M777.12,874.82H302.88c-52.83,0-95.65-42.82-95.65-95.65V304.92c0-52.83,42.82-95.65,95.65-95.65h474.25
		c52.83,0,95.65,42.82,95.65,95.65v474.25C872.78,832,829.95,874.82,777.12,874.82z"/>
	<path class="st4" d="M777.4,512.54c0,0.38,0,0.77-0.01,1.16c1.65,111.61-111.25,219.61-207.43,291.11c-0.1,0.09-0.2,0.17-0.3,0.26
		c-8.7,7.36-19.13,10.72-29.65,10.5h-0.03c-10.52,0.22-20.94-3.14-29.65-10.5c-0.1-0.09-0.2-0.17-0.3-0.26
		c-96.09-71.43-208.88-179.32-207.42-290.82c-0.02-0.49-0.02-0.97-0.02-1.45c0-123.47,89.21-225.54,204.99-241.78
		c0.91-0.12,1.83-0.24,2.74-0.37c4.76-0.61,9.56-1.07,14.41-1.39c5.04-0.33,10.13-0.5,15.25-0.5c6.15,0,12.23,0.24,18.25,0.71
		c1.92,0.15,3.83,0.32,5.73,0.52c1.9,0.2,3.77,0.42,5.65,0.65c0.02,0.01,0.03,0.01,0.03,0C686.75,285.37,777.4,388.08,777.4,512.54z
		"/>
	<ellipse class="st5" cx="540" cy="507.49" rx="164.3" ry="168.9"/>
	<path class="st4" d="M532.84,463.1c-2.91,12.57-11.78,24.93-24.53,28.94v124.42c0,3.91-1.59,7.46-4.16,10.02
		c-2.57,2.57-6.13,4.16-10.06,4.16c-7.9-0.01-14.16-6.74-14.16-14.64l0-123.63c-13.37-3.61-22.68-16.33-25.68-29.27
		c-5.36-23.14,5.46-51.02,27.9-61.24c0.04-0.02,0.09-0.04,0.13-0.06c7.14-3.21,15.38-3.21,22.52,0c0.04,0.02,0.09,0.04,0.13,0.06
		c1.16,0.53,2.28,1.1,3.37,1.72C528.45,414.94,537.92,441.15,532.84,463.1z"/>
	<path class="st4" d="M623.16,406.06v67.7c0,11.37-9.11,20.6-20.43,20.8c-0.04,0-0.07,0.03-0.07,0.07v121.84
		c0,3.91-1.59,7.46-4.16,10.02c-2.57,2.57-6.14,4.17-10.07,4.16c-7.89-0.02-14.15-6.73-14.15-14.63V494.55
		c0-0.04-0.03-0.07-0.07-0.07c-10.64-0.93-18.98-9.84-18.98-20.72v-67.7c0-3.92,3.17-7.09,7.09-7.09c1.96,0,3.73,0.79,5.02,2.08
		c1.29,1.29,2.08,3.06,2.08,5.02v47.73c0,0.04,0.03,0.08,0.08,0.08h12.54c0.04,0,0.08-0.03,0.08-0.08v-47.4
		c0-3.98,3.26-7.5,7.24-7.41c1.9,0.04,3.62,0.82,4.86,2.08c1.29,1.29,2.08,3.06,2.08,5.02v47.73c0,0.04,0.03,0.08,0.08,0.08h12.55
		c0.04,0,0.08-0.03,0.08-0.08v-47.73c0-3.92,3.17-7.09,7.09-7.09c1.96,0,3.73,0.79,5.01,2.08
		C622.37,402.33,623.16,404.1,623.16,406.06z"/>
</g>
</svg>
