<svg width="36" height="38" viewBox="0 0 36 38" fill="none" xmlns="http://www.w3.org/2000/svg">
<path d="M34.2422 30.7937C33.3579 28.6992 32.0747 26.7967 30.4641 25.1922C28.8583 23.583 26.9561 22.3 24.8625 21.4141C24.8438 21.4047 24.825 21.4 24.8062 21.3906C27.7266 19.2812 29.625 15.8453 29.625 11.9688C29.625 5.54688 24.4219 0.34375 18 0.34375C11.5781 0.34375 6.375 5.54688 6.375 11.9688C6.375 15.8453 8.27343 19.2812 11.1937 21.3953C11.175 21.4047 11.1562 21.4094 11.1375 21.4187C9.0375 22.3047 7.15312 23.575 5.53593 25.1969C3.92676 26.8027 2.64377 28.7049 1.75781 30.7984C0.887443 32.8481 0.418035 35.0455 0.374995 37.2719C0.373744 37.3219 0.382519 37.3717 0.400804 37.4183C0.419088 37.4648 0.446512 37.5073 0.48146 37.5431C0.516407 37.5789 0.558171 37.6074 0.60429 37.6268C0.650409 37.6463 0.699951 37.6563 0.749995 37.6562H3.5625C3.76875 37.6562 3.93281 37.4922 3.9375 37.2906C4.03125 33.6719 5.48437 30.2828 8.05312 27.7141C10.7109 25.0563 14.2406 23.5938 18 23.5938C21.7594 23.5938 25.2891 25.0563 27.9469 27.7141C30.5156 30.2828 31.9688 33.6719 32.0625 37.2906C32.0672 37.4969 32.2313 37.6562 32.4375 37.6562H35.25C35.3 37.6563 35.3496 37.6463 35.3957 37.6268C35.4418 37.6074 35.4836 37.5789 35.5185 37.5431C35.5535 37.5073 35.5809 37.4648 35.5992 37.4183C35.6175 37.3717 35.6263 37.3219 35.625 37.2719C35.5781 35.0312 35.1141 32.8516 34.2422 30.7937ZM18 20.0312C15.8484 20.0312 13.8234 19.1922 12.3 17.6688C10.7766 16.1453 9.9375 14.1203 9.9375 11.9688C9.9375 9.81719 10.7766 7.79219 12.3 6.26875C13.8234 4.74531 15.8484 3.90625 18 3.90625C20.1516 3.90625 22.1766 4.74531 23.7 6.26875C25.2234 7.79219 26.0625 9.81719 26.0625 11.9688C26.0625 14.1203 25.2234 16.1453 23.7 17.6688C22.1766 19.1922 20.1516 20.0312 18 20.0312Z" fill="white"/>
</svg>
