<svg width="20" height="17" viewBox="0 0 20 17" fill="none" xmlns="http://www.w3.org/2000/svg">
<path d="M19.96 5.73L18.53 0.73C18.4718 0.520086 18.3464 0.335031 18.173 0.203182C17.9996 0.0713329 17.7878 -3.87152e-05 17.57 1.57551e-08H2.42997C1.97997 1.57551e-08 1.58997 0.3 1.46997 0.73L0.0399671 5.73C-0.140033 6.36 0.339967 7 0.999967 7H3.19997L2.14997 14.88C2.12878 15.0106 2.134 15.1441 2.16533 15.2726C2.19666 15.4011 2.25345 15.5221 2.33235 15.6283C2.41125 15.7344 2.51065 15.8237 2.62467 15.8908C2.73869 15.9579 2.865 16.0014 2.99614 16.0188C3.12729 16.0362 3.26058 16.0271 3.38815 15.9921C3.51571 15.957 3.63495 15.8968 3.7388 15.8148C3.84266 15.7329 3.92902 15.6309 3.99277 15.515C4.05653 15.3991 4.09638 15.2716 4.10997 15.14L4.66997 11H15.34L15.89 15.14C15.9234 15.3769 16.0407 15.5939 16.2205 15.7517C16.4003 15.9095 16.6308 15.9976 16.87 16C17.47 16 17.93 15.47 17.85 14.88L16.8 7H19C19.66 7 20.14 6.36 19.96 5.73ZM4.92997 9L5.19997 7H14.8L15.07 9H4.92997Z" fill="black"/>
</svg>
