<svg width="226" height="169" viewBox="0 0 226 169" fill="none" xmlns="http://www.w3.org/2000/svg">
<path d="M226 148.517H0V148.631H226V148.517Z" fill="#E6E6E6"/>
<path d="M56.4186 155.38H41.4484V155.493H56.4186V155.38Z" fill="#E6E6E6"/>
<path d="M36.7115 155.38H28.0376V155.493H36.7115V155.38Z" fill="#E6E6E6"/>
<path d="M95.1686 157.049H86.4948V157.162H95.1686V157.049Z" fill="#E6E6E6"/>
<path d="M140.396 159.58H120.874V159.693H140.396V159.58Z" fill="#E6E6E6"/>
<path d="M116.851 159.58H113.99V159.693H116.851V159.58Z" fill="#E6E6E6"/>
<path d="M204.914 157.049H162.571V157.162H204.914V157.049Z" fill="#E6E6E6"/>
<path d="M107.128 128.289H19.8518C18.428 128.289 17.2709 127.128 17.2709 125.699V2.58981C17.2709 1.16111 18.428 0 19.8518 0H107.133C108.557 0 109.714 1.16111 109.714 2.58981V125.699C109.709 127.128 108.552 128.289 107.128 128.289ZM19.8518 0.113389C18.4913 0.113389 17.3839 1.2246 17.3839 2.58981V125.699C17.3839 127.064 18.4913 128.175 19.8518 128.175H107.133C108.493 128.175 109.601 127.064 109.601 125.699V2.58981C109.601 1.2246 108.493 0.113389 107.133 0.113389H19.8518Z" fill="#E6E6E6"/>
<path d="M204.896 128.289H117.615C116.191 128.289 115.034 127.128 115.034 125.699V2.58981C115.034 1.16111 116.191 0 117.615 0H204.896C206.32 0 207.477 1.16111 207.477 2.58981V125.699C207.477 127.128 206.32 128.289 204.896 128.289ZM117.615 0.113389C116.254 0.113389 115.147 1.2246 115.147 2.58981V125.699C115.147 127.064 116.254 128.175 117.615 128.175H204.896C206.257 128.175 207.364 127.064 207.364 125.699V2.58981C207.364 1.2246 206.257 0.113389 204.896 0.113389H117.615Z" fill="#E6E6E6"/>
<path d="M120.865 109.77H110.925V149.334H120.865V109.77Z" fill="#E0E0E0"/>
<path d="M118.975 149.338H120.865V143.95H116.996L118.975 149.338Z" fill="#FAFAFA"/>
<path d="M77.3101 109.77H67.3706V149.334H77.3101V109.77Z" fill="#E0E0E0"/>
<path d="M120.865 109.77H75.6648V146.027H120.865V109.77Z" fill="#FAFAFA"/>
<path d="M119.224 111.552V121.145H77.301V111.552H119.224ZM119.4 111.38H77.1293V121.322H119.4V111.38Z" fill="#E0E0E0"/>
<path d="M77.5542 149.338H75.6648V143.95H79.5294L77.5542 149.338Z" fill="#FAFAFA"/>
<path d="M97.2659 116.351C97.2659 116.904 97.7133 117.353 98.2648 117.353C98.8162 117.353 99.2637 116.904 99.2637 116.351C99.2637 115.798 98.8162 115.349 98.2648 115.349C97.7133 115.349 97.2659 115.798 97.2659 116.351Z" fill="#E6E6E6"/>
<path d="M119.224 123.105V132.697H77.301V123.105H119.224ZM119.4 122.932H77.1293V132.874H119.4V122.932Z" fill="#E0E0E0"/>
<path d="M97.2659 127.903C97.2659 128.457 97.7133 128.906 98.2648 128.906C98.8162 128.906 99.2637 128.457 99.2637 127.903C99.2637 127.35 98.8162 126.901 98.2648 126.901C97.7133 126.901 97.2659 127.35 97.2659 127.903Z" fill="#E6E6E6"/>
<path d="M119.224 134.657V144.249H77.301V134.657H119.224ZM119.4 134.48H77.1293V144.422H119.4V134.48Z" fill="#E0E0E0"/>
<path d="M97.2659 139.451C97.2659 140.004 97.7133 140.453 98.2648 140.453C98.8162 140.453 99.2637 140.004 99.2637 139.451C99.2637 138.897 98.8162 138.448 98.2648 138.448C97.7133 138.448 97.2659 138.897 97.2659 139.451Z" fill="#E6E6E6"/>
<path d="M71.2398 86.7927H61.3003V149.338H71.2398V86.7927Z" fill="#E0E0E0"/>
<path d="M69.3504 149.338H71.2397V143.95H67.3706L69.3504 149.338Z" fill="#FAFAFA"/>
<path d="M34.0944 86.7927H24.1549V149.338H34.0944V86.7927Z" fill="#E0E0E0"/>
<path d="M71.2397 86.7927H32.4446V146.032H71.2397V86.7927Z" fill="#FAFAFA"/>
<path d="M69.5673 88.4709V101.883H34.117V88.4709H69.5673ZM69.7753 88.2668H33.9091V102.091H69.7753V88.2668Z" fill="#E0E0E0"/>
<path d="M69.5673 103.515V139.092H52.6806V103.515H69.5673ZM69.7752 103.307H52.4772V139.297H69.7752V103.307Z" fill="#E0E0E0"/>
<path d="M51.0037 103.515V139.092H34.117V103.515H51.0037ZM51.2071 103.307H33.9091V139.297H51.2071V103.307Z" fill="#E0E0E0"/>
<path d="M34.3339 149.338H32.4446V143.95H36.3137L34.3339 149.338Z" fill="#FAFAFA"/>
<path d="M50.8409 95.179C50.8409 95.7323 51.2884 96.1814 51.8399 96.1814C52.3913 96.1814 52.8388 95.7323 52.8388 95.179C52.8388 94.6257 52.3913 94.1766 51.8399 94.1766C51.2884 94.1766 50.8409 94.6257 50.8409 95.179Z" fill="#E6E6E6"/>
<path d="M54.4208 120.451C54.4208 121.005 54.8683 121.454 55.4197 121.454C55.9711 121.454 56.4186 121.005 56.4186 120.451C56.4186 119.898 55.9711 119.449 55.4197 119.449C54.8683 119.449 54.4208 119.898 54.4208 120.451Z" fill="#E6E6E6"/>
<path d="M47.2656 120.451C47.2656 121.005 47.7131 121.454 48.2645 121.454C48.816 121.454 49.2635 121.005 49.2635 120.451C49.2635 119.898 48.816 119.449 48.2645 119.449C47.7131 119.449 47.2656 119.898 47.2656 120.451Z" fill="#E6E6E6"/>
<path d="M46.1357 69.358H41.9457C41.9457 69.358 42.6734 73.245 42.6734 75.5354C42.6734 77.8259 39.4823 86.7973 44.0429 86.7973C48.5991 86.7973 45.4125 77.8259 45.4125 75.5354C45.408 73.245 46.1357 69.358 46.1357 69.358Z" fill="#E0E0E0"/>
<path d="M30.1936 78.5561V81.2911C30.1936 84.3208 32.6615 86.7973 35.6809 86.7973H38.4064C41.4258 86.7973 43.8937 84.3208 43.8937 81.2911V78.5561H30.1936Z" fill="#F5F5F5"/>
<path d="M88.4429 104.005C88.4429 107.176 91.982 109.77 96.3077 109.77H100.213C104.539 109.77 108.078 107.176 108.078 104.005H88.4429Z" fill="#E0E0E0"/>
<path d="M191.924 99.3653C189.555 101.307 186.287 104.858 183.291 109.856C181.297 113.185 180.095 116.673 179.566 121.281C179.58 116.065 179.593 110.464 179.611 105.175C180.212 103.815 181.587 100.676 182.572 98.1997C185.862 89.9313 187.087 87.8994 190.043 80.765C193.989 71.2539 198.03 59.9648 196.873 60.8674C194.514 62.7043 185.474 79.69 184.497 82.1211C181.134 90.4847 180.199 96.5805 179.62 102.463C179.638 97.4967 179.656 92.9339 179.675 89.4143C179.733 77.9348 179.928 74.2292 180.023 73.0862C180.389 72.5057 180.818 71.8299 181.071 71.4625C183.196 68.3828 184.014 65.7567 186.016 61.1622C188.85 54.6491 191.295 43.088 190.581 43.673C187.607 46.0996 185.266 51.32 182.183 57.9737C179.101 64.6229 179.982 68.4509 179.372 74.1294C179.245 75.2452 179.146 79.4496 179.073 85.2824C178.273 79.0687 176.777 74.9776 174.043 71.2584C170.68 66.682 167.425 63.5933 165.039 61.9786C162.652 60.3639 169.161 71.6031 172.275 76.5106C175.046 80.8783 177.6 84.7336 179.042 88.5299C178.965 96.4308 178.929 106.436 178.929 115.752C178.215 111.512 177.048 106.949 175.494 103.416C173.622 99.1703 170.748 92.6572 168.46 90.4439C167.909 89.9132 170.856 102.581 172.745 105.951C174.635 109.321 176.022 112.496 177.211 114.405C177.487 114.85 178.409 116.569 178.933 117.558C178.938 128.928 178.997 138.961 179.096 142.376H179.584C179.553 141.496 179.543 135.709 179.557 128.053C180.737 123.898 183.431 119.154 185.659 114.827C188.082 110.097 194.292 97.4241 191.924 99.3653Z" fill="#E0E0E0"/>
<path d="M186.423 149.338H172.257L171.186 135.405H187.494L186.423 149.338Z" fill="#F0F0F0"/>
<path d="M188.547 137.029H170.133L169.604 132.325H189.076L188.547 137.029Z" fill="#F5F5F5"/>
<path d="M56.1655 9.31607H30.8309V37.2325H56.1655V9.31607Z" fill="#E0E0E0"/>
<path d="M58.9092 9.31607H32.7384V37.2325H58.9092V9.31607Z" fill="#F5F5F5"/>
<path d="M56.7175 35.0363L56.7175 11.5193L34.9311 11.5193V35.0363H56.7175Z" fill="white"/>
<path d="M51.4381 29.3305V17.216L40.215 17.216V29.3305H51.4381Z" fill="#F5F5F5"/>
<path d="M185.343 12.5726H161.807V38.507H185.343V12.5726Z" fill="#E0E0E0"/>
<path d="M187.892 12.5726H163.583V38.507H187.892V12.5726Z" fill="#F5F5F5"/>
<path d="M185.856 36.466V14.6181L165.62 14.6181V36.466H185.856Z" fill="white"/>
<path d="M175.738 31.876C179.225 31.876 182.052 29.0392 182.052 25.5398C182.052 22.0404 179.225 19.2036 175.738 19.2036C172.25 19.2036 169.423 22.0404 169.423 25.5398C169.423 29.0392 172.25 31.876 175.738 31.876Z" fill="#F5F5F5"/>
<path d="M82.4854 25.9616H63.6913V46.6711H82.4854V25.9616Z" fill="#E0E0E0"/>
<path d="M84.5195 25.9616H65.1061V46.6711H84.5195V25.9616Z" fill="#F5F5F5"/>
<path d="M82.8932 45.0405V27.5966L66.7342 27.5966V45.0405H82.8932Z" fill="white"/>
<path d="M74.815 31.9078L70.3944 39.591H79.2355L74.815 31.9078Z" fill="#F5F5F5"/>
<path d="M113 169C161.401 169 200.638 166.701 200.638 163.866C200.638 161.03 161.401 158.731 113 158.731C64.5987 158.731 25.3617 161.03 25.3617 163.866C25.3617 166.701 64.5987 169 113 169Z" fill="#F5F5F5"/>
<path d="M157.861 49.2019L153.377 47.3786C153.377 47.3786 147.461 58.205 145.766 58.7538C143.46 59.4977 138.692 61.5659 135.858 61.9514C135.474 62.4004 134.845 63.811 134.904 64.328C138.705 65.598 147.058 63.9108 148.848 62.5773C152.921 59.5385 157.861 49.2019 157.861 49.2019Z" fill="#E58A7B"/>
<path d="M159.24 46.7436C160.076 49.8459 155.547 56.0778 155.547 56.0778L149.599 52.7306C149.599 52.7306 150.706 50.168 152.066 47.56C154.254 43.3465 158.286 43.2059 159.24 46.7436Z" fill="#00BB4B"/>
<path opacity="0.2" d="M159.24 46.7436C160.076 49.8459 155.547 56.0778 155.547 56.0778L149.599 52.7306C149.599 52.7306 150.706 50.168 152.066 47.56C154.254 43.3465 158.286 43.2059 159.24 46.7436Z" fill="black"/>
<path opacity="0.2" d="M151.967 54.064L154.304 55.3793L154.711 48.1814C153.355 49.2291 152.396 52.3859 151.967 54.064Z" fill="black"/>
<path d="M155.334 44.4078C155.334 44.4078 150.715 54.7217 153.409 73.9253C158.892 73.9253 168.944 73.9253 171.611 73.9253C171.9 71.1223 170.942 57.443 174.409 44.2354C174.409 44.2354 171.326 43.605 168.361 43.4644C166.042 43.351 162.679 43.2784 160.623 43.4644C157.915 43.7048 155.334 44.4078 155.334 44.4078Z" fill="#00BB4B"/>
<path opacity="0.2" d="M155.334 44.4078C155.334 44.4078 150.715 54.7217 153.409 73.9253C158.892 73.9253 168.944 73.9253 171.611 73.9253C171.9 71.1223 170.942 57.443 174.409 44.2354C174.409 44.2354 171.326 43.605 168.361 43.4644C166.042 43.351 162.679 43.2784 160.623 43.4644C157.915 43.7048 155.334 44.4078 155.334 44.4078Z" fill="black"/>
<path d="M151.113 164.274C151.086 164.759 157.988 165.154 166.526 165.154C175.064 165.154 182.016 164.759 182.043 164.274C182.07 163.789 175.173 163.394 166.63 163.394C158.092 163.389 151.144 163.789 151.113 164.274Z" fill="#E8ECF1"/>
<path d="M163.69 152.037L160.451 153.289L163.228 160.522L166.467 159.27L163.69 152.037Z" fill="#E58A7B"/>
<path d="M177.659 160.786H174.255L173.008 152.881H176.411L177.659 160.786Z" fill="#E58A7B"/>
<path d="M174.038 160.391H177.862C178.002 160.391 178.115 160.487 178.138 160.623L178.631 163.657C178.68 163.97 178.418 164.269 178.097 164.265C176.764 164.242 176.122 164.165 174.44 164.165C173.405 164.165 171.267 164.274 169.839 164.274C168.442 164.274 168.307 162.859 168.899 162.727C171.557 162.151 172.587 161.358 173.473 160.6C173.631 160.464 173.835 160.391 174.038 160.391Z" fill="#263238"/>
<path d="M162.706 159.194L166.332 158.137C166.467 158.097 166.607 158.155 166.666 158.278L168.008 160.999C168.149 161.28 167.981 161.634 167.669 161.72C166.359 162.079 165.473 162.306 163.827 162.786C162.693 163.117 161.536 163.657 160.415 164.015C159.637 164.265 157.811 164.274 156.867 164.274C155.47 164.274 155.158 162.795 155.755 162.727C157.269 162.555 157.472 162.637 158.309 162.215C159.692 161.516 160.763 160.94 161.961 159.684C162.178 159.466 162.422 159.28 162.706 159.194Z" fill="#263238"/>
<path d="M136.427 61.9196L132.685 60.3367L131.143 64.5004C131.143 64.5004 133.304 64.895 135.772 64.5004L136.427 61.9196Z" fill="#E58A7B"/>
<path d="M129.9 60.2369L129.801 63.0036L131.143 64.5004L132.685 60.3367L129.9 60.2369Z" fill="#E58A7B"/>
<path d="M163.699 152.028L160.46 153.283L161.894 157.01L165.133 155.756L163.699 152.028Z" fill="#CF6F64"/>
<path d="M176.411 152.881H173.008L173.654 156.958H177.057L176.411 152.881Z" fill="#CF6F64"/>
<path opacity="0.2" d="M152.83 68.7275C152.894 69.5485 152.975 70.3876 153.07 71.2493L166.603 66.8407C168.718 66.2058 170.553 64.8723 171.81 63.0535C171.86 61.8425 171.932 60.568 172.031 59.2391C172.077 58.5905 172.135 57.9283 172.194 57.2571C172.257 56.5586 172.334 55.8465 172.416 55.1254L152.83 68.7275Z" fill="black"/>
<path d="M157.251 53.8554L156.79 53.801C157.056 51.5377 158.742 49.7507 160.519 49.7915L160.505 50.2587C158.973 50.2088 157.49 51.8235 157.251 53.8554Z" fill="white"/>
<path d="M159.66 58.0417C159.633 58.0417 159.61 58.0417 159.583 58.0417L159.597 57.5746C161.152 57.6335 162.612 56.0053 162.851 53.9779L163.312 54.0323C163.05 56.2638 161.418 58.0417 159.66 58.0417Z" fill="white"/>
<path d="M168.108 34.7153C167.475 37.2144 166.72 41.7908 168.366 43.4599C168.366 43.4599 167.218 45.9952 162.589 45.9952C158.363 45.9952 160.627 43.4599 160.627 43.4599C163.443 42.7931 163.493 40.7294 163.122 38.7882L168.108 34.7153Z" fill="#E58A7B"/>
<path d="M166.074 36.3798L163.122 38.7882C163.213 39.2463 163.276 39.7135 163.281 40.167C164.144 41.0288 165.875 38.8472 166.051 37.7314C166.142 37.169 166.151 36.6384 166.074 36.3798Z" fill="#CF6F64"/>
<path d="M158.046 34.6881C158.48 35.4637 159.244 35.949 159.963 36.1122C161.048 36.3526 161.595 35.3548 161.296 34.3434C161.025 33.4362 160.139 32.2162 159.045 32.4248C157.974 32.6289 157.554 33.7991 158.046 34.6881Z" fill="#CF6F64"/>
<path d="M159.841 26.6918C158.15 27.4674 157.554 34.2073 159.678 35.2051C161.803 36.1984 163.041 25.2178 159.841 26.6918Z" fill="#263238"/>
<path d="M168.623 30.9598C168.216 34.3434 168.153 36.3345 166.35 38.0671C163.638 40.6796 159.565 39.1284 158.959 35.7539C158.413 32.7151 159.167 27.6942 162.544 26.3471C165.871 25.0182 169.026 27.5763 168.623 30.9598Z" fill="#E58A7B"/>
<path d="M163.068 28.4426C165.568 27.7985 167.407 27.3631 166.752 29.4585C165.875 32.2479 164.826 34.9511 166.237 35.0781C167.091 35.1552 170.892 33.536 170.409 31.9032C169.988 30.479 171.755 30.0935 172.081 29.3678C173.252 26.7508 169.902 27.091 170.499 25.5081C171.077 23.966 167.8 21.3625 165.983 22.637C163.041 24.6962 157.992 24.669 160.645 21.29C162.548 18.8725 159.154 19.3669 159.154 19.3669C159.154 19.3669 161.206 20.587 157.753 22.4738C154.096 24.474 157.445 29.8894 163.068 28.4426Z" fill="#263238"/>
<path d="M169.929 34.6881C169.405 35.4637 168.587 35.949 167.846 36.1122C166.734 36.3526 166.304 35.3548 166.72 34.3434C167.095 33.4362 168.126 32.2162 169.193 32.4248C170.241 32.6289 170.526 33.7991 169.929 34.6881Z" fill="#E58A7B"/>
<path d="M153.409 73.9253C153.409 73.9253 150.353 101.366 150.114 111.779C149.865 122.61 160.469 156.405 160.469 156.405L165.898 154.119C165.898 154.119 159.579 123.245 160.456 112.605C161.414 101.007 165.373 73.9253 165.373 73.9253H153.409Z" fill="#00BB4B"/>
<path opacity="0.2" d="M161.002 81.4589C158.571 86.5297 160.207 96.5533 161.527 102.499C162.028 98.304 162.625 93.7503 163.19 89.5368C163.136 83.0554 162.634 78.0572 161.002 81.4589Z" fill="black"/>
<path d="M165.653 152.336C165.681 152.327 166.295 154.073 166.295 154.073L160.04 156.709L159.054 154.867L165.653 152.336Z" fill="#00BB4B"/>
<path d="M159.868 73.9253C159.868 73.9253 162.205 100.023 163.755 109.797C165.45 120.506 172.117 156.169 172.117 156.169H178.35C178.35 156.169 174.617 121.372 173.912 110.768C173.148 99.261 171.62 73.9253 171.62 73.9253H159.868Z" fill="#00BB4B"/>
<path d="M178.441 154.536C178.468 154.536 178.648 156.282 178.648 156.282H171.796L171.308 154.278L178.441 154.536Z" fill="#00BB4B"/>
<path opacity="0.2" d="M176.054 152.472C176.022 152.472 176 152.45 175.995 152.422C175.959 152.105 172.592 120.687 171.959 111.167C171.272 100.83 169.889 77.9166 169.875 77.6853C169.875 77.6535 169.898 77.6263 169.929 77.6218H169.934C169.966 77.6218 169.988 77.6445 169.993 77.6762C170.006 77.9075 171.389 100.821 172.076 111.158C172.709 120.678 176.077 152.096 176.113 152.409C176.117 152.441 176.095 152.468 176.063 152.472C176.059 152.472 176.054 152.472 176.054 152.472Z" fill="black"/>
<path d="M163.452 31.9032C163.434 32.1799 163.276 32.4021 163.1 32.4021C162.919 32.4021 162.788 32.1799 162.806 31.9032C162.824 31.6266 162.982 31.4043 163.158 31.4043C163.339 31.4043 163.47 31.6266 163.452 31.9032Z" fill="#263238"/>
<path d="M160.352 31.9032C160.334 32.1799 160.175 32.4021 159.999 32.4021C159.823 32.4021 159.687 32.1799 159.705 31.9032C159.723 31.6266 159.882 31.4043 160.058 31.4043C160.234 31.4043 160.37 31.6266 160.352 31.9032Z" fill="#263238"/>
<path d="M161.328 32.0393C161.328 32.0393 160.609 33.6267 159.877 34.3933C160.338 34.8468 161.174 34.6382 161.174 34.6382L161.328 32.0393Z" fill="#DF5753"/>
<path d="M161.409 35.7993C161.364 35.7993 161.332 35.763 161.332 35.7176C161.337 35.6723 161.373 35.636 161.418 35.636C162.625 35.636 163.235 34.7924 163.24 34.7833C163.267 34.747 163.317 34.7334 163.353 34.7606C163.389 34.7833 163.398 34.8332 163.371 34.874C163.344 34.9103 162.702 35.7993 161.409 35.7993Z" fill="#263238"/>
<path d="M164.004 31.0641C163.959 31.0823 163.904 31.0777 163.864 31.0505C163.272 30.6741 162.716 30.9281 162.711 30.9281C162.634 30.9689 162.535 30.9326 162.499 30.851C162.467 30.7693 162.503 30.6741 162.589 30.6333C162.616 30.6197 163.312 30.3022 164.044 30.7693C164.117 30.8147 164.135 30.9145 164.085 30.9916C164.067 31.0324 164.04 31.0551 164.004 31.0641Z" fill="#263238"/>
<path d="M159.154 30.1616C159.131 30.157 159.109 30.1434 159.09 30.1253C159.027 30.0663 159.027 29.962 159.09 29.8985C159.723 29.2318 160.451 29.3316 160.483 29.3361C160.568 29.3452 160.627 29.4313 160.609 29.522C160.591 29.6082 160.505 29.6717 160.419 29.6581C160.397 29.6536 159.823 29.581 159.321 30.1162C159.276 30.1616 159.208 30.1752 159.154 30.1616Z" fill="#263238"/>
<path d="M176.158 48.6939L171.457 47.4375C171.457 47.4375 166.847 58.8264 165.22 59.5702C163.005 60.5816 157.391 64.0831 155.009 65.7703C154.878 66.3328 154.982 67.8386 155.28 68.2468C159.335 67.5075 167.136 64.4958 168.763 62.9674C172.47 59.484 176.158 48.6939 176.158 48.6939Z" fill="#E58A7B"/>
<path d="M172.876 160.986C172.619 160.986 172.379 160.94 172.23 160.813C172.113 160.709 172.067 160.568 172.09 160.387C172.108 160.251 172.18 160.187 172.239 160.16C172.623 159.965 173.686 160.641 173.803 160.723C173.83 160.741 173.844 160.772 173.835 160.804C173.826 160.836 173.803 160.863 173.771 160.868C173.536 160.922 173.193 160.986 172.876 160.986ZM172.411 160.283C172.37 160.283 172.334 160.287 172.307 160.301C172.284 160.314 172.257 160.333 172.253 160.396C172.239 160.523 172.266 160.623 172.343 160.691C172.519 160.85 172.962 160.868 173.545 160.754C173.175 160.528 172.673 160.283 172.411 160.283Z" fill="#00BB4B"/>
<path d="M173.753 160.868C173.74 160.868 173.726 160.863 173.717 160.859C173.378 160.668 172.741 159.92 172.831 159.539C172.849 159.471 172.904 159.348 173.103 159.326C173.229 159.312 173.342 159.344 173.442 159.43C173.817 159.752 173.844 160.741 173.844 160.782C173.844 160.813 173.83 160.841 173.803 160.854C173.785 160.863 173.771 160.868 173.753 160.868ZM173.148 159.484C173.134 159.484 173.125 159.484 173.112 159.489C173.008 159.503 172.994 159.552 172.99 159.571C172.935 159.797 173.333 160.36 173.668 160.627C173.645 160.337 173.568 159.766 173.329 159.557C173.274 159.507 173.216 159.484 173.148 159.484Z" fill="#00BB4B"/>
<path d="M160.876 160.423C160.541 160.505 160.225 160.528 160.022 160.419C159.89 160.351 159.818 160.233 159.8 160.074C159.791 159.979 159.823 159.897 159.89 159.834C160.257 159.507 161.73 159.856 161.897 159.897C161.929 159.906 161.952 159.933 161.956 159.97C161.956 160.006 161.938 160.038 161.906 160.051C161.631 160.174 161.242 160.333 160.876 160.423ZM160.139 159.884C160.076 159.897 160.031 159.92 159.994 159.947C159.967 159.974 159.954 160.001 159.958 160.042C159.972 160.151 160.017 160.224 160.103 160.274C160.342 160.405 160.898 160.301 161.617 160.001C161.115 159.897 160.455 159.806 160.139 159.884Z" fill="#00BB4B"/>
<path d="M161.893 160.056C161.884 160.06 161.87 160.06 161.861 160.056C161.423 159.974 160.487 159.453 160.478 159.063C160.478 158.972 160.519 158.845 160.731 158.772C160.885 158.713 161.048 158.727 161.197 158.799C161.69 159.044 161.943 159.915 161.956 159.952C161.965 159.979 161.956 160.01 161.938 160.029C161.925 160.042 161.906 160.051 161.893 160.056ZM160.822 158.908C160.808 158.913 160.79 158.917 160.776 158.922C160.636 158.972 160.636 159.031 160.636 159.049C160.641 159.285 161.292 159.716 161.748 159.861C161.658 159.611 161.436 159.103 161.115 158.945C161.021 158.895 160.921 158.886 160.822 158.908Z" fill="#00BB4B"/>
<path d="M155.389 65.5028L150.674 67.6798L150.127 69.0133L151.868 70.188C151.868 70.188 155.117 69.8342 156.044 67.7388L155.389 65.5028Z" fill="#E58A7B"/>
<path d="M155.587 68.3239C155.294 66.5686 154.715 65.7658 154.711 65.7567L155.452 65.1989C155.479 65.2352 156.166 66.1649 156.5 68.1697L155.587 68.3239Z" fill="#263238"/>
<path d="M156.392 66.1468C156.546 66.5278 156.297 66.9859 155.845 67.1673C155.389 67.3532 154.896 67.1945 154.742 66.8135C154.589 66.4325 154.837 65.9744 155.289 65.793C155.746 65.6071 156.238 65.7658 156.392 66.1468Z" fill="#263238"/>
<path d="M147.488 69.4396L148.116 70.0746L152.347 68.2604L150.674 67.6798L147.488 69.4396Z" fill="#E58A7B"/>
<path opacity="0.2" d="M165.653 152.336C165.681 152.327 166.295 154.073 166.295 154.073L160.04 156.709L159.054 154.867L165.653 152.336Z" fill="black"/>
<path opacity="0.2" d="M178.441 154.536C178.468 154.536 178.648 156.282 178.648 156.282H171.796L171.308 154.278L178.441 154.536Z" fill="black"/>
<path d="M177.383 47.3922C178.626 51.4153 173.785 56.9078 173.785 56.9078L167.073 54.1593C167.073 54.1593 168.017 51.2384 169.816 47.3242C171.864 42.8703 176.126 43.3329 177.383 47.3922Z" fill="#00BB4B"/>
<path opacity="0.2" d="M177.383 47.3922C178.626 51.4153 173.785 56.9078 173.785 56.9078L167.073 54.1593C167.073 54.1593 168.017 51.2384 169.816 47.3242C171.864 42.8703 176.126 43.3329 177.383 47.3922Z" fill="black"/>
<path d="M110.686 7.08456H107.797V7.55173H110.686V7.08456Z" fill="#00BB4B"/>
<path d="M148.076 25.5682L147.727 33.3526L148.192 33.3736L148.541 25.5893L148.076 25.5682Z" fill="#00BB4B"/>
<path d="M147.176 9.17999H93.8398L88.8768 120.628H142.213L147.176 9.17999Z" fill="#00BB4B"/>
<path opacity="0.56" d="M145.585 10.7085H92.2487L87.2858 122.157H140.622L145.585 10.7085Z" fill="#FAFAFA"/>
<path opacity="0.07" d="M143.994 12.237H90.6577L85.6902 123.685H139.026L143.994 12.237Z" fill="#00BB4B"/>
<path d="M137.923 60.8447H92.3979L92.0182 69.3761H137.544L137.923 60.8447Z" fill="white"/>
<path d="M117.434 54.6264H92.6736L92.5063 58.4408H117.267L117.434 54.6264Z" fill="#00BB4B"/>
<path d="M136.897 83.8628H91.3719L90.9922 92.3896H136.518L136.897 83.8628Z" fill="white"/>
<path opacity="0.47" d="M128.549 103.901H97.9349L97.4784 114.124H128.092L128.549 103.901Z" fill="#00BB4B"/>
<path d="M126.501 115.707H95.8872C95.8737 115.707 95.8601 115.703 95.8466 115.689C95.8375 115.68 95.833 115.662 95.833 115.648L96.2895 105.425C96.2895 105.398 96.3166 105.375 96.3438 105.375H126.958C126.971 105.375 126.985 105.38 126.998 105.393C127.007 105.402 127.012 105.42 127.012 105.434L126.555 115.657C126.551 115.684 126.528 115.707 126.501 115.707ZM95.9415 115.603H126.447L126.899 105.488H96.3935L95.9415 115.603Z" fill="white"/>
<path d="M112.087 77.64H91.6476L91.4803 81.4544H111.915L112.087 77.64Z" fill="#00BB4B"/>
<path d="M127.966 33.3047C127.853 35.8582 126.931 38.2167 125.453 40.1307C123.22 43.0335 119.721 44.9203 115.87 44.9203C112.019 44.9203 108.692 43.0335 106.722 40.1307C105.415 38.2167 104.701 35.8582 104.814 33.3047C105.099 26.8869 110.514 21.6846 116.905 21.6846C123.297 21.6846 128.25 26.8869 127.966 33.3047Z" fill="white"/>
<path d="M129.055 24.1156C129.023 24.796 128.779 25.4219 128.386 25.9299C127.794 26.7009 126.863 27.2044 125.841 27.2044C124.82 27.2044 123.934 26.7009 123.41 25.9299C123.062 25.4219 122.872 24.796 122.903 24.1156C122.98 22.4103 124.418 21.0269 126.117 21.0269C127.812 21.0269 129.127 22.4103 129.055 24.1156Z" fill="#00BB4B"/>
<path d="M97.3021 65.1127C97.2705 65.8656 96.6331 66.4779 95.8783 66.4779C95.128 66.4779 94.5449 65.8656 94.5765 65.1127C94.6082 64.3598 95.2455 63.7475 96.0003 63.7475C96.7507 63.743 97.3337 64.3553 97.3021 65.1127Z" fill="#263238"/>
<path d="M103.395 65.1127C103.363 65.8656 102.726 66.4779 101.971 66.4779C101.221 66.4779 100.638 65.8656 100.669 65.1127C100.701 64.3598 101.338 63.7475 102.093 63.7475C102.848 63.7475 103.431 64.3553 103.395 65.1127Z" fill="#263238"/>
<path d="M109.493 65.1127C109.461 65.8656 108.824 66.4779 108.069 66.4779C107.318 66.4779 106.735 65.8656 106.767 65.1127C106.799 64.3598 107.436 63.7475 108.191 63.7475C108.946 63.743 109.524 64.3553 109.493 65.1127Z" fill="#263238"/>
<path d="M96.276 88.1262C96.2443 88.8791 95.607 89.4914 94.8522 89.4914C94.1019 89.4914 93.5188 88.8791 93.5504 88.1262C93.5821 87.3733 94.2194 86.761 94.9742 86.761C95.7245 86.761 96.3076 87.3733 96.276 88.1262Z" fill="#263238"/>
<path d="M102.369 88.1262C102.337 88.8791 101.7 89.4914 100.945 89.4914C100.195 89.4914 99.6118 88.8791 99.6434 88.1262C99.6751 87.3733 100.312 86.761 101.067 86.761C101.822 86.761 102.405 87.3733 102.369 88.1262Z" fill="#263238"/>
<path d="M108.467 88.1262C108.435 88.8791 107.798 89.4914 107.043 89.4914C106.292 89.4914 105.709 88.8791 105.741 88.1262C105.773 87.3733 106.41 86.761 107.165 86.761C107.92 86.761 108.503 87.3733 108.467 88.1262Z" fill="#263238"/>
<path d="M114.564 88.1262C114.532 88.8791 113.895 89.4914 113.14 89.4914C112.39 89.4914 111.807 88.8791 111.838 88.1262C111.87 87.3733 112.507 86.761 113.262 86.761C114.013 86.761 114.596 87.3733 114.564 88.1262Z" fill="#263238"/>
<path d="M120.661 88.1262C120.63 88.8791 119.993 89.4914 119.238 89.4914C118.487 89.4914 117.904 88.8791 117.936 88.1262C117.968 87.3733 118.605 86.761 119.36 86.761C120.11 86.761 120.693 87.3733 120.661 88.1262Z" fill="#263238"/>
<path d="M119.755 32.7047C121.647 30.8485 121.748 27.8729 119.98 26.0586C118.212 24.2443 115.245 24.2783 113.353 26.1345C111.461 27.9908 111.361 30.9664 113.129 32.7807C114.896 34.595 117.863 34.561 119.755 32.7047Z" fill="#00BB4B"/>
<path d="M125.448 40.1308C123.215 43.0335 119.717 44.9203 115.866 44.9203C112.015 44.9203 108.688 43.0335 106.717 40.1308C108.914 37.9355 112.39 36.5114 116.241 36.5114C120.096 36.5114 123.446 37.9355 125.448 40.1308Z" fill="#00BB4B"/>
<path opacity="0.1" d="M119.755 32.7047C121.647 30.8485 121.748 27.8729 119.98 26.0586C118.212 24.2443 115.245 24.2783 113.353 26.1345C111.461 27.9908 111.361 30.9664 113.129 32.7807C114.896 34.595 117.863 34.561 119.755 32.7047Z" fill="white"/>
<path opacity="0.1" d="M125.448 40.1308C123.215 43.0335 119.717 44.9203 115.866 44.9203C112.015 44.9203 108.688 43.0335 106.717 40.1308C108.914 37.9355 112.39 36.5114 116.241 36.5114C120.096 36.5114 123.446 37.9355 125.448 40.1308Z" fill="white"/>
<path d="M58.9454 71.4307C58.516 72.3741 58.0685 73.4083 57.6707 74.4197C57.273 75.4402 56.8752 76.4607 56.5272 77.4993C55.8537 79.5721 55.2209 81.663 54.9135 83.7584L54.8096 84.4252C54.8005 84.5068 54.8096 84.6202 54.8412 84.7653C54.909 85.0556 55.0853 85.4411 55.3384 85.8176C55.8492 86.5841 56.5679 87.3597 57.3453 88.0763C58.1227 88.8065 58.9635 89.505 59.8403 90.1717C60.7082 90.843 61.6212 91.4961 62.5162 92.1084L61.6755 93.7004C59.5239 92.757 57.5216 91.6277 55.5825 90.2126C54.6288 89.4823 53.6886 88.6977 52.8524 87.6364C52.4411 87.1012 52.0388 86.4979 51.7721 85.6997C51.6456 85.3005 51.5552 84.8515 51.5552 84.3662C51.5597 84.2528 51.5642 84.0986 51.5733 84.0215L51.5959 83.7947L51.6411 83.3457C51.8851 80.9418 52.4185 78.6287 53.1191 76.3881C53.4717 75.2678 53.8468 74.1612 54.2762 73.0726C54.7147 71.9795 55.1486 70.9273 55.6955 69.8251L58.9454 71.4307Z" fill="#E58A7B"/>
<path d="M61.8833 91.8363L65.079 90.2126L64.2518 93.7367C64.2518 93.7367 62.0596 94.3535 61.0381 93.2831L61.8833 91.8363Z" fill="#E58A7B"/>
<path d="M68.0034 90.7886L67.1537 93.7004L64.2518 93.7322L65.079 90.208L68.0034 90.7886Z" fill="#E58A7B"/>
<path d="M72.5144 54.4496C72.5144 54.4496 72.7901 55.4701 73.2286 56.2411C72.8489 56.5949 72.5144 56.4724 72.5144 56.4724V54.4496Z" fill="#DF5753"/>
<path d="M72.4196 54.4768C72.6068 54.4768 72.7586 54.2432 72.7586 53.9552C72.7586 53.6671 72.6068 53.4336 72.4196 53.4336C72.2323 53.4336 72.0806 53.6671 72.0806 53.9552C72.0806 54.2432 72.2323 54.4768 72.4196 54.4768Z" fill="#263238"/>
<path d="M72.3381 53.4517L73.0252 53.2522C73.0252 53.2522 72.6726 53.7919 72.3381 53.4517Z" fill="#263238"/>
<path d="M63.6869 57.7741C64.0982 59.8877 64.5095 63.7566 63.0405 65.1626C63.0405 65.1626 63.6146 67.3034 67.5244 67.3034C71.8229 67.3034 69.581 65.1626 69.581 65.1626C67.2351 64.6002 67.2938 62.854 67.7052 61.2121L63.6869 57.7741Z" fill="#E58A7B"/>
<path d="M62.5433 52.971C62.7602 56.4951 62.7738 57.9918 64.5502 59.8015C67.217 62.5229 71.4884 61.4842 72.3246 57.9692C73.0794 54.8033 72.6003 49.5693 69.1606 48.1678C65.7751 46.7844 62.3308 49.4468 62.5433 52.971Z" fill="#E58A7B"/>
<path d="M62.8913 48.9842C61.1285 49.6282 58.7781 49.1475 59.7002 54.6038C60.6765 60.3821 59.1759 62.2825 59.1759 62.2825C59.1759 62.2825 65.861 63.7112 72.6862 62.1963C72.6862 62.1963 70.6025 58.5407 71.1855 55.8737C71.9313 52.4721 71.3392 51.2112 71.3392 51.2112C71.3392 51.2112 65.3683 48.0771 62.8913 48.9842Z" fill="#263238"/>
<path d="M70.3494 54.8079C70.3403 55.5063 70.5844 56.2094 70.9008 56.6992C71.3754 57.434 71.9404 57.1346 72.085 56.3726C72.2116 55.6878 72.1167 54.4768 71.5065 54.0051C70.9098 53.5424 70.3584 54.0096 70.3494 54.8079Z" fill="#E58A7B"/>
<path d="M61.3591 49.601C60.8528 48.1769 63.2665 45.9816 68.3741 46.8933C73.4817 47.8049 73.7032 52.0684 73.7032 52.0684L72.6681 50.8392L72.7133 52.1364L67.4656 53.1479L61.3591 49.601Z" fill="#263238"/>
<path d="M61.7929 65.403C61.7206 64.9676 62.0144 64.5548 62.4483 64.4868C64.0394 64.2237 67.6508 63.6885 69.4724 63.9425C70.8239 64.1285 71.1809 64.9222 71.2397 65.5708C71.2804 66.0516 70.8871 66.4552 70.408 66.4326L62.5478 66.0742C62.1681 66.0606 61.8562 65.7794 61.7929 65.403Z" fill="#00BB4B"/>
<path opacity="0.6" d="M61.7929 65.403C61.7206 64.9676 62.0144 64.5548 62.4483 64.4868C64.0394 64.2237 67.6508 63.6885 69.4724 63.9425C70.8239 64.1285 71.1809 64.9222 71.2397 65.5708C71.2804 66.0516 70.8871 66.4552 70.408 66.4326L62.5478 66.0742C62.1681 66.0606 61.8562 65.7794 61.7929 65.403Z" fill="black"/>
<path d="M66.3356 144.644L69.251 146.671L74.1281 140.04L71.2127 138.008L66.3356 144.644Z" fill="#E58A7B"/>
<path d="M59.5375 144.508L62.6156 146.272L66.9322 139.256L63.8541 137.496L59.5375 144.508Z" fill="#E58A7B"/>
<path d="M74.1236 140.04L71.6105 143.46L68.6951 141.428L71.2127 138.008L74.1236 140.04Z" fill="#CF6F64"/>
<path d="M63.8496 137.496L66.9322 139.256L64.7084 142.871L61.6257 141.111L63.8496 137.496Z" fill="#CF6F64"/>
<path d="M68.7945 87.5547C68.7945 87.5547 80.1758 101.951 78.0424 115.712C76.3158 126.828 66.3311 141.882 66.3311 141.882L61.6348 139.541C61.6348 139.541 66.7379 129.536 70.0872 118.932C71.4929 114.482 70.8917 109.584 68.2656 105.733C62.4981 97.2835 53.2638 102.309 59.4787 87.5547H68.7945Z" fill="#00BB4B"/>
<path opacity="0.6" d="M68.7945 87.5547C68.7945 87.5547 80.1758 101.951 78.0424 115.712C76.3158 126.828 66.3311 141.882 66.3311 141.882L61.6348 139.541C61.6348 139.541 66.7379 129.536 70.0872 118.932C71.4929 114.482 70.8917 109.584 68.2656 105.733C62.4981 97.2835 53.2638 102.309 59.4787 87.5547H68.7945Z" fill="black"/>
<path opacity="0.4" d="M74.3766 96.8027L72.7223 95.1518C72.7223 95.2833 75.927 115.131 76.8265 120.71C77.3689 119 77.7892 117.313 78.0378 115.707C79.0865 108.972 76.8897 102.078 74.3766 96.8027Z" fill="black"/>
<path d="M73.8749 87.5547C73.8749 87.5547 87.5795 105.643 87.9637 116.487C88.2847 125.576 73.0342 143.134 73.0342 143.134L68.6046 140.258C68.6046 140.258 77.5225 127.776 79.769 117.576C78.9147 107.479 60.5409 87.5547 60.5409 87.5547H73.8749Z" fill="#00BB4B"/>
<path opacity="0.6" d="M73.8749 87.5547C73.8749 87.5547 87.5795 105.643 87.9637 116.487C88.2847 125.576 73.0342 143.134 73.0342 143.134L68.6046 140.258C68.6046 140.258 77.5225 127.776 79.769 117.576C78.9147 107.479 60.5409 87.5547 60.5409 87.5547H73.8749Z" fill="black"/>
<path d="M56.9204 65.9745C55.4514 66.3237 54.0502 71.6666 54.0502 71.6666L59.7725 75.4991C59.7725 75.4991 61.6799 71.272 61.0155 69.4215C60.3239 67.4984 58.7736 65.5345 56.9204 65.9745Z" fill="#00BB4B"/>
<path opacity="0.2" d="M58.0414 69.4124L57.6437 74.0704L59.7726 75.5037C59.7726 75.5037 60.7715 73.2903 61.0698 71.3582L58.0414 69.4124Z" fill="black"/>
<path d="M75.5699 66.0742C75.5699 66.0742 77.2604 66.6729 73.8749 87.5502C68.1617 87.5502 62.254 87.5502 59.4742 87.5502C59.7138 81.6675 59.7228 78.0436 56.9204 65.9699C56.9204 65.9699 59.9398 65.3123 63.036 65.1626C65.4587 65.0447 67.443 64.9676 69.5764 65.1626C72.3878 65.4211 75.5699 66.0742 75.5699 66.0742Z" fill="#00BB4B"/>
<path d="M77.0344 69.3897C77.3599 70.2968 77.7079 71.272 78.065 72.2154C78.4085 73.1679 78.7701 74.1203 79.1362 75.0683L80.2436 77.9166L80.5239 78.6287L80.664 78.9825L80.7363 79.1593C80.7499 79.1911 80.7454 79.1866 80.7408 79.1866C80.7228 79.1775 80.7047 79.0868 80.4244 78.9054C80.2888 78.8192 80.0583 78.7375 79.8323 78.733C79.6108 78.7239 79.43 78.7784 79.3306 78.8237C79.1272 78.9235 79.1227 78.9643 79.1272 78.9553C79.1408 78.9507 79.1814 78.9099 79.2266 78.8509C79.4255 78.6151 79.6606 78.2023 79.873 77.7941C80.0854 77.3769 80.2888 76.9324 80.4922 76.4834C80.89 75.5808 81.2561 74.6374 81.6268 73.6894C81.9929 72.7415 82.3364 71.78 82.6799 70.8139L83.7105 67.9202L85.4507 68.3601C85.1072 70.4329 84.6597 72.4603 84.1308 74.4922C83.8732 75.5128 83.5704 76.5242 83.2268 77.5447C83.0551 78.0572 82.8652 78.5652 82.6438 79.0868C82.4132 79.6129 82.1872 80.1254 81.785 80.7287C81.681 80.8829 81.559 81.0416 81.3917 81.2185C81.2154 81.3909 81.0075 81.604 80.5691 81.8036C80.3476 81.8988 80.0448 81.9805 79.6922 81.9669C79.3396 81.9578 78.9871 81.8308 78.7385 81.6766C78.2368 81.3546 78.065 81.0507 77.9158 80.8194C77.848 80.706 77.7893 80.5835 77.7486 80.5019L77.6627 80.325L77.491 79.9712L77.1474 79.2682C76.7 78.3248 76.2615 77.3769 75.8502 76.4153C75.4389 75.4538 75.0411 74.4877 74.6524 73.5126C74.2818 72.5238 73.9157 71.5668 73.5857 70.5145L77.0344 69.3897Z" fill="#E58A7B"/>
<path d="M75.57 66.0742C77.3011 66.487 79.2448 71.6212 79.2448 71.6212L74.101 76.0208C74.101 76.0208 70.7652 70.4238 71.4432 68.5779C72.1438 66.6548 73.31 65.5345 75.57 66.0742Z" fill="#00BB4B"/>
<path d="M84.5151 66.3282L86.3185 64.8134L87.5751 66.7773L86.6485 68.4191C86.6485 68.4191 85.175 69.7707 83.8687 69.0859C83.4529 68.1198 83.7105 66.9995 84.5151 66.3282Z" fill="#E58A7B"/>
<path d="M89.5955 64.8179L89.4599 65.3077L86.5987 65.793L86.3185 64.8134L89.5955 64.8179Z" fill="#E58A7B"/>
<path d="M73.4049 143.37L68.243 140.018L69.1696 138.408L74.9688 141.986L73.4049 143.37Z" fill="#00BB4B"/>
<path d="M64.627 146.032C64.2156 146.032 63.6778 145.769 63.3478 145.587C63.3162 145.569 63.3026 145.537 63.3071 145.506C63.3116 145.474 63.3342 145.442 63.3659 145.433C63.506 145.388 64.7309 145.011 65.0745 145.306C65.1287 145.351 65.192 145.438 65.1694 145.578C65.1422 145.769 65.0564 145.9 64.9162 145.973C64.8349 146.014 64.7354 146.032 64.627 146.032ZM63.61 145.537C64.1704 145.823 64.6224 145.932 64.8394 145.823C64.9298 145.778 64.984 145.692 65.0021 145.56C65.0112 145.488 64.9886 145.456 64.9615 145.438C64.7852 145.283 64.1072 145.401 63.61 145.537Z" fill="#263238"/>
<path d="M63.3931 145.601C63.3705 145.601 63.3479 145.592 63.3344 145.574C63.3118 145.551 63.3072 145.519 63.3118 145.492C63.3253 145.451 63.6056 144.467 64.0711 144.24C64.1932 144.181 64.3197 144.177 64.4418 144.227C64.6361 144.308 64.6542 144.453 64.6497 144.531C64.618 144.939 63.7909 145.501 63.4112 145.596C63.4067 145.601 63.3976 145.601 63.3931 145.601ZM64.27 144.363C64.2293 144.363 64.1886 144.372 64.1434 144.395C63.8677 144.526 63.6327 145.061 63.5242 145.383C63.922 145.215 64.4644 144.771 64.4824 144.522C64.487 144.481 64.4779 144.431 64.3785 144.385C64.3423 144.372 64.3016 144.363 64.27 144.363Z" fill="#263238"/>
<path d="M71.086 147.991C70.5753 147.991 69.8656 147.334 69.4769 146.93C69.4498 146.903 69.4453 146.866 69.4634 146.835C69.4814 146.803 69.5221 146.785 69.5492 146.789C69.73 146.812 71.2985 147.025 71.5245 147.47C71.5652 147.556 71.5652 147.647 71.5154 147.737C71.4341 147.882 71.312 147.969 71.1584 147.987C71.1312 147.991 71.1086 147.991 71.086 147.991ZM69.7752 146.993C70.3448 147.551 70.8465 147.86 71.1312 147.819C71.2307 147.805 71.3075 147.751 71.3618 147.651C71.3844 147.615 71.3844 147.578 71.3663 147.547C71.2488 147.306 70.4126 147.098 69.7752 146.993Z" fill="#263238"/>
<path d="M69.825 146.98C69.7075 146.98 69.6035 146.971 69.5221 146.957C69.495 146.953 69.4679 146.93 69.4589 146.903C69.4498 146.875 69.4543 146.844 69.4724 146.821C69.4995 146.789 70.1097 146.05 70.6883 146C70.8691 145.986 71.0228 146.036 71.1539 146.145C71.3302 146.299 71.3211 146.436 71.2759 146.522C71.1358 146.826 70.3538 146.98 69.825 146.98ZM69.7075 146.812C70.2137 146.839 71.0183 146.671 71.1268 146.449C71.1358 146.431 71.1629 146.377 71.0454 146.272C70.9459 146.191 70.8329 146.154 70.7064 146.163C70.3222 146.2 69.9018 146.603 69.7075 146.812Z" fill="#263238"/>
<path d="M63.5151 145.125L59.6821 144.036C59.542 143.995 59.4019 144.063 59.3431 144.195L58.0504 147.116C57.9148 147.42 58.1047 147.796 58.4256 147.878C59.768 148.236 60.437 148.336 62.1229 148.817C63.158 149.112 64.6451 149.647 66.0779 150.055C67.4791 150.454 67.9854 149.062 67.4249 148.762C64.9118 147.424 64.7129 146.513 64.0259 145.497C63.9038 145.311 63.7185 145.179 63.5151 145.125Z" fill="#00BB4B"/>
<path d="M69.581 146.404L66.3085 144.122C66.191 144.041 66.0373 144.054 65.9379 144.159L63.7683 146.499C63.5423 146.739 63.5965 147.157 63.8768 147.343C65.0294 148.118 65.626 148.436 67.0679 149.438C67.9538 150.055 69.7211 151.425 70.9415 152.273C72.1393 153.107 73.0704 151.955 72.6365 151.493C70.6929 149.411 70.268 148.105 69.9471 146.921C69.8884 146.708 69.7573 146.526 69.581 146.404Z" fill="#00BB4B"/>
<path d="M66.9277 142.181L61.0291 139.238L61.6392 137.637L67.9401 140.734L66.9277 142.181Z" fill="#00BB4B"/>
<path d="M59.2572 86.7066L58.76 87.9992C58.7103 88.099 58.8278 88.2033 58.9951 88.2033H73.9472C74.0783 88.2033 74.1868 88.1398 74.1913 88.0582L74.3224 86.7655C74.3314 86.6748 74.2184 86.6022 74.0783 86.6022H59.4923C59.3883 86.5977 59.2934 86.6385 59.2572 86.7066Z" fill="#00BB4B"/>
<path opacity="0.4" d="M59.2572 86.7066L58.76 87.9992C58.7103 88.099 58.8278 88.2033 58.9951 88.2033H73.9472C74.0783 88.2033 74.1868 88.1398 74.1913 88.0582L74.3224 86.7655C74.3314 86.6748 74.2184 86.6022 74.0783 86.6022H59.4923C59.3883 86.5977 59.2934 86.6385 59.2572 86.7066Z" fill="white"/>
<path d="M61.6122 88.3394H61.2235C61.1466 88.3394 61.0879 88.2986 61.0924 88.2487L61.2777 86.566C61.2823 86.5161 61.35 86.4753 61.4269 86.4753H61.8156C61.8924 86.4753 61.9512 86.5161 61.9467 86.566L61.7614 88.2487C61.7569 88.2986 61.689 88.3394 61.6122 88.3394Z" fill="#00BB4B"/>
<path d="M70.833 88.3394H70.4443C70.3675 88.3394 70.3087 88.2986 70.3132 88.2487L70.4986 86.566C70.5031 86.5161 70.5709 86.4753 70.6477 86.4753H71.0364C71.1133 86.4753 71.172 86.5161 71.1675 86.566L70.9822 88.2487C70.9822 88.2986 70.9144 88.3394 70.833 88.3394Z" fill="#00BB4B"/>
<path d="M61.2686 165.154C67.9563 165.154 73.3777 164.76 73.3777 164.274C73.3777 163.788 67.9563 163.394 61.2686 163.394C54.581 163.394 49.1595 163.788 49.1595 164.274C49.1595 164.76 54.581 165.154 61.2686 165.154Z" fill="#F5F5F5"/>
<path d="M68.6453 163.031C66.5028 162.405 64.1434 161.603 62.688 160.75C62.6473 160.727 62.6066 160.709 62.5614 160.686V150.967H66.869C67.5831 150.967 68.1572 150.386 68.1572 149.674C68.1572 148.957 67.5786 148.381 66.869 148.381H62.5614V104.014H59.9805V148.381H55.6729C54.9588 148.381 54.3847 148.962 54.3847 149.674C54.3847 150.391 54.9633 150.967 55.6729 150.967H59.9805V160.686C59.9398 160.709 59.8946 160.727 59.8539 160.75C58.394 161.607 56.0391 162.41 53.8966 163.031C53.1915 163.235 53.3406 164.274 54.0729 164.274H61.2687H68.4645C69.2013 164.274 69.3504 163.235 68.6453 163.031Z" fill="#E0E0E0"/>
<path d="M69.3097 108.985H53.2366C51.9484 108.985 50.8953 107.928 50.8953 106.636V101.842C50.8953 100.549 51.9484 99.4923 53.2366 99.4923H69.3097C70.5979 99.4923 71.6511 100.549 71.6511 101.842V106.636C71.6511 107.928 70.5979 108.985 69.3097 108.985Z" fill="#00BB4B"/>
<path d="M53.0875 108.985V109.811C53.0875 110.491 53.8243 111.049 54.7283 111.049H67.8182C68.7222 111.049 69.459 110.491 69.459 109.811V108.985H53.0875Z" fill="#00BB4B"/>
<path opacity="0.3" d="M53.0875 108.985V109.811C53.0875 110.491 53.8243 111.049 54.7283 111.049H67.8182C68.7222 111.049 69.459 110.491 69.459 109.811V108.985H53.0875Z" fill="white"/>
</svg>
