<svg width="216" height="161" viewBox="0 0 216 161" fill="none" xmlns="http://www.w3.org/2000/svg">
<path d="M216 141.487H0V141.595H216V141.487Z" fill="#EBEBEB"/>
<path d="M194.357 148.439H180.049V148.547H194.357V148.439Z" fill="#EBEBEB"/>
<path d="M143.087 149.615H139.333V149.723H143.087V149.615Z" fill="#EBEBEB"/>
<path d="M179.617 144.429H171.327V144.537H179.617V144.429Z" fill="#EBEBEB"/>
<path d="M41.3208 145.155H22.6627V145.263H41.3208V145.155Z" fill="#EBEBEB"/>
<path d="M47.9045 145.155H45.1699V145.263H47.9045V145.155Z" fill="#EBEBEB"/>
<path d="M97.2648 146.979H56.795V147.087H97.2648V146.979Z" fill="#EBEBEB"/>
<path d="M102.388 122.216H18.9734C17.6126 122.216 16.5067 121.11 16.5067 119.749V2.46722C16.5067 1.10614 17.6126 0 18.9734 0H102.393C103.753 0 104.859 1.10614 104.859 2.46722V119.749C104.855 121.11 103.749 122.216 102.388 122.216ZM18.9734 0.108022C17.6731 0.108022 16.6147 1.16664 16.6147 2.46722V119.749C16.6147 121.049 17.6731 122.108 18.9734 122.108H102.393C103.693 122.108 104.751 121.049 104.751 119.749V2.46722C104.751 1.16664 103.693 0.108022 102.393 0.108022H18.9734Z" fill="#EBEBEB"/>
<path d="M195.83 122.216H112.411C111.05 122.216 109.944 121.11 109.944 119.749V2.46722C109.944 1.10614 111.05 0 112.411 0H195.83C197.191 0 198.297 1.10614 198.297 2.46722V119.749C198.297 121.11 197.191 122.216 195.83 122.216ZM112.411 0.108022C111.11 0.108022 110.052 1.16664 110.052 2.46722V119.749C110.052 121.049 111.11 122.108 112.411 122.108H195.83C197.13 122.108 198.189 121.049 198.189 119.749V2.46722C198.189 1.16664 197.13 0.108022 195.83 0.108022H112.411Z" fill="#EBEBEB"/>
<path d="M136.745 98.2998H188.646C188.646 100.205 187.147 101.769 185.242 101.856C179.664 102.106 171.085 102.992 168.363 106.077C163.292 111.833 163.784 132.042 169.858 136.725C171.763 138.194 177.314 141.107 177.314 141.107H148.072C148.072 141.107 153.261 138.134 155.066 136.725C161.106 132.007 161.283 111.807 156.19 106.077C153.576 103.139 145.532 102.189 140.136 101.89C138.231 101.787 136.745 100.205 136.745 98.2998Z" fill="#F5F5F5"/>
<path d="M182.218 102.046C176.947 102.469 170.627 103.511 168.363 106.077C167.694 106.838 167.124 107.853 166.648 109.05H157.931C157.442 107.853 156.864 106.838 156.19 106.077C153.917 103.524 147.545 102.474 142.374 102.046H182.218Z" fill="#E6E6E6"/>
<path d="M158.855 98.3257L159.559 90.2587H149.329L148.625 98.3257H158.855Z" fill="#EBEBEB"/>
<path d="M158.855 98.3257L159.559 90.2587H160.112L159.408 98.3257H158.855Z" fill="#E0E0E0"/>
<path d="M157.883 97.5048L158.445 91.0797H150.301L149.74 97.5048H157.883Z" fill="#F0F0F0"/>
<path d="M157.261 96.9733L157.727 91.6068H150.928L150.457 96.9733H157.261Z" fill="#FAFAFA"/>
<path d="M162.173 98.2999H172.45L171.31 85.2638H161.032L162.173 98.2999Z" fill="#E6E6E6"/>
<path d="M162.173 98.2999H161.685L160.544 85.2638H161.032L162.173 98.2999Z" fill="#E0E0E0"/>
<path d="M163.106 96.9733H171.288L170.381 86.5946H162.199L163.106 96.9733Z" fill="#F0F0F0"/>
<path d="M163.706 96.1178H170.541L169.78 87.4501H162.946L163.706 96.1178Z" fill="#FAFAFA"/>
<path d="M167.158 91.3476C166.696 91.8099 165.94 91.8099 165.478 91.3476C165.015 90.8852 165.015 90.1291 165.478 89.6668C165.94 89.2044 166.696 89.2044 167.158 89.6668C167.62 90.1291 167.62 90.8852 167.158 91.3476Z" fill="#EBEBEB"/>
<path d="M166.653 92.8037C166.994 92.4624 167.543 92.4624 167.884 92.8037C168.433 93.3525 168.044 94.2901 167.27 94.2901C166.493 94.2901 166.104 93.3525 166.653 92.8037Z" fill="#F0F0F0"/>
<path d="M35.3047 83.4362H83.7708V29.8228L35.3047 29.8228L35.3047 83.4362Z" fill="#E0E0E0"/>
<path d="M33.7567 83.4362H84.0242V29.8228L33.7567 29.8228L33.7567 83.4362Z" fill="#F0F0F0"/>
<path d="M35.8845 80.9761H81.9789V31.5367L35.8845 31.5367L35.8845 80.9761Z" fill="white"/>
<path d="M35.8823 80.9761H37.2172L37.2172 31.5367H35.8823L35.8823 80.9761Z" fill="#E0E0E0"/>
<path d="M37.0769 67.0853V68.4205H82.0999V67.0853H37.0769Z" fill="#E0E0E0"/>
<path d="M35.8823 67.0888H82.6938V64.8506H35.8823V67.0888Z" fill="#F0F0F0"/>
<path d="M163.464 39.0045C163.464 39.0045 163.896 36.1527 161.818 34.325C159.741 32.4973 159.922 31.4084 160.518 31.2658C161.114 31.1232 161.659 32.951 162.574 33.4565C162.574 33.4565 162.605 30.851 161.676 29.8918C160.747 28.9326 160.259 26.461 161.145 26.4178C162.026 26.3746 162.121 27.8869 162.302 28.9585C162.484 30.0301 163.469 31.538 163.469 31.538C163.469 31.538 163.659 29.2091 164.259 28.2455C164.86 27.2863 163.261 25.0913 163.875 24.1321C164.493 23.1728 165.59 25.0006 165.495 27.0573C165.404 29.114 164.035 31.309 164.354 33.4565C164.354 33.4565 164.959 31.9485 165.503 31.8103C166.048 31.672 166.596 30.6739 166.959 30.3066C167.326 29.935 167.78 31.2183 166.959 32.4065C166.138 33.5948 164.035 36.7749 164.354 39.3415L163.464 39.0045Z" fill="#E6E6E6"/>
<path d="M162.22 37.7083L161.538 41.9816C161.326 43.2995 162.346 44.4963 163.685 44.4963H164.41C165.745 44.4963 166.765 43.2995 166.558 41.9816L165.875 37.7083H162.22Z" fill="#F5F5F5"/>
<path d="M172.515 42.9192H124.39V45.3907H172.515V42.9192Z" fill="#E6E6E6"/>
<path d="M128.727 33.8022H126.606V42.9192H128.727V33.8022Z" fill="#F0F0F0"/>
<path d="M138.979 33.8022H136.858V42.9192H138.979V33.8022Z" fill="#F0F0F0"/>
<path d="M150.621 33.5795L148.53 33.9397L150.078 42.9245L152.168 42.5643L150.621 33.5795Z" fill="#F0F0F0"/>
<path d="M131.354 35.0034H129.233V42.9192H131.354V35.0034Z" fill="#F0F0F0"/>
<path d="M136.227 35.0034H134.106V42.9192H136.227V35.0034Z" fill="#F0F0F0"/>
<path d="M148.53 35.0034H146.409V42.9192H148.53V35.0034Z" fill="#F0F0F0"/>
<path d="M141.764 34.7289L139.693 35.1891L141.409 42.9165L143.48 42.4564L141.764 34.7289Z" fill="#F0F0F0"/>
<path d="M133.186 33.3485H132.127V42.9192H133.186V33.3485Z" fill="#F0F0F0"/>
<path d="M145.796 33.3485H144.737V42.9192H145.796V33.3485Z" fill="#F0F0F0"/>
<path d="M124.395 63.8522L172.52 63.8522V61.3806L124.395 61.3806V63.8522Z" fill="#E6E6E6"/>
<path d="M168.182 61.3795H170.304V52.2625H168.182V61.3795Z" fill="#F0F0F0"/>
<path d="M157.93 61.3795H160.051V52.2625H157.93V61.3795Z" fill="#F0F0F0"/>
<path d="M144.738 61.0249L146.828 61.3851L148.376 52.4003L146.286 52.0401L144.738 61.0249Z" fill="#F0F0F0"/>
<path d="M165.555 61.3797H167.676V53.4639H165.555V61.3797Z" fill="#F0F0F0"/>
<path d="M160.681 61.3797H162.802V53.4639H160.681V61.3797Z" fill="#F0F0F0"/>
<path d="M148.378 61.3797H150.5V53.4639H148.378V61.3797Z" fill="#F0F0F0"/>
<path d="M153.427 60.92L155.498 61.3802L157.215 53.6527L155.144 53.1926L153.427 60.92Z" fill="#F0F0F0"/>
<path d="M163.722 61.3806H164.781V51.8099H163.722V61.3806Z" fill="#F0F0F0"/>
<path d="M151.114 61.3806H152.173V51.8099H151.114V61.3806Z" fill="#F0F0F0"/>
<path d="M129.013 61.2976H139.342V54.1639H129.013V61.2976Z" fill="#F5F5F5"/>
<path d="M108 161C154.26 161 191.76 158.81 191.76 156.109C191.76 153.407 154.26 151.218 108 151.218C61.7403 151.218 24.2395 153.407 24.2395 156.109C24.2395 158.81 61.7403 161 108 161Z" fill="#F5F5F5"/>
<path d="M143.627 145.302C143.627 145.302 141.489 140.631 143.934 136.03C146.379 131.428 147.087 130.343 145.528 129.401C143.968 128.46 143.255 133.083 143.255 133.083C143.255 133.083 141.942 129.903 143.027 126.571C144.111 123.24 144.793 117.817 143.312 117.234C141.83 116.651 143.031 124 141.743 126.507C141.743 126.507 140.663 123.72 140.486 121.045C140.309 118.37 140.586 114.101 139.415 113.004C138.244 111.906 137.497 112.667 138.646 118.569C139.795 124.471 139.787 129.272 139.787 129.272C139.787 129.272 137.246 121.529 135.544 121.304C133.842 121.079 133.842 123.586 135.302 125.759C136.763 127.932 139.575 131.83 140.037 133.835C140.037 133.835 137.251 128.006 134.745 129.795C132.239 131.579 136.927 135.101 139.018 136.371C141.108 137.641 142.56 145.613 142.56 145.613L143.627 145.302Z" fill="#00BB4B"/>
<path opacity="0.2" d="M143.627 145.302C143.627 145.302 141.489 140.631 143.934 136.03C146.379 131.428 147.087 130.343 145.528 129.401C143.968 128.46 143.255 133.083 143.255 133.083C143.255 133.083 141.942 129.903 143.027 126.571C144.111 123.24 144.793 117.817 143.312 117.234C141.83 116.651 143.031 124 141.743 126.507C141.743 126.507 140.663 123.72 140.486 121.045C140.309 118.37 140.586 114.101 139.415 113.004C138.244 111.906 137.497 112.667 138.646 118.569C139.795 124.471 139.787 129.272 139.787 129.272C139.787 129.272 137.246 121.529 135.544 121.304C133.842 121.079 133.842 123.586 135.302 125.759C136.763 127.932 139.575 131.83 140.037 133.835C140.037 133.835 137.251 128.006 134.745 129.795C132.239 131.579 136.927 135.101 139.018 136.371C141.108 137.641 142.56 145.613 142.56 145.613L143.627 145.302Z" fill="black"/>
<path d="M141.938 147.216C141.938 147.216 144.02 142.515 141.523 137.948C139.026 133.381 138.3 132.309 139.847 131.342C141.394 130.374 142.163 134.988 142.163 134.988C142.163 134.988 143.437 131.787 142.314 128.473C141.191 125.158 140.443 119.744 141.916 119.144C143.389 118.539 142.279 125.906 143.597 128.39C143.597 128.39 144.642 125.586 144.789 122.907C144.936 120.228 144.608 115.964 145.761 114.849C146.919 113.734 147.675 114.482 146.599 120.401C145.519 126.321 145.588 131.117 145.588 131.117C145.588 131.117 148.033 123.335 149.736 123.084C151.438 122.834 151.464 125.34 150.034 127.535C148.599 129.73 145.835 133.671 145.398 135.68C145.398 135.68 148.116 129.812 150.643 131.562C153.17 133.312 148.526 136.898 146.448 138.203C144.374 139.508 143.018 147.497 143.018 147.497L141.938 147.216Z" fill="#00BB4B"/>
<path d="M151.546 143.868H134.335L135.73 156.187H150.155L151.546 143.868Z" fill="#263238"/>
<path opacity="0.2" d="M185.35 104.319H94.3876C93.7958 104.319 93.3163 103.839 93.3163 103.247V22.4383C93.3163 21.8464 93.7958 21.3668 94.3876 21.3668H185.35C185.941 21.3668 186.421 21.8464 186.421 22.4383V103.252C186.421 103.839 185.941 104.319 185.35 104.319Z" fill="black"/>
<path d="M181.829 102.785H90.8669C90.2751 102.785 89.7955 102.305 89.7955 101.713V20.9044C89.7955 20.3124 90.2751 19.8328 90.8669 19.8328H181.829C182.421 19.8328 182.9 20.3124 182.9 20.9044V101.718C182.9 102.31 182.421 102.785 181.829 102.785Z" fill="#00BB4B"/>
<path opacity="0.6" d="M89.7955 27.2172V101.713C89.7955 102.305 90.193 102.785 90.6811 102.785H182.01C182.503 102.785 182.896 102.305 182.896 101.713V27.2172H89.7955Z" fill="white"/>
<path d="M181.794 31.6115H90.8971V97.4054H181.794V31.6115Z" fill="white"/>
<path opacity="0.6" d="M179.859 24.953C180.613 24.953 181.224 24.216 181.224 23.3068C181.224 22.3976 180.613 21.6605 179.859 21.6605C179.105 21.6605 178.494 22.3976 178.494 23.3068C178.494 24.216 179.105 24.953 179.859 24.953Z" fill="white"/>
<path opacity="0.6" d="M175.388 24.953C176.142 24.953 176.753 24.216 176.753 23.3068C176.753 22.3976 176.142 21.6605 175.388 21.6605C174.634 21.6605 174.022 22.3976 174.022 23.3068C174.022 24.216 174.634 24.953 175.388 24.953Z" fill="white"/>
<path opacity="0.6" d="M172.277 23.3068C172.277 24.2142 171.668 24.953 170.912 24.953C170.16 24.953 169.547 24.2185 169.547 23.3068C169.547 22.3994 170.156 21.6605 170.912 21.6605C171.668 21.6648 172.277 22.3994 172.277 23.3068Z" fill="white"/>
<path d="M110.264 39.2897V56.2621L105.901 61.5249H96.2367V39.2897H110.264Z" fill="#00BB4B"/>
<path opacity="0.7" d="M110.264 39.2897V56.2621L105.901 61.5249H96.2367V39.2897H110.264Z" fill="white"/>
<path opacity="0.3" d="M110.264 56.2621L105.901 61.525V56.2621H110.264Z" fill="#00BB4B"/>
<path opacity="0.3" d="M108.091 42.4958H98.4139V43.131H108.091V42.4958Z" fill="#00BB4B"/>
<path opacity="0.3" d="M108.091 44.9112H98.4139V45.5464H108.091V44.9112Z" fill="#00BB4B"/>
<path opacity="0.3" d="M108.091 47.3266H98.4139V47.9661H108.091V47.3266Z" fill="#00BB4B"/>
<path opacity="0.3" d="M108.091 49.7419H98.4139V50.3814H108.091V49.7419Z" fill="#00BB4B"/>
<path opacity="0.3" d="M105.589 52.1573H98.4139V52.7968H105.589V52.1573Z" fill="#00BB4B"/>
<path d="M132.512 39.2897V56.2621L128.149 61.5249H118.485V39.2897H132.512Z" fill="#00BB4B"/>
<path opacity="0.7" d="M132.512 39.2897V56.2621L128.149 61.5249H118.485V39.2897H132.512Z" fill="white"/>
<path opacity="0.3" d="M132.512 56.2621L128.149 61.525V56.2621H132.512Z" fill="#00BB4B"/>
<path opacity="0.3" d="M130.335 42.4958H120.658V43.131H130.335V42.4958Z" fill="#00BB4B"/>
<path opacity="0.3" d="M130.335 44.9112H120.658V45.5464H130.335V44.9112Z" fill="#00BB4B"/>
<path opacity="0.3" d="M130.335 47.3266H120.658V47.9661H130.335V47.3266Z" fill="#00BB4B"/>
<path opacity="0.3" d="M130.335 49.7419H120.658V50.3814H130.335V49.7419Z" fill="#00BB4B"/>
<path opacity="0.3" d="M127.833 52.1573H120.658V52.7968H127.833V52.1573Z" fill="#00BB4B"/>
<path d="M154.76 39.2897V56.2621L150.397 61.5249H140.733V39.2897H154.76Z" fill="#00BB4B"/>
<path opacity="0.7" d="M154.76 39.2897V56.2621L150.397 61.5249H140.733V39.2897H154.76Z" fill="white"/>
<path opacity="0.3" d="M154.76 56.2621L150.396 61.525V56.2621H154.76Z" fill="#00BB4B"/>
<path opacity="0.3" d="M152.582 42.4958H142.906V43.131H152.582V42.4958Z" fill="#00BB4B"/>
<path opacity="0.3" d="M152.582 44.9112H142.906V45.5464H152.582V44.9112Z" fill="#00BB4B"/>
<path opacity="0.3" d="M152.582 47.3266H142.906V47.9661H152.582V47.3266Z" fill="#00BB4B"/>
<path opacity="0.3" d="M152.582 49.7419H142.906V50.3814H152.582V49.7419Z" fill="#00BB4B"/>
<path opacity="0.3" d="M150.081 52.1573H142.906V52.7968H150.081V52.1573Z" fill="#00BB4B"/>
<path d="M177.008 39.2897V56.2621L172.64 61.5249H162.981V39.2897H177.008Z" fill="#00BB4B"/>
<path opacity="0.7" d="M177.008 39.2897V56.2621L172.64 61.5249H162.981V39.2897H177.008Z" fill="white"/>
<path opacity="0.3" d="M177.008 56.2621L172.64 61.525V56.2621H177.008Z" fill="#00BB4B"/>
<path opacity="0.3" d="M174.83 42.4958H165.154V43.131H174.83V42.4958Z" fill="#00BB4B"/>
<path opacity="0.3" d="M174.83 44.9112H165.154V45.5464H174.83V44.9112Z" fill="#00BB4B"/>
<path opacity="0.3" d="M174.83 47.3266H165.154V47.9661H174.83V47.3266Z" fill="#00BB4B"/>
<path opacity="0.3" d="M174.83 49.7419H165.154V50.3814H174.83V49.7419Z" fill="#00BB4B"/>
<path opacity="0.3" d="M172.329 52.1573H165.154V52.7968H172.329V52.1573Z" fill="#00BB4B"/>
<path d="M110.264 68.6716V85.644L105.901 90.9068H96.2367V68.6716H110.264Z" fill="#00BB4B"/>
<path opacity="0.7" d="M110.264 68.6716V85.644L105.901 90.9068H96.2367V68.6716H110.264Z" fill="white"/>
<path opacity="0.3" d="M110.264 85.644L105.901 90.9069V85.644H110.264Z" fill="#00BB4B"/>
<path opacity="0.3" d="M108.091 71.8777H98.4139V72.5129H108.091V71.8777Z" fill="#00BB4B"/>
<path opacity="0.3" d="M108.091 74.2931H98.4139V74.9283H108.091V74.2931Z" fill="#00BB4B"/>
<path opacity="0.3" d="M108.091 76.7085H98.4139V77.348H108.091V76.7085Z" fill="#00BB4B"/>
<path opacity="0.3" d="M108.091 79.1238H98.4139V79.7633H108.091V79.1238Z" fill="#00BB4B"/>
<path opacity="0.3" d="M105.589 81.5392H98.4139V82.1787H105.589V81.5392Z" fill="#00BB4B"/>
<path d="M132.512 68.6716V85.644L128.149 90.9068H118.485V68.6716H132.512Z" fill="#00BB4B"/>
<path opacity="0.7" d="M132.512 68.6716V85.644L128.149 90.9068H118.485V68.6716H132.512Z" fill="white"/>
<path opacity="0.3" d="M132.512 85.644L128.149 90.9069V85.644H132.512Z" fill="#00BB4B"/>
<path opacity="0.3" d="M130.335 71.8777H120.658V72.5129H130.335V71.8777Z" fill="#00BB4B"/>
<path opacity="0.3" d="M130.335 74.2931H120.658V74.9283H130.335V74.2931Z" fill="#00BB4B"/>
<path opacity="0.3" d="M130.335 76.7085H120.658V77.348H130.335V76.7085Z" fill="#00BB4B"/>
<path opacity="0.3" d="M130.335 79.1238H120.658V79.7633H130.335V79.1238Z" fill="#00BB4B"/>
<path opacity="0.3" d="M127.833 81.5392H120.658V82.1787H127.833V81.5392Z" fill="#00BB4B"/>
<path d="M154.76 68.6716V85.644L150.397 90.9068H140.733V68.6716H154.76Z" fill="#00BB4B"/>
<path opacity="0.7" d="M154.76 68.6716V85.644L150.397 90.9068H140.733V68.6716H154.76Z" fill="white"/>
<path opacity="0.3" d="M154.76 85.644L150.396 90.9069V85.644H154.76Z" fill="#00BB4B"/>
<path opacity="0.3" d="M152.582 71.8777H142.906V72.5129H152.582V71.8777Z" fill="#00BB4B"/>
<path opacity="0.3" d="M152.582 74.2931H142.906V74.9283H152.582V74.2931Z" fill="#00BB4B"/>
<path opacity="0.3" d="M152.582 76.7085H142.906V77.348H152.582V76.7085Z" fill="#00BB4B"/>
<path opacity="0.3" d="M152.582 79.1238H142.906V79.7633H152.582V79.1238Z" fill="#00BB4B"/>
<path opacity="0.3" d="M150.081 81.5392H142.906V82.1787H150.081V81.5392Z" fill="#00BB4B"/>
<path d="M177.008 68.6716V85.644L172.64 90.9068H162.981V68.6716H177.008Z" fill="#00BB4B"/>
<path opacity="0.7" d="M177.008 68.6716V85.644L172.64 90.9068H162.981V68.6716H177.008Z" fill="white"/>
<path opacity="0.3" d="M177.008 85.644L172.64 90.9069V85.644H177.008Z" fill="#00BB4B"/>
<path opacity="0.3" d="M174.83 71.8777H165.154V72.5129H174.83V71.8777Z" fill="#00BB4B"/>
<path opacity="0.3" d="M174.83 74.2931H165.154V74.9283H174.83V74.2931Z" fill="#00BB4B"/>
<path opacity="0.3" d="M174.83 76.7085H165.154V77.348H174.83V76.7085Z" fill="#00BB4B"/>
<path opacity="0.3" d="M174.83 79.1238H165.154V79.7633H174.83V79.1238Z" fill="#00BB4B"/>
<path opacity="0.3" d="M172.329 81.5392H165.154V82.1787H172.329V81.5392Z" fill="#00BB4B"/>
<path opacity="0.1" d="M142.543 75.1573H120.156C119.12 75.1573 118.277 74.3147 118.277 73.2777V56.4954C118.277 55.4584 119.12 54.6158 120.156 54.6158H142.543C143.579 54.6158 144.422 55.4584 144.422 56.4954V73.2777C144.422 74.3147 143.579 75.1573 142.543 75.1573Z" fill="black"/>
<g opacity="0.1">
<path opacity="0.1" d="M140.94 53.6609H138.348V50.8567C138.348 47.171 135.35 44.1766 131.669 44.1766C127.984 44.1766 124.99 47.1753 124.99 50.8567V53.6609H122.398V50.8567C122.398 45.7451 126.559 41.5841 131.669 41.5841C136.78 41.5841 140.94 45.7451 140.94 50.8567V53.6609Z" fill="black"/>
</g>
<path d="M131.743 74.2931H109.356C108.32 74.2931 107.477 73.4505 107.477 72.4135V55.6312C107.477 54.5942 108.32 53.7516 109.356 53.7516H131.743C132.779 53.7516 133.622 54.5942 133.622 55.6312V72.4135C133.622 73.4505 132.779 74.2931 131.743 74.2931Z" fill="#263238"/>
<path opacity="0.2" d="M127.012 74.2931H109.352C108.315 74.2931 107.473 73.4505 107.473 72.4135V55.6312C107.473 54.5942 108.315 53.7516 109.352 53.7516H127.012C128.049 53.7516 128.891 54.5942 128.891 55.6312V72.4135C128.891 73.4505 128.049 74.2931 127.012 74.2931Z" fill="white"/>
<path d="M119.495 61.4601C119.495 60.0429 118.631 58.8978 117.569 58.8978C116.506 58.8978 115.642 60.0472 115.642 61.4601C115.642 62.536 116.143 63.4564 116.847 63.8366L116.493 69.1945H118.644L118.29 63.8366C118.994 63.4564 119.495 62.536 119.495 61.4601Z" fill="#263238"/>
<path d="M130.14 52.7967H127.548V49.9925C127.548 46.3068 124.55 43.3124 120.869 43.3124C117.184 43.3124 114.191 46.3111 114.191 49.9925V52.7967H111.599V49.9925C111.599 44.8809 115.759 40.7199 120.869 40.7199C125.98 40.7199 130.14 44.8809 130.14 49.9925V52.7967Z" fill="#263238"/>
<g opacity="0.4">
<path opacity="0.4" d="M130.14 52.7967H127.548V49.9925C127.548 46.3068 124.55 43.3124 120.869 43.3124C117.184 43.3124 114.191 46.3111 114.191 49.9925V52.7967H111.599V49.9925C111.599 44.8809 115.759 40.7199 120.869 40.7199C125.98 40.7199 130.14 44.8809 130.14 49.9925V52.7967Z" fill="white"/>
</g>
<path opacity="0.2" d="M130.14 49.9925V52.7967H128.382V49.6728C128.382 44.9933 124.589 41.2038 119.91 41.2038C118.143 41.2038 116.506 41.7526 115.162 42.6945C116.739 41.4588 118.722 40.7199 120.869 40.7199C125.98 40.7199 130.14 44.8766 130.14 49.9925Z" fill="white"/>
<path d="M93.5107 99.6738H83.0391V99.272H85.4064C85.7347 99.272 86.0155 99.0343 86.0717 98.7103L87.1301 92.4104L87.3375 91.1703H90.9231L94.1328 98.7448C94.3143 99.1813 93.9903 99.6738 93.5107 99.6738Z" fill="#00BB4B"/>
<path opacity="0.4" d="M93.5107 99.6738H83.0391V99.272H85.4064C85.7347 99.272 86.0155 99.0343 86.0717 98.7103L87.1301 92.4104L87.3375 91.1703H90.9231L94.1328 98.7448C94.3143 99.1813 93.9903 99.6738 93.5107 99.6738Z" fill="white"/>
<path opacity="0.2" d="M93.5237 99.2677H85.4021C85.7304 99.2677 86.0112 99.03 86.0674 98.706L87.1258 92.4061H90.8842L93.744 98.935C93.8088 99.0905 93.6965 99.2677 93.5237 99.2677Z" fill="black"/>
<path d="M99.1397 93.4907H78.1921C77.9847 93.4907 77.8465 93.3222 77.8853 93.1104L80.8618 77.3695C80.9007 77.1621 81.1037 76.9893 81.3111 76.9893H102.259C102.466 76.9893 102.604 77.1578 102.565 77.3695L99.589 93.1104C99.5501 93.3178 99.3514 93.4907 99.1397 93.4907Z" fill="#00BB4B"/>
<path opacity="0.4" d="M99.1397 93.4907H78.1921C77.9847 93.4907 77.8465 93.3222 77.8853 93.1104L80.8618 77.3695C80.9007 77.1621 81.1037 76.9893 81.3111 76.9893H102.259C102.466 76.9893 102.604 77.1578 102.565 77.3695L99.589 93.1104C99.5501 93.3178 99.3514 93.4907 99.1397 93.4907Z" fill="white"/>
<path d="M98.7077 93.4907H77.7601C77.5527 93.4907 77.4144 93.3222 77.4533 93.1104L80.4298 77.3695C80.4687 77.1621 80.6717 76.9893 80.8791 76.9893H101.827C102.034 76.9893 102.172 77.1578 102.133 77.3695L99.157 93.1104C99.1181 93.3178 98.9194 93.4907 98.7077 93.4907Z" fill="#263238"/>
<path d="M98.4312 92.5228H78.4037L81.1598 77.9528H101.183L98.4312 92.5228Z" fill="#00BB4B"/>
<path d="M63.5256 99.6739V99.1813L71.5911 97.5524H87.3591C87.9423 97.5524 88.4175 98.0277 88.4175 98.611C88.4175 99.1943 87.9423 99.6696 87.3591 99.6696L63.5256 99.6739Z" fill="#00BB4B"/>
<path opacity="0.4" d="M88.4175 98.6109C88.4175 98.9004 88.3008 99.1683 88.1108 99.3584C87.9164 99.5485 87.6528 99.6695 87.3591 99.6695H63.5256V99.1813L71.5911 97.548H87.3591C87.9466 97.548 88.4175 98.0233 88.4175 98.6109Z" fill="white"/>
<path opacity="0.4" d="M88.4175 98.6109C88.4175 98.9004 88.3008 99.1683 88.1107 99.3584C87.9163 99.5485 87.6528 99.6695 87.3591 99.6695H77.7816V99.1813L85.8471 97.548H87.3591C87.9466 97.548 88.4175 98.0233 88.4175 98.6109Z" fill="white"/>
<path d="M94.1803 156.187H96.3403L100.215 102.197H97.3512L94.1803 156.187Z" fill="#263238"/>
<path opacity="0.1" d="M94.1803 156.187H96.3403L100.025 104.881L100.215 102.288H97.3512L97.1957 104.881L94.1803 156.187Z" fill="white"/>
<path opacity="0.2" d="M97.1957 104.751H100.025L100.215 102.288H97.3512L97.1957 104.751Z" fill="black"/>
<path d="M78.3475 156.187H80.5032L80.8574 102.197H77.9933L78.3475 156.187Z" fill="#263238"/>
<path opacity="0.1" d="M77.9933 102.288L78.0494 110.995L78.3432 156.187H80.5032L80.797 110.995L80.8574 102.288H77.9933Z" fill="white"/>
<path opacity="0.2" d="M77.9933 102.288L78.0494 111.094H80.797L80.8574 102.288H77.9933Z" fill="black"/>
<path d="M55.4386 156.187H57.5943L61.4736 102.197H58.6095L55.4386 156.187Z" fill="#263238"/>
<path opacity="0.1" d="M55.4386 156.187H57.5943L61.2836 104.881L61.4736 102.288H58.6095L58.454 104.881L55.4386 156.187Z" fill="white"/>
<path opacity="0.2" d="M58.454 104.751H61.2836L61.4737 102.288H58.6095L58.454 104.751Z" fill="black"/>
<path d="M118.865 156.187H121.021L117.85 102.197H114.985L118.865 156.187Z" fill="#263238"/>
<path opacity="0.1" d="M114.99 102.288L115.18 104.881L118.865 156.187H121.02L118.005 104.881L117.85 102.288H114.99Z" fill="white"/>
<path opacity="0.2" d="M117.85 102.288H114.99L115.18 104.751H118.005L117.85 102.288Z" fill="black"/>
<path d="M57.2746 103.55H119.184C119.699 103.55 120.118 103.131 120.118 102.616V100.845H56.3414V102.616C56.3414 103.135 56.7605 103.55 57.2746 103.55Z" fill="#00BB4B"/>
<path opacity="0.4" d="M57.2746 103.55H119.184C119.699 103.55 120.118 103.131 120.118 102.616V100.845H56.3414V102.616C56.3414 103.135 56.7605 103.55 57.2746 103.55Z" fill="white"/>
<path opacity="0.2" d="M56.3378 102.197L120.118 102.197V100.845L56.3378 100.845V102.197Z" fill="black"/>
<path d="M55.0023 101.199H121.457C121.876 101.199 122.217 100.858 122.217 100.439C122.217 100.02 121.876 99.6782 121.457 99.6782H55.0023C54.5832 99.6782 54.2419 100.02 54.2419 100.439C54.2419 100.858 54.5832 101.199 55.0023 101.199Z" fill="#00BB4B"/>
<path opacity="0.4" d="M55.0023 101.199H121.457C121.876 101.199 122.217 100.858 122.217 100.439C122.217 100.02 121.876 99.6782 121.457 99.6782H55.0023C54.5832 99.6782 54.2419 100.02 54.2419 100.439C54.2419 100.858 54.5832 101.199 55.0023 101.199Z" fill="white"/>
<path opacity="0.3" d="M82.2702 86.115C82.0758 86.115 81.8943 86.0286 81.7733 85.8817C81.6524 85.7305 81.6005 85.536 81.6394 85.3502L81.9073 83.9719C81.9807 83.5873 82.322 83.3065 82.7151 83.3065H93.9514C94.1458 83.3065 94.3273 83.3929 94.4482 83.5398C94.5692 83.691 94.621 83.8811 94.5821 84.0713L94.3143 85.4496C94.2409 85.8342 93.8996 86.115 93.5065 86.115H82.2702Z" fill="white"/>
<path d="M93.5065 85.899H82.2702C82.0023 85.899 81.7993 85.6527 81.8511 85.3891L82.119 84.0108C82.1751 83.7256 82.4257 83.5182 82.7151 83.5182H93.9515C94.2193 83.5182 94.4223 83.7645 94.3705 84.0281L94.1027 85.4064C94.0465 85.6959 93.7959 85.899 93.5065 85.899Z" fill="white"/>
<path d="M84.1767 85.0236C84.3969 84.7088 84.3725 84.3116 84.1222 84.1365C83.8719 83.9615 83.4906 84.0748 83.2704 84.3897C83.0503 84.7045 83.0747 85.1017 83.325 85.2767C83.5752 85.4518 83.9566 85.3385 84.1767 85.0236Z" fill="#263238"/>
<path d="M86.0674 84.7107C85.9983 85.0694 85.6743 85.3632 85.3503 85.3632C85.022 85.3632 84.8146 85.0694 84.8881 84.7107C84.9572 84.3521 85.2812 84.0583 85.6052 84.0583C85.9335 84.0583 86.1409 84.3478 86.0674 84.7107Z" fill="#263238"/>
<path d="M87.8256 84.7107C87.7565 85.0694 87.4325 85.3632 87.1085 85.3632C86.7802 85.3632 86.5728 85.0694 86.6463 84.7107C86.7154 84.3521 87.0394 84.0583 87.3634 84.0583C87.6874 84.0583 87.8947 84.3478 87.8256 84.7107Z" fill="#263238"/>
<path d="M89.4459 85.0212C89.666 84.7063 89.6416 84.3092 89.3913 84.1341C89.1411 83.9591 88.7597 84.0724 88.5396 84.3872C88.3195 84.7021 88.3439 85.0992 88.5941 85.2743C88.8444 85.4494 89.2257 85.336 89.4459 85.0212Z" fill="#263238"/>
<path d="M91.3378 84.7107C91.2687 85.0694 90.9447 85.3632 90.6207 85.3632C90.2924 85.3632 90.085 85.0694 90.1585 84.7107C90.2276 84.3521 90.5516 84.0583 90.8756 84.0583C91.1996 84.0583 91.4069 84.3478 91.3378 84.7107Z" fill="#263238"/>
<path d="M92.9553 85.0243C93.1754 84.7094 93.151 84.3123 92.9007 84.1372C92.6505 83.9622 92.2691 84.0755 92.049 84.3904C91.8289 84.7052 91.8533 85.1024 92.1035 85.2774C92.3538 85.4525 92.7352 85.3391 92.9553 85.0243Z" fill="#263238"/>
<path opacity="0.3" d="M95.0746 86.115C94.9234 86.115 94.7852 86.0502 94.6902 85.9378C94.5994 85.8255 94.5606 85.6743 94.5908 85.5187L94.9321 83.8077C94.9882 83.5225 95.2561 83.2978 95.5455 83.2978H97.2562C97.4074 83.2978 97.5457 83.3626 97.6407 83.4749C97.7314 83.5873 97.7703 83.7385 97.7401 83.8941L97.3988 85.6051C97.3426 85.8903 97.0748 86.115 96.7854 86.115H95.0746Z" fill="white"/>
<path d="M95.0747 85.899H96.7854C96.9711 85.899 97.1526 85.7477 97.1871 85.562L97.5284 83.8509C97.5673 83.6651 97.4463 83.5139 97.2606 83.5139H95.5499C95.3641 83.5139 95.1827 83.6651 95.1481 83.8509L94.8068 85.562C94.7723 85.7521 94.8889 85.899 95.0747 85.899Z" fill="#263238"/>
<path d="M95.9516 85.4669C95.9256 85.4669 95.8997 85.4582 95.8824 85.4366C95.8479 85.3934 95.8608 85.3243 95.9127 85.2854L96.5996 84.715L96.1416 84.1447C96.1071 84.1015 96.12 84.0324 96.1719 83.9935C96.2237 83.9503 96.2928 83.9503 96.3231 83.9935L96.8415 84.6416C96.876 84.6848 96.8631 84.7539 96.8113 84.7928L96.0336 85.4409C96.012 85.4539 95.9818 85.4669 95.9516 85.4669Z" fill="#00BB4B"/>
<path d="M96.7292 84.8188H95.5628C95.5023 84.8188 95.4634 84.7712 95.4764 84.7107C95.4893 84.6503 95.5455 84.6027 95.606 84.6027H96.7724C96.8328 84.6027 96.8717 84.6503 96.8588 84.7107C96.8458 84.7669 96.7896 84.8188 96.7292 84.8188Z" fill="#00BB4B"/>
<path d="M58.8686 58.4355H68.1825C69.1675 58.4355 69.9623 57.6361 69.9623 56.6553V47.3395C69.9623 46.3543 69.1631 45.5593 68.1825 45.5593H58.8686C57.8836 45.5593 57.0887 46.3586 57.0887 47.3395V56.6553C57.0887 57.6404 57.8836 58.4355 58.8686 58.4355Z" fill="#00BB4B"/>
<path d="M62.519 57.9559L63.5256 62.2854L64.5322 57.9559H62.519Z" fill="#00BB4B"/>
<path opacity="0.3" d="M63.4133 55.8602C59.6203 53.5442 59.6894 49.6165 59.6894 49.5776L59.6937 49.4394L63.5256 47.8061L67.3574 49.4394L67.3617 49.5776C67.3617 49.6165 67.4309 53.5442 63.6379 55.8602L63.5256 55.9293L63.4133 55.8602Z" fill="white"/>
<path opacity="0.6" d="M63.5256 48.0394L67.1458 49.582C67.1458 49.582 67.2581 53.3973 63.5256 55.6744V48.0394Z" fill="white"/>
<path opacity="0.4" d="M63.5256 48.0394L59.9054 49.582C59.9054 49.582 59.7931 53.3973 63.5256 55.6744V48.0394Z" fill="white"/>
<path d="M60.048 96.8566L63.0677 97.3103C63.0677 97.3103 64.0915 96.9733 65.1758 96.8566C66.2601 96.7443 67.5129 96.8566 67.5129 96.8566C67.5129 96.8566 68.878 97.3708 68.878 98.68C68.878 98.68 65.6899 99.5356 64.463 99.0214L60.048 98.68V96.8566Z" fill="#E4897B"/>
<path opacity="0.2" d="M60.048 96.8566L63.0677 97.3103C63.0677 97.3103 64.0915 96.9733 65.1758 96.8566C66.2601 96.7443 67.5129 96.8566 67.5129 96.8566C67.5129 96.8566 68.878 97.3708 68.878 98.68C68.878 98.68 65.6899 99.5356 64.463 99.0214L60.048 98.68V96.8566Z" fill="black"/>
<path d="M67.5389 76.4276C67.5389 76.4276 67.6167 77.5121 67.9018 78.2596C67.9018 78.2596 67.4093 78.588 66.8434 78.2466L67.5389 76.4276Z" fill="#AA473D"/>
<path d="M68.7183 75.5677C68.6017 75.8485 68.3943 76.0257 68.256 75.9695C68.1178 75.9134 68.0962 75.6368 68.2128 75.3603C68.3295 75.0794 68.5368 74.9023 68.6751 74.9584C68.8133 75.0146 68.8306 75.2868 68.7183 75.5677Z" fill="#263238"/>
<path d="M69.4267 74.4443C69.4267 74.4443 68.5368 73.9042 67.7419 74.306" stroke="#263238" stroke-width="0.7247" stroke-miterlimit="10" stroke-linecap="round" stroke-linejoin="round"/>
<path d="M66.6965 78.7825C66.5972 78.9034 66.4978 79.0201 66.3941 79.1281C65.7634 79.7806 64.9728 80.1911 64.152 80.3596C63.936 80.4028 63.7157 80.433 63.4954 80.446C62.3376 80.5065 61.1799 80.0917 60.3677 79.1973C60.0351 78.8343 59.7543 78.3849 59.5642 77.8578C58.7952 75.7838 59.5772 74.1505 60.6831 71.2771C60.912 70.6549 61.2792 70.0932 61.7631 69.6438C63.4608 68.0537 66.122 68.1488 67.7074 69.8426C69.9452 72.2018 68.4418 76.5356 66.6965 78.7825Z" fill="#E4897B"/>
<path opacity="0.2" d="M64.1476 80.3595C63.9316 80.4027 63.7113 80.433 63.491 80.4459C62.3332 80.5064 61.1754 80.0916 60.3633 79.1972C60.8039 78.7435 61.2921 78.4713 61.2921 78.4713C61.2921 78.4713 63.0849 78.9682 64.1476 80.3595Z" fill="black"/>
<path d="M54.8337 80.4676C55.1145 82.4941 59.5382 83.2459 59.5382 83.2459C59.5382 83.2459 61.7198 84.2397 61.8105 83.3755C60.9077 82.3299 60.8083 81.4182 61.1193 80.6188C61.3008 80.1522 61.6248 79.7287 62.0093 79.3355C62.208 79.1281 62.4283 78.9294 62.6529 78.7392L61.3051 73.1999C60.3331 75.3042 57.011 80.1651 54.8337 80.4676Z" fill="#E4897B"/>
<path d="M67.4568 68.2741C67.4568 68.2741 68.4029 68.1574 69.1243 69.9203C69.7334 71.4067 68.2992 71.7265 68.3597 73.3036C68.4202 74.8807 66.9816 75.7578 66.9816 75.7578C66.9816 75.7578 65.7677 76.8035 64.7395 76.2374C64.7395 76.2374 63.3917 76.8985 63.0374 78.0522C62.6832 79.2059 60.5966 77.1232 58.7174 77.4386C58.7174 77.4386 57.4474 76.2504 57.5381 73.3641C57.5986 71.4586 58.4453 69.7432 58.4453 69.7432C58.4453 69.7432 58.9939 68.0235 61.141 67.0642C63.2923 66.1007 67.055 66.8309 67.4568 68.2741Z" fill="#263238"/>
<path d="M64.4803 75.3862C64.3723 76.0689 64.5062 76.6695 64.8475 77.0498C65.3097 77.551 66.0441 76.9158 66.3422 76.0387C66.6014 75.2566 66.6921 74.0338 66.0182 73.8955C65.3486 73.7573 64.6228 74.5437 64.4803 75.3862Z" fill="#E4897B"/>
<path d="M64.9555 82.1398C64.3378 83.8595 63.7848 85.5187 63.2966 87.1088C62.9856 88.0939 62.7005 89.0575 62.437 89.9865C62.2166 90.7685 62.0136 91.5247 61.8235 92.2593C61.7328 92.6136 61.6421 92.9636 61.5557 93.3092C61.0805 95.2147 60.696 96.9517 60.3936 98.4813C59.4864 103.036 59.2747 105.771 59.2747 105.771L42.3187 103.649C42.9062 100.737 43.3642 98.1918 44.0035 95.4481C44.3578 93.9444 44.7595 92.3802 45.2779 90.6649C45.6408 89.4334 46.0642 88.1242 46.5653 86.7026C48.2674 81.82 49.8355 80.4676 49.8355 80.4676C56.3587 79.4219 64.9555 82.1398 64.9555 82.1398Z" fill="#263238"/>
<path d="M70.5931 97.1721L73.6128 97.6258C73.6128 97.6258 74.6367 97.2887 75.721 97.1721C76.8053 97.0597 78.0581 97.1721 78.0581 97.1721C78.0581 97.1721 79.4232 97.6862 79.4232 98.9955C79.4232 98.9955 76.2351 99.851 75.0082 99.3368L70.5931 98.9955V97.1721Z" fill="#E4897B"/>
<path d="M51.8745 153.028L55.0324 153.084L56.6049 145.799L53.4513 145.747L51.8745 153.028Z" fill="#EBB376"/>
<path opacity="0.2" d="M53.4513 145.747L56.6049 145.803L55.7064 149.969L52.583 149.757L53.4513 145.747Z" fill="black"/>
<path d="M62.0222 135.2C59.94 143.116 57.4214 148.785 57.4214 148.785L51.6585 148.344C51.6585 148.344 54.0216 139.11 54.8769 130.65C55.4083 125.431 55.3608 121.11 53.8315 120.773C52.8681 120.561 50.6174 120.57 47.736 120.634V109.888C55.8273 111.552 63.8798 114.685 64.4889 117.199C65.3529 120.738 63.8582 128.231 62.0222 135.2Z" fill="#00BB4B"/>
<path d="M51.0494 148.612L57.9096 149.07L58.9205 146.102L51.3605 145.747L51.0494 148.612Z" fill="#00BB4B"/>
<path opacity="0.2" d="M51.0494 148.612L57.9096 149.07L58.9205 146.102L51.3605 145.747L51.0494 148.612Z" fill="white"/>
<path d="M55.5076 152.929C55.5076 152.933 55.5724 152.933 55.5724 152.937C55.5767 152.95 55.6415 152.959 55.6502 152.967C55.6545 152.976 55.6545 152.985 55.6631 152.989C55.6718 152.993 55.6804 152.989 55.6891 152.985C55.9569 153.067 56.2334 153.123 56.5099 153.149C56.7172 153.188 56.9332 153.145 57.1103 153.032C57.2227 152.933 57.2659 152.773 57.2227 152.626C57.2097 152.531 57.1492 152.449 57.0628 152.406C56.8598 152.315 56.4969 152.427 56.1902 152.566C56.3846 152.324 56.5271 152.038 56.5012 151.844C56.4796 151.714 56.363 151.619 56.2334 151.606C56.1211 151.585 55.9742 151.615 55.8835 151.688C55.5551 151.974 55.5033 152.864 55.5033 152.92C55.5076 152.92 55.5076 152.924 55.5076 152.929C55.5076 152.924 55.5076 152.924 55.5076 152.929C55.5076 152.924 55.5076 152.929 55.5076 152.929ZM55.8489 152.743C55.823 152.756 55.8057 152.769 55.7841 152.777C55.7971 152.479 55.8532 151.978 56.0519 151.814C56.0951 151.775 56.1556 151.753 56.2118 151.758L56.2463 151.762C56.35 151.779 56.3759 151.835 56.3803 151.879C56.3932 152.09 56.1167 152.514 55.8489 152.743ZM55.8921 152.903C56.2723 152.691 56.8123 152.462 57.0153 152.557C57.0585 152.579 57.0887 152.617 57.0931 152.665C57.119 152.756 57.0931 152.855 57.0239 152.924C56.8641 153.054 56.4494 153.045 55.8921 152.903Z" fill="#00BB4B"/>
<path d="M55.4343 152.54L51.9005 152.319C51.7795 152.306 51.6672 152.397 51.6543 152.518V152.522L51.3087 155.314C51.2914 155.621 51.5203 155.884 51.8227 155.906C53.0583 155.962 53.6501 155.927 55.2053 156.014C56.16 156.07 58.0435 156.273 59.3611 156.148C60.6787 156.018 60.5189 154.722 59.9487 154.657C58.6008 154.501 56.8123 153.512 55.9699 152.76C55.8144 152.626 55.6287 152.553 55.4343 152.54Z" fill="#263238"/>
<path opacity="0.2" d="M62.0223 135.2C59.8709 133.839 57.3524 132.236 54.8813 130.65C55.4127 125.431 55.3652 121.11 53.8359 120.773C52.8725 120.561 50.6218 120.57 47.7404 120.634V109.888C55.8317 111.552 63.8842 114.685 64.4933 117.199C65.353 120.738 63.8583 128.231 62.0223 135.2Z" fill="black"/>
<path d="M70.3383 153.028L73.4919 153.084L75.0643 145.799L71.9107 145.747L70.3383 153.028Z" fill="#EBB376"/>
<path opacity="0.2" d="M71.9107 145.747L75.0643 145.803L74.1657 149.969L71.0424 149.757L71.9107 145.747Z" fill="black"/>
<path d="M58.8686 108.834L59.3784 104.755L42.8889 102.042C42.8889 102.042 37.4976 112.727 40.1371 117.968C42.5606 122.773 68.3337 119.913 72.2995 120.777C76.3085 121.654 70.1222 148.344 70.1222 148.344L75.8851 148.785C75.8851 148.785 84.7886 124.761 82.9569 117.204C82.1577 113.902 68.5713 109.538 58.8686 108.834Z" fill="#00BB4B"/>
<path d="M69.5088 148.612L76.369 149.07L77.3798 146.102L69.8198 145.747L69.5088 148.612Z" fill="#00BB4B"/>
<path opacity="0.2" d="M69.5088 148.612L76.369 149.07L77.3798 146.102L69.8198 145.747L69.5088 148.612Z" fill="white"/>
<path d="M73.9671 152.929C73.9671 152.933 74.0319 152.933 74.0319 152.937C74.0362 152.95 74.101 152.959 74.1096 152.967C74.114 152.976 74.114 152.985 74.1226 152.989C74.1312 152.993 74.1399 152.989 74.1485 152.985C74.4164 153.067 74.6928 153.123 74.9693 153.149C75.1767 153.188 75.3927 153.145 75.5698 153.032C75.6821 152.933 75.7253 152.773 75.6821 152.626C75.6692 152.531 75.6087 152.449 75.5223 152.406C75.3193 152.315 74.9564 152.427 74.6496 152.566C74.844 152.324 74.9866 152.038 74.9607 151.844C74.9391 151.714 74.8224 151.619 74.6928 151.606C74.5805 151.585 74.4336 151.615 74.3429 151.688C74.0146 151.974 73.9628 152.864 73.9628 152.92C73.9671 152.92 73.9671 152.924 73.9671 152.929C73.9671 152.924 73.9671 152.924 73.9671 152.929C73.9671 152.924 73.9671 152.929 73.9671 152.929ZM74.3084 152.743C74.2824 152.756 74.2652 152.769 74.2436 152.777C74.2565 152.479 74.3127 151.978 74.5114 151.814C74.5546 151.775 74.6151 151.753 74.6712 151.758L74.7058 151.762C74.8095 151.779 74.8354 151.835 74.8397 151.879C74.857 152.09 74.5762 152.514 74.3084 152.743ZM74.3516 152.903C74.7317 152.691 75.2717 152.462 75.4748 152.557C75.518 152.579 75.5482 152.617 75.5525 152.665C75.5784 152.756 75.5525 152.855 75.4834 152.924C75.3236 153.054 74.9088 153.045 74.3516 152.903Z" fill="#00BB4B"/>
<path d="M73.8936 152.54L70.3598 152.319C70.2389 152.306 70.1266 152.397 70.1136 152.518V152.522L69.768 155.314C69.7507 155.621 69.9797 155.884 70.2821 155.906C71.5176 155.962 72.1095 155.927 73.6647 156.014C74.6194 156.07 76.5029 156.273 77.8205 156.148C79.1381 156.018 78.9783 154.722 78.408 154.657C77.0602 154.501 75.2717 153.512 74.4293 152.76C74.2738 152.626 74.088 152.553 73.8936 152.54Z" fill="#263238"/>
<path d="M42.2842 103.895L49.9219 104.898L50.1725 103.77L42.5175 102.655L42.2842 103.895Z" fill="black"/>
<path d="M50.8076 103.774L50.7125 104.898L57.7757 105.866V104.76L50.8076 103.774Z" fill="black"/>
<path d="M58.212 104.82V105.866L59.2402 106.004V104.993L58.212 104.82Z" fill="black"/>
<path opacity="0.2" d="M63.2966 87.1087C62.9855 88.0939 62.7004 89.0574 62.4369 89.9864C62.2166 90.7685 62.0135 91.5247 61.8235 92.2592C61.2921 89.3642 62.2555 85.9075 62.2555 85.9075L63.2966 87.1087Z" fill="black"/>
<path d="M64.9555 82.1354C66.3336 82.4163 66.7915 93.1277 66.8476 94.2641C66.9038 95.4048 73.6128 97.6214 73.6128 97.6214V99.1813C73.6128 99.1813 66.4243 98.68 64.7438 97.993C63.0676 97.306 62.6572 87.368 62.6572 87.368L64.9555 82.1354Z" fill="#E4897B"/>
<path d="M64.9555 82.1354C66.2212 82.5286 66.8476 89.5933 66.8476 89.5933L62.9337 91.1704L61.9617 87.2427C61.9617 87.2427 61.6852 86.4433 62.2295 84.7582C63.0201 82.3212 64.9555 82.1354 64.9555 82.1354Z" fill="#263238"/>
<path d="M70.3901 122.587H32.3439V120.76C32.3439 118.872 33.8732 117.342 35.761 117.342H66.973C68.8608 117.342 70.3901 118.872 70.3901 120.76V122.587Z" fill="#00BB4B"/>
<path d="M45.9087 104.349H66.8564C67.932 104.349 68.7312 105.352 68.4893 106.401L64.7439 122.587H63.8799L67.0724 108.402C67.31 107.356 66.5108 106.358 65.4394 106.358H46.3407L45.9087 104.349Z" fill="#263238"/>
<path d="M53.8401 123.154V136.829C53.8401 137.27 53.4816 137.624 53.0453 137.624H49.6929C49.2523 137.624 48.8981 137.27 48.8981 136.829V123.154H53.8401Z" fill="#263238"/>
<path d="M35.3333 154.73C35.3333 153.927 34.681 153.279 33.8818 153.279C33.0783 153.279 32.4303 153.931 32.4303 154.73C32.4303 155.534 33.0826 156.182 33.8818 156.182C34.6853 156.187 35.3333 155.534 35.3333 154.73Z" fill="#263238"/>
<path opacity="0.2" d="M34.6075 154.73C34.6075 154.329 34.2835 154.005 33.8818 154.005C33.48 154.005 33.156 154.329 33.156 154.73C33.156 155.132 33.48 155.456 33.8818 155.456C34.2835 155.456 34.6075 155.132 34.6075 154.73Z" fill="white"/>
<path d="M70.3038 154.73C70.3038 153.927 69.6515 153.279 68.8523 153.279C68.0531 153.279 67.4008 153.931 67.4008 154.73C67.4008 155.534 68.0531 156.182 68.8523 156.182C69.6515 156.182 70.3038 155.534 70.3038 154.73Z" fill="#263238"/>
<path opacity="0.2" d="M69.578 154.73C69.578 154.329 69.254 154.005 68.8522 154.005C68.4505 154.005 68.1265 154.329 68.1265 154.73C68.1265 155.132 68.4505 155.456 68.8522 155.456C69.254 155.456 69.578 155.132 69.578 154.73Z" fill="white"/>
<path d="M52.5659 148.357V132.724H50.1639V148.357C40.8068 148.599 35.1174 151.87 33.9812 152.587C33.8473 152.669 33.7695 152.816 33.7695 152.976V154.277C33.7695 154.532 33.9769 154.735 34.2275 154.735C34.3916 154.735 34.5428 154.648 34.6249 154.501L35.1822 153.529C35.1822 153.529 41.619 151.235 50.1639 151.049V153.62C50.1639 153.948 50.4318 154.216 50.7601 154.216H51.974C52.3023 154.216 52.5702 153.948 52.5702 153.62V151.049C61.1151 151.235 67.5519 153.529 67.5519 153.529L68.1092 154.501C68.1913 154.644 68.3425 154.735 68.5067 154.735C68.7615 154.735 68.9646 154.527 68.9646 154.277V152.976C68.9646 152.821 68.8868 152.674 68.7529 152.587C67.6124 151.87 61.9273 148.595 52.5659 148.357Z" fill="#263238"/>
<path d="M52.1554 153.279H50.5786V156.187H52.1554V153.279Z" fill="#263238"/>
<path opacity="0.2" d="M53.8401 123.154H48.8981V128.835H53.8401V123.154Z" fill="black"/>
<path d="M71.4313 121.745V123.378C71.4313 123.841 71.0555 124.212 70.5932 124.212H32.1409C31.6786 124.212 31.3071 123.841 31.3071 123.378V121.745C31.3071 121.287 31.6786 120.911 32.1409 120.911H70.5932C71.0555 120.911 71.4313 121.287 71.4313 121.745Z" fill="#263238"/>
<path d="M53.7408 122.587H31.3071C31.3071 122.587 24.1791 110.731 24.1791 91.1402V83.9459C24.1791 80.9904 26.5767 78.5923 29.5359 78.5923H39.0485C41.9472 78.5923 44.3189 80.8954 44.401 83.7947C44.6775 93.8882 46.1636 115.748 53.7408 122.587Z" fill="#263238"/>
<path opacity="0.2" d="M48.8031 122.587H32.318C31.6786 122.587 31.0954 122.237 30.8017 121.671C29.1774 118.543 24.1748 107.555 24.1748 91.1402V83.9459C24.1748 80.9904 26.5724 78.5923 29.5273 78.5923H37.7482C40.647 78.5923 43.0186 80.8954 43.1007 83.7947C43.347 92.8123 44.5609 111.219 50.2201 119.921C50.9674 121.071 50.1726 122.587 48.8031 122.587Z" fill="white"/>
<path opacity="0.2" d="M71.4312 121.745V123.378C71.4312 123.841 71.0597 124.212 70.5974 124.212H53.3649C52.7429 124.212 52.2374 123.707 52.2374 123.084V122.039C52.2374 121.416 52.7429 120.911 53.3649 120.911H70.5931C71.0554 120.911 71.4312 121.287 71.4312 121.745Z" fill="black"/>
<path d="M31.2985 77.9572L32.7241 76.0906C32.7241 76.0906 38.8153 76.3671 38.9578 78.5924C39.1047 80.8176 31.2985 77.9572 31.2985 77.9572Z" fill="#00BB4B"/>
<path d="M27.2981 83.5441C27.2981 83.5441 27.6696 93.4345 27.2981 118.98C27.2852 119.839 24.0754 119.813 23.8508 118.98C23.0775 116.072 23.8508 92.8512 23.8508 92.8512" fill="#00BB4B"/>
<path d="M23.9155 119.105L27.1944 119.217V120.855L23.9155 120.686V119.105Z" fill="#00BB4B"/>
<path opacity="0.2" d="M27.2981 83.5441C27.2981 83.5441 27.6696 93.4345 27.2981 118.98C27.2852 119.839 24.0754 119.813 23.8508 118.98C23.0775 116.072 23.8508 92.8512 23.8508 92.8512" fill="white"/>
<path d="M22.2956 113.751C22.1184 109.046 21.4748 87.3983 24.1748 80.2257C24.1748 80.2257 26.7192 76.9937 35.3333 76.9937C43.9474 76.9937 46.5351 83.1077 46.5351 83.1077C46.5351 83.1077 46.9066 92.9982 46.5351 118.543C46.5221 119.403 43.3124 119.377 43.092 118.543C42.3188 115.635 43.092 92.4148 43.092 92.4148L41.3684 113.54C41.3424 113.838 41.0703 114.058 40.7722 114.011C38.0549 113.591 26.0712 111.898 22.9176 114.058C22.6584 114.235 22.3085 114.067 22.2956 113.751Z" fill="#00BB4B"/>
<path d="M43.1525 118.668L46.4313 118.781V120.418L43.1525 120.25V118.668Z" fill="#00BB4B"/>
<path d="M40.932 114.032L40.6728 115.756C40.6728 115.756 27.3111 112.84 22.9824 115.946L22.7275 114.032C22.7232 114.032 26.0669 110.951 40.932 114.032Z" fill="#00BB4B"/>
<path opacity="0.4" d="M22.2956 113.751C22.1184 109.046 21.4748 87.3983 24.1748 80.2257C24.1748 80.2257 26.7192 76.9937 35.3333 76.9937C43.9474 76.9937 46.5351 83.1077 46.5351 83.1077C46.5351 83.1077 46.9066 92.9982 46.5351 118.543C46.5221 119.403 43.3124 119.377 43.092 118.543C42.3188 115.635 43.092 92.4148 43.092 92.4148L41.3684 113.54C41.3424 113.838 41.0703 114.058 40.7722 114.011C38.0549 113.591 26.0712 111.898 22.9176 114.058C22.6584 114.235 22.3085 114.067 22.2956 113.751Z" fill="white"/>
<path opacity="0.2" d="M43.092 92.4105C43.092 92.4105 43.2821 85.7045 46.5351 83.1033C46.5351 83.1077 42.4656 84.8576 43.092 92.4105Z" fill="black"/>
<path opacity="0.2" d="M33.2943 77.7671C33.2943 77.7671 29.3631 79.9102 28.7367 109.366C28.7367 109.366 27.026 79.6683 33.2943 77.7671Z" fill="black"/>
</svg>
