<svg width="25" height="25" viewBox="0 0 20 20" fill="none" xmlns="http://www.w3.org/2000/svg">
<path d="M9.99992 0.833374C5.03067 0.833374 0.833252 5.03079 0.833252 10C0.833252 14.9693 5.03067 19.1667 9.99992 19.1667C14.9692 19.1667 19.1666 14.9693 19.1666 10C19.1666 5.03079 14.9692 0.833374 9.99992 0.833374ZM9.99992 5.41671C11.583 5.41671 12.7499 6.58271 12.7499 8.16671C12.7499 9.75071 11.583 10.9167 9.99992 10.9167C8.41775 10.9167 7.24992 9.75071 7.24992 8.16671C7.24992 6.58271 8.41775 5.41671 9.99992 5.41671ZM5.31942 14.3744C6.14167 13.1644 7.513 12.3577 9.08325 12.3577H10.9166C12.4878 12.3577 13.8582 13.1644 14.6804 14.3744C13.5089 15.6284 11.847 16.4167 9.99992 16.4167C8.15284 16.4167 6.49092 15.6284 5.31942 14.3744Z" fill="#181818"/>
</svg>
