<svg width="20" height="15" viewBox="0 0 20 15" fill="none" xmlns="http://www.w3.org/2000/svg">
<path d="M9.73509 3.92275L3.33336 8.96465V14.4063C3.33336 14.5472 3.39189 14.6823 3.49608 14.782C3.60026 14.8816 3.74157 14.9376 3.88891 14.9376L7.77988 14.9279C7.92674 14.9272 8.06734 14.8709 8.17092 14.7714C8.27451 14.6718 8.33266 14.5371 8.33266 14.3967V11.2188C8.33266 11.0779 8.39119 10.9428 8.49537 10.8432C8.59956 10.7435 8.74087 10.6876 8.88821 10.6876H11.1104C11.2578 10.6876 11.3991 10.7435 11.5033 10.8432C11.6075 10.9428 11.666 11.0779 11.666 11.2188V14.3944C11.6658 14.4643 11.68 14.5335 11.7078 14.5982C11.7356 14.6628 11.7765 14.7216 11.8281 14.7711C11.8797 14.8206 11.941 14.8599 12.0085 14.8867C12.0761 14.9135 12.1484 14.9273 12.2215 14.9273L16.1111 14.9376C16.2585 14.9376 16.3998 14.8816 16.504 14.782C16.6081 14.6823 16.6667 14.5472 16.6667 14.4063V8.96099L10.2663 3.92275C10.1911 3.86475 10.0974 3.83312 10.0007 3.83312C9.90406 3.83312 9.81033 3.86475 9.73509 3.92275ZM19.8472 7.34964L16.9444 5.06161V0.462647C16.9444 0.356975 16.9005 0.25563 16.8224 0.180909C16.7443 0.106187 16.6383 0.064209 16.5278 0.064209H14.5833C14.4728 0.064209 14.3669 0.106187 14.2887 0.180909C14.2106 0.25563 14.1667 0.356975 14.1667 0.462647V2.87353L11.058 0.427784C10.7597 0.19303 10.3853 0.0646783 9.99897 0.0646783C9.61262 0.0646783 9.23827 0.19303 8.93995 0.427784L0.150726 7.34964C0.108535 7.38299 0.0736275 7.42396 0.0479998 7.47021C0.0223721 7.51647 0.00652586 7.56709 0.00136663 7.6192C-0.0037926 7.67131 0.00183625 7.72389 0.0179316 7.77392C0.0340269 7.82395 0.0602732 7.87045 0.0951708 7.91078L0.980586 8.94008C1.01539 8.98054 1.0582 9.01405 1.10656 9.03867C1.15492 9.0633 1.20788 9.07857 1.26242 9.08359C1.31696 9.08862 1.372 9.08331 1.42439 9.06797C1.47678 9.05263 1.52549 9.02756 1.56774 8.9942L9.73509 2.56142C9.81033 2.50342 9.90406 2.47179 10.0007 2.47179C10.0974 2.47179 10.1911 2.50342 10.2663 2.56142L18.434 8.9942C18.4762 9.02757 18.5248 9.05267 18.5772 9.06806C18.6295 9.08345 18.6844 9.08883 18.7389 9.0839C18.7934 9.07896 18.8464 9.06381 18.8948 9.0393C18.9431 9.0148 18.986 8.98142 19.0208 8.94107L19.9062 7.91177C19.9411 7.87121 19.9672 7.82447 19.9832 7.77422C19.9991 7.72397 20.0044 7.67121 19.9989 7.61898C19.9935 7.56674 19.9772 7.51605 19.9512 7.46983C19.9251 7.42361 19.8898 7.38277 19.8472 7.34964Z" fill="#181818"/>
</svg>
