<svg width="20" height="15" viewBox="0 0 20 15" fill="none" xmlns="http://www.w3.org/2000/svg">
<path d="M19.2277 2.90503C19.1708 2.83108 19.0977 2.77114 19.014 2.72983C18.9303 2.68852 18.8383 2.66692 18.745 2.6667H4.6283L4.3533 1.79281C4.32309 1.69898 4.27063 1.61385 4.2004 1.54468C4.13017 1.47551 4.04425 1.42436 3.94997 1.39559L1.44441 0.625585C1.36737 0.601911 1.28642 0.593643 1.20618 0.601253C1.12594 0.608863 1.04799 0.632203 0.976772 0.66994C0.832942 0.746153 0.725278 0.87638 0.677466 1.03197C0.629653 1.18757 0.645608 1.35578 0.721821 1.49961C0.798034 1.64344 0.928261 1.75111 1.08385 1.79892L3.27774 2.47114L6.07663 11.3139L5.08052 12.1328L5.00108 12.2123C4.75474 12.4975 4.61517 12.8595 4.60625 13.2363C4.59733 13.613 4.71962 13.9812 4.95219 14.2778C5.11875 14.4804 5.33041 14.6411 5.57023 14.7472C5.81005 14.8534 6.07137 14.9019 6.3333 14.8889H16.5327C16.6948 14.8889 16.8503 14.8245 16.9649 14.7099C17.0795 14.5953 17.1439 14.4399 17.1439 14.2778C17.1439 14.1157 17.0795 13.9603 16.9649 13.8457C16.8503 13.7311 16.6948 13.6667 16.5327 13.6667H6.23552C6.16515 13.6643 6.09659 13.6438 6.03646 13.6071C5.97633 13.5705 5.92666 13.519 5.89226 13.4575C5.85785 13.3961 5.83987 13.3268 5.84006 13.2564C5.84024 13.186 5.85858 13.1168 5.8933 13.0556L7.36608 11.8334H16.7955C16.9351 11.8374 17.0719 11.7936 17.1831 11.7091C17.2943 11.6245 17.3732 11.5045 17.4066 11.3689L19.3622 3.42447C19.3808 3.33337 19.3783 3.23922 19.355 3.14921C19.3317 3.05919 19.2882 2.97568 19.2277 2.90503Z" fill="#181818"/>
</svg>
