<svg width="16" height="16" viewBox="0 0 16 16" fill="none" xmlns="http://www.w3.org/2000/svg">
<path d="M2.375 0.5C1.87772 0.5 1.40081 0.697544 1.04917 1.04917C0.697544 1.40081 0.5 1.87772 0.5 2.375V13.625C0.5 14.1223 0.697544 14.5992 1.04917 14.9508C1.40081 15.3025 1.87772 15.5 2.375 15.5H13.625C14.1223 15.5 14.5992 15.3025 14.9508 14.9508C15.3025 14.5992 15.5 14.1223 15.5 13.625V2.375C15.5 1.87772 15.3025 1.40081 14.9508 1.04917C14.5992 0.697544 14.1223 0.5 13.625 0.5H2.375ZM5.29167 4.875C5.29167 5.09601 5.20387 5.30798 5.04759 5.46426C4.89131 5.62054 4.67935 5.70833 4.45833 5.70833C4.23732 5.70833 4.02536 5.62054 3.86908 5.46426C3.7128 5.30798 3.625 5.09601 3.625 4.875C3.625 4.65399 3.7128 4.44202 3.86908 4.28574C4.02536 4.12946 4.23732 4.04167 4.45833 4.04167C4.67935 4.04167 4.89131 4.12946 5.04759 4.28574C5.20387 4.44202 5.29167 4.65399 5.29167 4.875ZM6.75 4.875C6.75 4.70924 6.81585 4.55027 6.93306 4.43306C7.05027 4.31585 7.20924 4.25 7.375 4.25H11.9583C12.1241 4.25 12.2831 4.31585 12.4003 4.43306C12.5175 4.55027 12.5833 4.70924 12.5833 4.875C12.5833 5.04076 12.5175 5.19973 12.4003 5.31694C12.2831 5.43415 12.1241 5.5 11.9583 5.5H7.375C7.20924 5.5 7.05027 5.43415 6.93306 5.31694C6.81585 5.19973 6.75 5.04076 6.75 4.875ZM6.75 8C6.75 7.83424 6.81585 7.67527 6.93306 7.55806C7.05027 7.44085 7.20924 7.375 7.375 7.375H11.9583C12.1241 7.375 12.2831 7.44085 12.4003 7.55806C12.5175 7.67527 12.5833 7.83424 12.5833 8C12.5833 8.16576 12.5175 8.32473 12.4003 8.44194C12.2831 8.55915 12.1241 8.625 11.9583 8.625H7.375C7.20924 8.625 7.05027 8.55915 6.93306 8.44194C6.81585 8.32473 6.75 8.16576 6.75 8ZM7.375 10.5H11.9583C12.1241 10.5 12.2831 10.5658 12.4003 10.6831C12.5175 10.8003 12.5833 10.9592 12.5833 11.125C12.5833 11.2908 12.5175 11.4497 12.4003 11.5669C12.2831 11.6842 12.1241 11.75 11.9583 11.75H7.375C7.20924 11.75 7.05027 11.6842 6.93306 11.5669C6.81585 11.4497 6.75 11.2908 6.75 11.125C6.75 10.9592 6.81585 10.8003 6.93306 10.6831C7.05027 10.5658 7.20924 10.5 7.375 10.5ZM4.45833 8.83333C4.23732 8.83333 4.02536 8.74554 3.86908 8.58926C3.7128 8.43297 3.625 8.22101 3.625 8C3.625 7.77899 3.7128 7.56702 3.86908 7.41074C4.02536 7.25446 4.23732 7.16667 4.45833 7.16667C4.67935 7.16667 4.89131 7.25446 5.04759 7.41074C5.20387 7.56702 5.29167 7.77899 5.29167 8C5.29167 8.22101 5.20387 8.43297 5.04759 8.58926C4.89131 8.74554 4.67935 8.83333 4.45833 8.83333ZM5.29167 11.125C5.29167 11.346 5.20387 11.558 5.04759 11.7143C4.89131 11.8705 4.67935 11.9583 4.45833 11.9583C4.23732 11.9583 4.02536 11.8705 3.86908 11.7143C3.7128 11.558 3.625 11.346 3.625 11.125C3.625 10.904 3.7128 10.692 3.86908 10.5357C4.02536 10.3795 4.23732 10.2917 4.45833 10.2917C4.67935 10.2917 4.89131 10.3795 5.04759 10.5357C5.20387 10.692 5.29167 10.904 5.29167 11.125Z" fill="#181818"/>
</svg>
