<svg width="17" height="17" viewBox="0 0 17 17" fill="none" xmlns="http://www.w3.org/2000/svg">
<path d="M7.33329 14C8.81244 13.9997 10.249 13.5045 11.4141 12.5933L15.0775 16.2566L16.2558 15.0783L12.5925 11.415C13.5041 10.2497 13.9996 8.81282 14 7.33329C14 3.65746 11.0091 0.666626 7.33329 0.666626C3.65746 0.666626 0.666626 3.65746 0.666626 7.33329C0.666626 11.0091 3.65746 14 7.33329 14ZM7.33329 2.33329C10.0908 2.33329 12.3333 4.57579 12.3333 7.33329C12.3333 10.0908 10.0908 12.3333 7.33329 12.3333C4.57579 12.3333 2.33329 10.0908 2.33329 7.33329C2.33329 4.57579 4.57579 2.33329 7.33329 2.33329Z" fill="black"/>
</svg>
